<?xml version="1.0" encoding="utf-8"?>
<!-- Generator: Adobe Illustrator 27.5.0, SVG Export Plug-In . SVG Version: 6.00 Build 0)  -->
<svg version="1.1" xmlns="http://www.w3.org/2000/svg" xmlns:xlink="http://www.w3.org/1999/xlink" x="0px" y="0px"
	 viewBox="0 0 500 500" style="enable-background:new 0 0 500 500;" xml:space="preserve">
<g id="Floor">
	<path id="Floor_00000000205776466135469800000007881498785158692752_" style="fill:#F5F5F5;" d="M77.664,458.869
		c-95.178-45.19-95.178-118.457,0-163.646c95.178-45.189,249.493-45.189,344.672,0c95.178,45.189,95.178,118.456,0,163.646
		C327.157,504.059,172.843,504.059,77.664,458.869z"/>
</g>
<g id="Windows">
	<g id="Window_00000090258945990500422630000000842878742141127565_">
		<g id="Window_00000132795093367068445790000010235313811445403311_">
			<g id="Frame_00000049208804977675482030000014293478218686868641_">
				<polygon id="XMLID_00000150784675114057064570000009270365294243325858_" style="fill:#FAFAFA;" points="28.188,279.057 
					30.896,280.671 120.251,229.082 117.545,227.466 				"/>
				<g id="XMLID_00000179625521180192996090000009917747115971387522_">
					<g id="XMLID_00000052788073811154946430000009541052547683013019_">
						<g id="XMLID_00000078019480664466928580000009208137860941039269_">
							<polygon id="XMLID_00000141435706381365837340000016958283453997621168_" style="fill:#FFFFFF;" points="117.545,227.466 
								30.897,277.486 30.898,82.339 117.546,32.339 							"/>
						</g>
					</g>
				</g>
				<path id="XMLID_00000057828540978203385400000003709555762762148745_" style="fill:#F0F0F0;" d="M125.362,21.902L25.788,79.39
					l0,210.128l99.574-57.489L125.362,21.902z M120.251,229.082l-89.355,51.589l0.001-198.332l89.355-51.589L120.251,229.082z"/>
				<polygon id="XMLID_00000044889122991471768980000006895253052852317606_" style="fill:#E0E0E0;" points="120.251,229.082 
					117.545,227.466 117.546,32.339 120.252,30.75 				"/>
				<polygon id="XMLID_00000031894221745388960400000006802960526485836197_" style="fill:#FAFAFA;" points="30.896,214.147 
					30.896,217.325 120.251,165.736 117.545,164.12 				"/>
				<polygon id="XMLID_00000063616798889706403170000002515614665061134525_" style="fill:#FAFAFA;" points="30.896,136.628 
					30.896,139.805 120.251,88.216 117.545,86.601 				"/>
				<polygon id="XMLID_00000003077887301016327450000004553588126032778175_" style="fill:#FAFAFA;" points="125.362,21.902 
					122.613,20.328 23.039,77.817 25.788,79.39 				"/>
				<polygon id="XMLID_00000052788234028867648350000001891142067220668838_" style="fill:#E0E0E0;" points="23.039,77.817 
					25.788,79.39 25.788,289.519 23.039,287.945 				"/>
				<polygon id="XMLID_00000062896331165702786440000012116667842306272951_" style="fill:#E0E0E0;" points="70.281,59.601 
					73.03,58.014 73.03,256.355 70.281,254.781 				"/>
			</g>
			<polygon style="fill:#F0F0F0;" points="78.14,55.078 73.03,58.014 73.03,256.355 78.138,253.396 			"/>
			<g>
				<polygon style="fill:#F0F0F0;" points="125.362,85.267 125.362,91.159 25.788,148.647 25.788,142.755 				"/>
				<polygon style="fill:#F0F0F0;" points="125.362,162.773 125.362,168.665 25.788,226.153 25.788,220.262 				"/>
			</g>
			<polygon style="fill:#FAFAFA;" points="73.03,115.48 70.281,113.889 30.896,136.628 30.896,139.805 			"/>
			<polygon style="fill:#FAFAFA;" points="73.03,192.967 70.281,191.377 30.896,214.116 30.896,217.293 			"/>
		</g>
	</g>
</g>
<g id="Pictures">
	<g id="Picture_00000121994384280331016190000008209642896346376359_">
		<g id="Frame_00000142134857259566705720000016110702868692230068_">
			<polygon id="XMLID_00000152236578212660091810000001672571483880707761_" style="fill:#FAFAFA;" points="464.122,89.226 
				462.246,90.344 423.742,68.115 425.618,66.995 			"/>
			<g id="XMLID_00000151501466351876845580000008591533331699107772_">
				<g id="XMLID_00000051352041982259445090000014663361480528044937_">
					<g id="XMLID_00000025402471021743806620000009972356069709382556_">
						<polygon id="XMLID_00000072251426435144967680000017700744682469377196_" style="fill:#FFFFFF;" points="425.618,66.995 
							462.245,88.137 462.245,49.781 425.617,28.653 						"/>
					</g>
				</g>
			</g>
			<path id="XMLID_00000137114450319603970990000016208789344330228654_" style="fill:#F0F0F0;" d="M420.2,70.158l45.586,26.319
				l0-48.739L420.2,21.419L420.2,70.158z M423.742,27.551l38.503,22.23l0.001,40.563l-38.503-22.23L423.742,27.551z"/>
			<polygon id="XMLID_00000014600621926142025160000004015974254587920046_" style="fill:#E0E0E0;" points="423.742,68.115 
				425.618,66.995 425.617,28.653 423.742,27.551 			"/>
			<polygon id="XMLID_00000080892276766005392080000011595837875118847362_" style="fill:#FAFAFA;" points="420.2,21.419 
				422.105,20.328 467.691,46.647 465.786,47.738 			"/>
			<polygon id="XMLID_00000164493783705657941110000008788295296695226752_" style="fill:#E0E0E0;" points="467.691,46.647 
				465.786,47.738 465.786,96.477 467.691,95.386 			"/>
		</g>
		<g id="Land_00000071547602896714300730000004258337209630019220_">
			<polygon style="fill:#F0F0F0;" points="427.048,65.849 460.815,85.344 460.815,75.596 452.372,56.101 447.113,60.975 
				449.005,69.146 437.345,44.21 427.048,56.101 			"/>
			<path style="fill:#F0F0F0;" d="M447.431,46.687c1.379,0.796,2.497,2.733,2.497,4.326c0,1.593-1.118,2.238-2.497,1.442
				c-1.38-0.796-2.497-2.733-2.497-4.326C444.934,46.536,446.052,45.891,447.431,46.687z"/>
		</g>
	</g>
	<g id="Picture_00000062183486010961491150000011974704914619194022_">
		<g id="Frame_00000054963568700503426480000009228324966180206000_">
			<polygon id="XMLID_00000179637202054449226320000011745553750660056495_" style="fill:#FAFAFA;" points="464.122,156.58 
				462.246,157.699 423.742,135.469 425.618,134.349 			"/>
			<g id="XMLID_00000167376047849511821960000016238810483945185427_">
				<g id="XMLID_00000083084490516265811630000012215943616597568703_">
					<g id="XMLID_00000151531742366207987790000003313913274859799175_">
						<polygon id="XMLID_00000008139820657108883480000010072332039152896897_" style="fill:#FFFFFF;" points="425.618,134.349 
							462.245,155.492 462.245,117.136 425.617,96.007 						"/>
					</g>
				</g>
			</g>
			<path id="XMLID_00000078010996652357688540000001249670430331201670_" style="fill:#F0F0F0;" d="M420.2,137.512l45.586,26.319
				l0-48.739L420.2,88.773L420.2,137.512z M423.742,94.906l38.503,22.23l0.001,40.563l-38.503-22.23L423.742,94.906z"/>
			<polygon id="XMLID_00000060717484606980883750000016592010934940220063_" style="fill:#E0E0E0;" points="423.742,135.469 
				425.618,134.349 425.617,96.007 423.742,94.906 			"/>
			<polygon id="XMLID_00000120517690515129961950000008153641909739060384_" style="fill:#FAFAFA;" points="420.2,88.773 
				422.105,87.682 467.691,114.001 465.786,115.092 			"/>
			<polygon id="XMLID_00000165202858903492661100000000456456673015657623_" style="fill:#E0E0E0;" points="467.691,114.001 
				465.786,115.092 465.786,163.831 467.691,162.74 			"/>
		</g>
		<g id="Land_00000057121711908287957160000004010415545053946555_">
			<polygon style="fill:#F0F0F0;" points="427.048,133.203 460.815,152.699 460.815,142.951 452.372,123.455 447.113,128.329 
				449.005,136.5 437.345,111.564 427.048,123.455 			"/>
			<path style="fill:#F0F0F0;" d="M447.431,114.041c1.379,0.796,2.497,2.733,2.497,4.326c0,1.593-1.118,2.238-2.497,1.442
				c-1.38-0.796-2.497-2.733-2.497-4.326C444.934,113.891,446.052,113.245,447.431,114.041z"/>
		</g>
	</g>
	<g id="Picture_00000018210446006959639310000004711914095503312042_">
		<g id="Frame_00000118370104233142303260000014140199463253875844_">
			<polygon id="XMLID_00000142889716224699615290000006766578400048728989_" style="fill:#FAFAFA;" points="140.455,89.226 
				142.332,90.344 180.835,68.115 178.96,66.995 			"/>
			<g id="XMLID_00000093860650740432350530000008591896448174813592_">
				<g id="XMLID_00000052084528018107090900000005748090149393526924_">
					<g id="XMLID_00000040555129720312776540000015217439435613263035_">
						<polygon id="XMLID_00000023240089198359740310000011218933191237345153_" style="fill:#FFFFFF;" points="178.96,66.995 
							142.332,88.137 142.333,49.781 178.96,28.653 						"/>
					</g>
				</g>
			</g>
			<path id="XMLID_00000051363756784411012950000009763822772003231621_" style="fill:#F0F0F0;" d="M184.377,21.419l-45.586,26.319
				l0,48.739l45.586-26.319L184.377,21.419z M180.835,68.115l-38.503,22.23l0.001-40.563l38.503-22.23L180.835,68.115z"/>
			<polygon id="XMLID_00000033361668007257741000000007104244858204764853_" style="fill:#E0E0E0;" points="180.835,68.115 
				178.96,66.995 178.96,28.653 180.836,27.551 			"/>
			<polygon id="XMLID_00000066478460855397732070000001168532052561326268_" style="fill:#FAFAFA;" points="184.377,21.419 
				182.472,20.328 136.886,46.647 138.791,47.738 			"/>
			<polygon id="XMLID_00000085246181529973537630000005514705041857449629_" style="fill:#E0E0E0;" points="136.886,46.647 
				138.791,47.738 138.791,96.477 136.886,95.386 			"/>
		</g>
		<g id="Land_00000035489271629907061380000002701809535415059613_">
			<polygon style="fill:#F0F0F0;" points="177.53,65.849 143.763,85.344 143.763,75.596 152.205,56.101 157.464,60.975 
				155.572,69.146 167.232,44.21 177.53,56.101 			"/>
			<path style="fill:#F0F0F0;" d="M157.146,46.687c-1.38,0.796-2.497,2.733-2.497,4.326c0,1.593,1.118,2.238,2.497,1.442
				c1.379-0.796,2.497-2.733,2.497-4.326C159.644,46.536,158.526,45.891,157.146,46.687z"/>
		</g>
	</g>
	<g id="Picture_00000090259877076682571230000009170258805098677152_">
		<g id="Frame_00000082351701563496014840000009169961889316630916_">
			<polygon id="XMLID_00000140724917760830251540000000688469014806944692_" style="fill:#FAFAFA;" points="140.455,156.58 
				142.332,157.699 180.835,135.469 178.96,134.349 			"/>
			<g id="XMLID_00000124120166790067244860000004303842204511939757_">
				<g id="XMLID_00000113355004268703072670000011116765347710597549_">
					<g id="XMLID_00000144333957919991114910000010824453234032580793_">
						<polygon id="XMLID_00000114055054810435497960000012965419746635541687_" style="fill:#FFFFFF;" points="178.96,134.349 
							142.332,155.492 142.333,117.136 178.96,96.007 						"/>
					</g>
				</g>
			</g>
			<path id="XMLID_00000111171055348326860100000010091562449340389046_" style="fill:#F0F0F0;" d="M184.377,88.773l-45.586,26.319
				l0,48.739l45.586-26.319L184.377,88.773z M180.835,135.469l-38.503,22.23l0.001-40.563l38.503-22.23L180.835,135.469z"/>
			<polygon id="XMLID_00000163764743555923295760000014966297853367749000_" style="fill:#E0E0E0;" points="180.835,135.469 
				178.96,134.349 178.96,96.007 180.836,94.906 			"/>
			<polygon id="XMLID_00000147908473321610481030000014849503625869020305_" style="fill:#FAFAFA;" points="184.377,88.773 
				182.472,87.682 136.886,114.001 138.791,115.092 			"/>
			<polygon id="XMLID_00000122712526512886918920000016575604981146572189_" style="fill:#E0E0E0;" points="136.886,114.001 
				138.791,115.092 138.791,163.831 136.886,162.74 			"/>
		</g>
		<g id="Land_00000082342078989865095400000014207553600917894067_">
			<polygon style="fill:#F0F0F0;" points="177.53,133.203 143.763,152.699 143.763,142.951 152.205,123.455 157.464,128.329 
				155.572,136.5 167.232,111.564 177.53,123.455 			"/>
			<path style="fill:#F0F0F0;" d="M157.146,114.041c-1.38,0.796-2.497,2.733-2.497,4.326c0,1.593,1.118,2.238,2.497,1.442
				c1.379-0.796,2.497-2.733,2.497-4.326C159.644,113.891,158.526,113.245,157.146,114.041z"/>
		</g>
	</g>
</g>
<g id="Shadows">
	<ellipse id="Shadow_44_" style="fill:#E0E0E0;" cx="63.251" cy="428.175" rx="32.07" ry="18.516"/>
	
		<ellipse id="Shadow_00000088107305898958152780000011824779279851199675_" style="fill:#E0E0E0;" cx="300.397" cy="409.659" rx="70.314" ry="40.596"/>
	<path id="Shadow_43_" style="fill:#E0E0E0;" d="M425.294,437.147l54.256-31.269c1.262-0.729,1.263-1.912,0.003-2.643
		l-111.927-64.817c-1.26-0.731-3.305-0.733-4.566-0.005l-54.256,31.269c-1.262,0.729-1.263,1.912-0.003,2.643l111.927,64.817
		C421.988,437.874,424.032,437.876,425.294,437.147z"/>
	<path id="Shadow_00000044894640122795016430000005497195273447537596_" style="fill:#E0E0E0;" d="M110.053,461.625
		c-1.452,0.839-3.807,0.839-5.259,0L75.161,444.5c-1.452-0.838-1.452-2.198,0-3.036l141.556-81.749c1.452-0.838,3.806-0.838,5.259,0
		l29.635,17.126c1.452,0.838,1.457,2.207,0.012,3.056L110.053,461.625z"/>
</g>
<g id="Drawer">
	<g id="Drawer_1_">
		<g id="Drawer_4_">
			<g>
				<g>
					<polygon style="fill:#E0E0E0;" points="413.816,406.903 418.476,430.019 423.006,432.634 427.495,430.042 432.194,406.904 
						423.004,401.598 					"/>
					<polygon style="opacity:0.05;" points="413.816,406.903 418.476,430.019 423.006,432.634 427.495,430.042 432.194,406.904 
						423.004,401.598 					"/>
					<polygon style="fill:#EBEBEB;" points="423.006,432.634 423.005,412.208 413.816,406.903 418.476,430.019 					"/>
				</g>
				<polygon style="opacity:0.05;" points="413.816,406.903 416.826,421.831 423.006,425.399 429.16,421.847 432.194,406.904 
					423.004,401.598 				"/>
			</g>
			<g>
				<g>
					<polygon style="fill:#E0E0E0;" points="454.223,383.575 458.883,406.69 463.412,409.306 467.901,406.714 472.601,383.575 
						463.411,378.269 					"/>
					<polygon style="opacity:0.05;" points="454.223,383.575 458.883,406.69 463.412,409.306 467.901,406.714 472.601,383.575 
						463.411,378.269 					"/>
					<polygon style="fill:#EBEBEB;" points="463.412,409.306 463.411,388.88 454.223,383.575 458.883,406.69 					"/>
				</g>
				<polygon style="opacity:0.05;" points="454.223,383.575 457.232,398.503 463.413,402.071 469.566,398.518 472.601,383.575 
					463.411,378.269 				"/>
			</g>
			<g>
				<g>
					<polygon style="fill:#E0E0E0;" points="314.747,349.777 319.407,372.893 323.937,375.508 328.426,372.916 333.125,349.777 
						323.935,344.471 					"/>
					<polygon style="opacity:0.05;" points="314.747,349.777 319.407,372.893 323.937,375.508 328.426,372.916 333.125,349.777 
						323.935,344.471 					"/>
					<polygon style="fill:#EBEBEB;" points="323.937,375.508 323.936,355.082 314.747,349.777 319.407,372.893 					"/>
				</g>
				<polygon style="opacity:0.05;" points="314.747,349.777 317.757,364.705 323.937,368.273 330.091,364.72 333.125,349.777 
					323.935,344.471 				"/>
			</g>
			<g id="Cabinet_2_">
				<g id="Cabinet_4_">
					<g id="XMLID_812_">
						<polygon id="XMLID_815_" style="fill:#E0E0E0;" points="423.006,421.669 473.081,392.759 473.082,284.379 423.007,313.29 
													"/>
						<polygon id="XMLID_00000011027434331492192450000007094671667803537551_" style="fill:#EBEBEB;" points="423.007,313.29 
							312.144,249.356 312.142,357.735 423.006,421.669 						"/>
						<polygon id="XMLID_813_" style="fill:#F5F5F5;" points="312.144,249.356 423.007,313.29 473.082,284.379 362.218,220.445 
													"/>
					</g>
					<g id="XMLID_801_">
						<g id="XMLID_00000070102398524042436840000007489246529625360009_">
							<polygon id="XMLID_00000160869772733354630550000011193639442717393042_" style="fill:#E0E0E0;" points="415.853,366.979 
								319.296,311.305 319.298,351.079 317.982,351.84 414.539,407.513 415.855,406.753 							"/>
						</g>
						<g id="XMLID_808_">
							<polygon id="XMLID_00000044156572384512181190000003311936962648987319_" style="fill:#F5F5F5;" points="414.537,367.74 
								317.98,312.065 317.982,351.84 414.539,407.513 							"/>
						</g>
						<g id="XMLID_802_">
							<path id="XMLID_803_" style="fill:#E0E0E0;" d="M371.785,352.21l-9.732-5.619c-1.263-0.73-2.288-0.397-2.288,0.744
								c0,1.141,1.024,2.657,2.288,3.386l9.733,5.618c1.263,0.73,2.287,0.396,2.287-0.744
								C374.073,354.456,373.049,352.94,371.785,352.21z"/>
						</g>
					</g>
					<g id="XMLID_791_">
						<g id="XMLID_799_">
							<polygon id="XMLID_800_" style="fill:#E0E0E0;" points="415.855,318.953 319.298,263.278 319.3,303.053 317.984,303.814 
								414.541,359.487 415.857,358.726 							"/>
						</g>
						<g id="XMLID_00000004545031907078380800000013457838630755232399_">
							<polygon id="XMLID_00000118386024901364461080000003433939840057305248_" style="fill:#F5F5F5;" points="414.539,319.713 
								317.982,264.039 317.984,303.814 414.541,359.487 							"/>
						</g>
						<g id="XMLID_792_">
							<path id="XMLID_793_" style="fill:#E0E0E0;" d="M371.787,304.184l-9.732-5.619c-1.263-0.73-2.288-0.397-2.288,0.744
								c0,1.141,1.024,2.657,2.288,3.386l9.733,5.618c1.263,0.729,2.288,0.396,2.287-0.744
								C374.075,306.429,373.051,304.914,371.787,304.184z"/>
						</g>
					</g>
				</g>
			</g>
		</g>
		<g id="Picture_15_">
			<g id="Frame_15_">
				<path id="XMLID_1021_" style="opacity:0.05;" d="M378.44,257.584l41.208,23.791l17.504-10.106l-41.208-23.791L378.44,257.584z"
					/>
				<polygon id="XMLID_7973_" style="fill:#FAFAFA;" points="419.45,273.035 417.763,273.847 386.539,255.82 388.225,255.007 				
					"/>
				<g id="XMLID_7701_">
					<g id="XMLID_7702_">
						<g id="XMLID_7703_">
							<polygon id="XMLID_7704_" style="fill:#FFFFFF;" points="388.225,255.007 417.928,272.152 422.248,227.724 392.544,210.589 
															"/>
						</g>
					</g>
				</g>
				<path id="XMLID_7694_" style="fill:#F0F0F0;" d="M383.362,257.301l36.967,21.343l5.097-52.401L388.458,204.9L383.362,257.301z
					 M391.025,209.696l31.224,18.027l-4.485,46.124l-31.224-18.027L391.025,209.696z"/>
				<polygon id="XMLID_7690_" style="fill:#E0E0E0;" points="386.539,255.82 388.225,255.007 392.544,210.589 391.025,209.696 				
					"/>
				<polygon id="XMLID_7688_" style="fill:#FAFAFA;" points="388.458,204.9 390.167,204.109 427.134,225.452 425.426,226.243 				
					"/>
				<polygon id="XMLID_7686_" style="fill:#E0E0E0;" points="427.134,225.452 425.426,226.243 420.329,278.644 422.038,277.854 				
					"/>
			</g>
			<g id="Land_17_">
				<polygon style="fill:#F0F0F0;" points="389.531,254.162 416.915,269.972 417.643,262.487 412.55,240.5 407.695,248.003 
					408.701,254.324 400.604,230.996 390.259,246.678 				"/>
				<path style="fill:#F0F0F0;" d="M412.97,231.242c1.119,0.646,1.929,2.161,1.81,3.384c-0.119,1.223-1.122,1.691-2.241,1.045
					c-1.118-0.646-1.929-2.161-1.81-3.384C410.849,231.064,411.852,230.597,412.97,231.242z"/>
			</g>
		</g>
		<g id="Pot_15_">
			<path id="Shadow_45_" style="opacity:0.05;" d="M438.274,278.511c-4.825,2.786-4.825,7.302,0,10.088
				c4.825,2.785,12.647,2.785,17.472,0c4.825-2.786,4.824-7.302,0-10.087C450.921,275.725,443.099,275.725,438.274,278.511z"/>
			<g id="XMLID_7653_">
				<path id="XMLID_7684_" style="fill:#F5F5F5;" d="M454.865,285.537c4.202-4.287,6.67-14.993,2.572-18.394h-20.853
					c-4.097,3.4-1.632,14.1,2.568,18.39c0.036,0.04,0.077,0.079,0.115,0.118c0.048,0.048,0.096,0.096,0.144,0.141
					c0.119,0.115,0.245,0.227,0.38,0.338c0.033,0.028,0.067,0.052,0.1,0.079c0.103,0.081,0.205,0.162,0.317,0.24
					c0.179,0.127,0.36,0.246,0.543,0.347c3.456,1.995,9.06,1.995,12.516,0h0h0c0.185-0.102,0.366-0.222,0.547-0.35
					c0.104-0.073,0.199-0.148,0.295-0.223c0.042-0.033,0.083-0.063,0.124-0.098c0.131-0.107,0.252-0.215,0.366-0.326
					c0.056-0.053,0.111-0.108,0.167-0.163C454.8,285.603,454.835,285.571,454.865,285.537z"/>
				<path id="XMLID_7683_" style="fill:#FFFFFF;" d="M438.395,265.513c-4.758,2.747-4.758,7.201,0,9.948
					c4.758,2.747,12.472,2.747,17.23,0c4.758-2.747,4.758-7.201,0-9.948C450.867,262.766,443.153,262.766,438.395,265.513z"/>
				<path id="XMLID_7682_" style="fill:#EBEBEB;" d="M441.768,267.461c-2.895,1.671-2.895,4.381,0,6.052
					c2.895,1.671,7.588,1.671,10.483,0c2.895-1.671,2.895-4.381,0-6.052C449.357,265.789,444.663,265.789,441.768,267.461z"/>
				<path id="XMLID_7654_" style="fill:#E0E0E0;" d="M452.251,270.333c-2.895-1.671-7.588-1.671-10.483,0
					c-0.804,0.464-1.377,1.01-1.734,1.59c0.357,0.58,0.93,1.126,1.734,1.59c2.895,1.671,7.588,1.671,10.483,0
					c0.804-0.464,1.376-1.01,1.734-1.59C453.628,271.343,453.055,270.797,452.251,270.333z"/>
			</g>
			<g id="XMLID_7647_">
				<path id="XMLID_7651_" style="fill:#EBEBEB;" d="M442.407,271.923c0,0-2.041-1.944-3.791-5.04
					c-1.751-3.096-2.074-7.244-1.169-7.756c0.905-0.512,4.59,3.625,4.59,3.625s-0.542-2.527-0.388-5.285
					c0.155-2.758,0.827-5.263,1.616-5.769c0.789-0.506,2.557,2.973,3.315,5.495c0.758,2.521,1.21,4.593,1.21,4.593
					s0.517-3.408,1.358-5.801c0.919-2.617,1.753-3.209,2.399-2.95c0.647,0.258,1.073,1.48,1.262,4.966
					c0.132,2.441-0.156,4.989-0.156,4.989s1.299-1.428,2.741-2.814c1.584-1.521,2.262-1.731,2.714-1.441
					c0.453,0.29,0.578,2.657-1.875,7.094c-2.165,3.915-4.63,6.095-4.63,6.095S448.208,274.112,442.407,271.923z"/>
			</g>
		</g>
	</g>
</g>
<g id="Oulet_00000047783018649813953620000014662195058183933349_">
	<g id="Oulet">
		<g>
			<polygon style="fill:#BA68C8;" points="433.456,169.473 449.704,178.854 449.704,214.129 433.456,204.748 			"/>
			<polygon style="opacity:0.4;fill:#FFFFFF;" points="433.456,169.473 449.704,178.854 449.704,214.129 433.456,204.748 			"/>
			<polygon style="fill:#BA68C8;" points="449.704,214.129 451.336,213.187 451.336,177.912 449.704,178.854 			"/>
			<polygon style="fill:#BA68C8;" points="451.336,177.912 435.087,168.531 433.456,169.473 449.704,178.854 			"/>
			<polygon style="opacity:0.6;fill:#FFFFFF;" points="451.336,177.912 435.087,168.531 433.456,169.473 449.704,178.854 			"/>
		</g>
		<path style="fill:#BA68C8;" d="M442.792,200.417l1.153,0.666v-3.877l-1.153-0.666V200.417z M444.921,180.249l-6.682-3.858
			c-0.726-0.419-1.317,0.027-1.317,0.996v8.164c0,0.968,0.591,2.097,1.317,2.517l6.682,3.858c0.726,0.419,1.317-0.027,1.317-0.996
			v-8.164C446.238,181.797,445.647,180.668,444.921,180.249z M445.851,190.705c0,0.683-0.417,0.999-0.929,0.703l-6.682-3.858
			c-0.512-0.296-0.93-1.093-0.93-1.776v-8.164c0-0.683,0.417-0.999,0.93-0.703l6.682,3.858c0.512,0.296,0.929,1.093,0.929,1.776
			V190.705z M441.58,201.613c-0.413-0.238-0.747,0.015-0.747,0.565c0,0.55,0.334,1.189,0.747,1.427
			c0.412,0.238,0.747-0.015,0.747-0.565C442.327,202.49,441.993,201.851,441.58,201.613z M439.215,198.682l1.153,0.666v-4.481
			l-1.153-0.666V198.682z M441.58,186.327c-0.413-0.238-0.747,0.015-0.747,0.565c0,0.55,0.334,1.189,0.747,1.427
			c0.412,0.238,0.747-0.015,0.747-0.565C442.327,187.204,441.993,186.565,441.58,186.327z M444.921,195.534l-6.682-3.858
			c-0.726-0.419-1.317,0.027-1.317,0.996v8.164c0,0.968,0.591,2.097,1.317,2.517l6.682,3.858c0.726,0.419,1.317-0.027,1.317-0.996
			v-8.164C446.238,197.083,445.647,195.954,444.921,195.534z M445.851,205.991c0,0.683-0.417,0.999-0.929,0.703l-6.682-3.858
			c-0.512-0.296-0.93-1.093-0.93-1.776v-8.164c0-0.683,0.417-0.999,0.93-0.703l6.682,3.858c0.512,0.296,0.929,1.093,0.929,1.776
			V205.991z M442.792,185.131l1.153,0.666v-3.877l-1.153-0.666V185.131z M439.215,183.396l1.153,0.666v-4.481l-1.153-0.666V183.396z
			"/>
		<path style="opacity:0.2;" d="M442.792,200.417l1.153,0.666v-3.877l-1.153-0.666V200.417z M444.921,180.249l-6.682-3.858
			c-0.726-0.419-1.317,0.027-1.317,0.996v8.164c0,0.968,0.591,2.097,1.317,2.517l6.682,3.858c0.726,0.419,1.317-0.027,1.317-0.996
			v-8.164C446.238,181.797,445.647,180.668,444.921,180.249z M445.851,190.705c0,0.683-0.417,0.999-0.929,0.703l-6.682-3.858
			c-0.512-0.296-0.93-1.093-0.93-1.776v-8.164c0-0.683,0.417-0.999,0.93-0.703l6.682,3.858c0.512,0.296,0.929,1.093,0.929,1.776
			V190.705z M441.58,201.613c-0.413-0.238-0.747,0.015-0.747,0.565c0,0.55,0.334,1.189,0.747,1.427
			c0.412,0.238,0.747-0.015,0.747-0.565C442.327,202.49,441.993,201.851,441.58,201.613z M439.215,198.682l1.153,0.666v-4.481
			l-1.153-0.666V198.682z M441.58,186.327c-0.413-0.238-0.747,0.015-0.747,0.565c0,0.55,0.334,1.189,0.747,1.427
			c0.412,0.238,0.747-0.015,0.747-0.565C442.327,187.204,441.993,186.565,441.58,186.327z M444.921,195.534l-6.682-3.858
			c-0.726-0.419-1.317,0.027-1.317,0.996v8.164c0,0.968,0.591,2.097,1.317,2.517l6.682,3.858c0.726,0.419,1.317-0.027,1.317-0.996
			v-8.164C446.238,197.083,445.647,195.954,444.921,195.534z M445.851,205.991c0,0.683-0.417,0.999-0.929,0.703l-6.682-3.858
			c-0.512-0.296-0.93-1.093-0.93-1.776v-8.164c0-0.683,0.417-0.999,0.93-0.703l6.682,3.858c0.512,0.296,0.929,1.093,0.929,1.776
			V205.991z M442.792,185.131l1.153,0.666v-3.877l-1.153-0.666V185.131z M439.215,183.396l1.153,0.666v-4.481l-1.153-0.666V183.396z
			"/>
	</g>
</g>
<g id="Plants">
	<g id="Plant_00000145019243731440676920000007526267797403403703_">
		<g id="Plant_2_">
			<g id="Pot_2_">
				<path style="fill:#37474F;" d="M47.434,429.491c-8.461-8.731-13.431-31.412-5.178-38.337h41.991
					c8.251,6.923,3.286,29.592-5.17,38.328c-0.072,0.081-0.156,0.16-0.231,0.24c-0.097,0.097-0.194,0.195-0.292,0.288
					c-0.239,0.234-0.492,0.463-0.765,0.688c-0.067,0.056-0.135,0.106-0.202,0.161c-0.207,0.164-0.412,0.329-0.638,0.488
					c-0.361,0.259-0.725,0.5-1.094,0.707c-6.96,4.064-18.245,4.064-25.204,0l-0.001,0l-0.001,0
					c-0.372-0.209-0.738-0.452-1.101-0.712c-0.211-0.147-0.4-0.301-0.595-0.454c-0.083-0.067-0.167-0.129-0.25-0.198
					c-0.263-0.217-0.507-0.438-0.738-0.664c-0.113-0.108-0.225-0.221-0.336-0.333C47.565,429.626,47.494,429.56,47.434,429.491z"/>
				<path style="fill:#455A64;" d="M80.6,388.366c9.581,5.594,9.581,14.664,0,20.257c-9.581,5.594-25.115,5.594-34.697,0
					c-9.581-5.594-9.581-14.663,0-20.257C55.485,382.772,71.019,382.772,80.6,388.366z"/>
				<path style="fill:#263238;" d="M75.992,391.056c7.036,4.108,7.036,10.768,0,14.876c-7.036,4.108-18.444,4.108-25.48,0
					c-7.036-4.108-7.036-10.768,0-14.877C57.548,386.948,68.956,386.948,75.992,391.056z"/>
				<path style="fill:#FAFAFA;" d="M50.512,398.117c7.036-4.108,18.444-4.108,25.48,0c1.955,1.141,3.345,2.483,4.215,3.908
					c-0.869,1.426-2.26,2.767-4.215,3.908c-7.036,4.108-18.444,4.108-25.48,0c-1.955-1.141-3.346-2.482-4.215-3.908
					C47.166,400.599,48.557,399.258,50.512,398.117z"/>
			</g>
			<g>
				<g>
					<path style="fill:#BA68C8;" d="M60.427,342.118c-3.218,3.487-12.162,4.447-15.865-4.975
						c-3.473-8.837-7.222-17.212-8.291-20.456c-1.069-3.244,2.138-4.313,2.138-4.313s0.255-4.854,8.483-1.565
						c8.144,3.255,14.032,8.283,17.618,16.357C68.046,335.126,65.934,341.033,60.427,342.118z"/>
					<path style="opacity:0.45;fill:#FFFFFF;" d="M60.427,342.118c-3.218,3.487-12.162,4.447-15.865-4.975
						c-3.473-8.837-7.222-17.212-8.291-20.456c-1.069-3.244,2.138-4.313,2.138-4.313s0.255-4.854,8.483-1.565
						c8.144,3.255,14.032,8.283,17.618,16.357C68.046,335.126,65.934,341.033,60.427,342.118z"/>
				</g>
				<g>
					<path style="fill:#BA68C8;" d="M63.988,354.574c-0.155-1.648-0.374-3.293-0.713-4.914c-0.675-3.225-1.595-6.386-2.729-9.479
						c-2.309-6.301-5.531-12.213-9.535-17.599c-2.251-3.028-4.711-5.944-7.493-8.5c-0.085-0.078-0.15,0.111-0.093,0.171
						c4.583,4.932,8.61,10.233,11.736,16.213c3.042,5.818,5.345,11.981,6.789,18.388c0.404,1.79,0.789,3.589,1.118,5.394
						c0.335,1.835,0.525,3.689,0.834,5.526c0.031,0.184,0.315,0.296,0.33,0.046C64.338,358.079,64.151,356.306,63.988,354.574z"/>
					<path style="opacity:0.3;" d="M63.988,354.574c-0.155-1.648-0.374-3.293-0.713-4.914c-0.675-3.225-1.595-6.386-2.729-9.479
						c-2.309-6.301-5.531-12.213-9.535-17.599c-2.251-3.028-4.711-5.944-7.493-8.5c-0.085-0.078-0.15,0.111-0.093,0.171
						c4.583,4.932,8.61,10.233,11.736,16.213c3.042,5.818,5.345,11.981,6.789,18.388c0.404,1.79,0.789,3.589,1.118,5.394
						c0.335,1.835,0.525,3.689,0.834,5.526c0.031,0.184,0.315,0.296,0.33,0.046C64.338,358.079,64.151,356.306,63.988,354.574z"/>
				</g>
				<g>
					<path style="fill:#BA68C8;" d="M66.737,339.675c-7.389,2.285-12.879-3.482-10.979-12.527c1.9-9.045,11.401-19.085,14.99-16.388
						c2.24-2.24,7.178-1.436,9.501,5.909C82.572,324.014,80.461,342.879,66.737,339.675z"/>
					<path style="opacity:0.25;fill:#FFFFFF;" d="M66.737,339.675c-7.389,2.285-12.879-3.482-10.979-12.527
						c1.9-9.045,11.401-19.085,14.99-16.388c2.24-2.24,7.178-1.436,9.501,5.909C82.572,324.014,80.461,342.879,66.737,339.675z"/>
				</g>
				<g>
					<path style="fill:#BA68C8;" d="M71.072,316.262c-2.199,5.193-3.638,10.767-4.912,16.25c-1.303,5.607-2.167,11.305-2.853,17.017
						c-1.326,11.052-1.552,22.228-1.481,33.348c0.02,3.077,0.064,6.154,0.123,9.23c0.06,3.164,0.009,6.37,0.281,9.523
						c0.104,1.209,1.824,0.887,1.846-0.221c0.109-5.539-0.195-11.102-0.251-16.644c-0.056-5.477-0.037-10.957,0.103-16.433
						c0.284-11.15,1.098-22.304,2.991-33.305c0.528-3.066,1.112-6.127,1.827-9.155c0.752-3.187,1.674-6.326,2.511-9.49
						C71.289,316.258,71.144,316.092,71.072,316.262z"/>
					<path style="opacity:0.3;" d="M71.072,316.262c-2.199,5.193-3.638,10.767-4.912,16.25c-1.303,5.607-2.167,11.305-2.853,17.017
						c-1.326,11.052-1.552,22.228-1.481,33.348c0.02,3.077,0.064,6.154,0.123,9.23c0.06,3.164,0.009,6.37,0.281,9.523
						c0.104,1.209,1.824,0.887,1.846-0.221c0.109-5.539-0.195-11.102-0.251-16.644c-0.056-5.477-0.037-10.957,0.103-16.433
						c0.284-11.15,1.098-22.304,2.991-33.305c0.528-3.066,1.112-6.127,1.827-9.155c0.752-3.187,1.674-6.326,2.511-9.49
						C71.289,316.258,71.144,316.092,71.072,316.262z"/>
				</g>
				<g>
					<path style="fill:#BA68C8;" d="M54.712,366.198c-3.229,3.655-10.627,3.332-15.588-3.19c-4.961-6.522-7.941-31.043-0.959-29.48
						c1.479-3.274,20.773,4.586,23.249,20.589C63.214,365.75,54.712,366.198,54.712,366.198z"/>
					<path style="opacity:0.25;fill:#FFFFFF;" d="M54.712,366.198c-3.229,3.655-10.627,3.332-15.588-3.19
						c-4.961-6.522-7.941-31.043-0.959-29.48c1.479-3.274,20.773,4.586,23.249,20.589C63.214,365.75,54.712,366.198,54.712,366.198z
						"/>
				</g>
				<g>
					<path style="fill:#BA68C8;" d="M60.483,377.786c-0.201-1.517-0.555-2.996-0.952-4.472c-0.807-3.006-1.767-5.962-2.871-8.872
						c-2.256-5.95-5.215-11.553-8.622-16.919c-1.886-2.971-3.866-5.938-6.119-8.646c-0.062-0.075-0.12,0.095-0.085,0.147
						c1.724,2.513,3.47,4.996,5.022,7.623c1.607,2.72,3.047,5.544,4.374,8.41c2.555,5.518,4.7,11.223,6.364,17.072
						c0.473,1.661,0.862,3.344,1.352,5c0.509,1.719,1.151,3.405,1.583,5.145c0.063,0.253,0.386,0.345,0.353,0.011
						C60.734,380.788,60.681,379.283,60.483,377.786z"/>
					<path style="opacity:0.3;" d="M60.483,377.786c-0.201-1.517-0.555-2.996-0.952-4.472c-0.807-3.006-1.767-5.962-2.871-8.872
						c-2.256-5.95-5.215-11.553-8.622-16.919c-1.886-2.971-3.866-5.938-6.119-8.646c-0.062-0.075-0.12,0.095-0.085,0.147
						c1.724,2.513,3.47,4.996,5.022,7.623c1.607,2.72,3.047,5.544,4.374,8.41c2.555,5.518,4.7,11.223,6.364,17.072
						c0.473,1.661,0.862,3.344,1.352,5c0.509,1.719,1.151,3.405,1.583,5.145c0.063,0.253,0.386,0.345,0.353,0.011
						C60.734,380.788,60.681,379.283,60.483,377.786z"/>
				</g>
				<g>
					<path style="fill:#BA68C8;" d="M66.526,362.575c-4.223-0.962-4.434-6.035,0.844-12.26c5.278-6.225,18.579-8.939,19.213-6.315
						c2.956,0,2.956,9.259-3.589,17.764C76.449,370.269,66.922,368.292,66.526,362.575z"/>
					<path style="opacity:0.25;fill:#FFFFFF;" d="M66.526,362.575c-4.223-0.962-4.434-6.035,0.844-12.26
						c5.278-6.225,18.579-8.939,19.213-6.315c2.956,0,2.956,9.259-3.589,17.764C76.449,370.269,66.922,368.292,66.526,362.575z"/>
				</g>
				<g>
					<path style="fill:#BA68C8;" d="M74.801,353.522c-2.772,1.984-5.218,4.236-7.31,6.941c-2.078,2.686-3.707,5.664-4.914,8.837
						c-0.138,0.362,0.488,0.891,0.637,0.498c2.354-6.217,6.443-11.991,11.611-16.19C74.856,353.581,74.853,353.485,74.801,353.522z"
						/>
					<path style="opacity:0.3;" d="M74.801,353.522c-2.772,1.984-5.218,4.236-7.31,6.941c-2.078,2.686-3.707,5.664-4.914,8.837
						c-0.138,0.362,0.488,0.891,0.637,0.498c2.354-6.217,6.443-11.991,11.611-16.19C74.856,353.581,74.853,353.485,74.801,353.522z"
						/>
				</g>
				<g>
					<path style="fill:#BA68C8;" d="M71.351,393.473c-5.85,2.368-3.343,9.333,2.368,14.626c5.711,5.293,13.876,6.686,17.803,6.407
						c3.927-0.279,4.932-0.817,4.932-0.817s0.626-6.022-0.03-9.682c-0.923-5.148-4.69-12.386-13.788-14.852
						C73.539,386.69,71.351,389.991,71.351,393.473z"/>
					<path style="opacity:0.45;fill:#FFFFFF;" d="M71.351,393.473c-5.85,2.368-3.343,9.333,2.368,14.626
						c5.711,5.293,13.876,6.686,17.803,6.407c3.927-0.279,4.932-0.817,4.932-0.817s0.626-6.022-0.03-9.682
						c-0.923-5.148-4.69-12.386-13.788-14.852C73.539,386.69,71.351,389.991,71.351,393.473z"/>
				</g>
				<g>
					<path style="fill:#BA68C8;" d="M87.546,403.759c-2.711-3.029-5.542-6.039-8.958-8.287c-3.331-2.192-7.772-4.062-11.766-2.696
						c-1.548,0.529-3.954,2.072-3.664,3.989c0.029,0.19,0.367,0.663,0.595,0.4c0.716-0.825,1.228-1.782,2.106-2.458
						c0.913-0.703,2.006-1.058,3.141-1.191c2.787-0.326,5.75,0.567,8.202,1.866c3.956,2.097,7.148,5.351,10.298,8.47
						C87.534,403.886,87.573,403.789,87.546,403.759z"/>
					<path style="opacity:0.3;" d="M87.546,403.759c-2.711-3.029-5.542-6.039-8.958-8.287c-3.331-2.192-7.772-4.062-11.766-2.696
						c-1.548,0.529-3.954,2.072-3.664,3.989c0.029,0.19,0.367,0.663,0.595,0.4c0.716-0.825,1.228-1.782,2.106-2.458
						c0.913-0.703,2.006-1.058,3.141-1.191c2.787-0.326,5.75,0.567,8.202,1.866c3.956,2.097,7.148,5.351,10.298,8.47
						C87.534,403.886,87.573,403.789,87.546,403.759z"/>
				</g>
				<g>
					<path style="fill:#BA68C8;" d="M49.078,363.518c0.555-2.665-3.289-9.043-15.283-10.266
						c-11.995-1.223-20.979,3.866-22.791,6.189c-1.812,2.323-2.725,4.771-0.55,5.379c2.175,0.608,9.669,1.339,14.59,3.604
						c4.921,2.265,14.92,8.956,21.746,6.966C53.615,373.4,52.471,366.165,49.078,363.518z"/>
					<path style="opacity:0.45;fill:#FFFFFF;" d="M49.078,363.518c0.555-2.665-3.289-9.043-15.283-10.266
						c-11.995-1.223-20.979,3.866-22.791,6.189c-1.812,2.323-2.725,4.771-0.55,5.379c2.175,0.608,9.669,1.339,14.59,3.604
						c4.921,2.265,14.92,8.956,21.746,6.966C53.615,373.4,52.471,366.165,49.078,363.518z"/>
				</g>
				<g>
					<path style="fill:#BA68C8;" d="M58.195,372.804c-5.059-10.448-18.095-13.637-28.751-13.579
						c-3.53,0.019-6.974,0.464-10.392,1.351c-0.047,0.012-0.055,0.13,0.003,0.121c5.715-0.902,11.638-1.106,17.361-0.176
						c5.656,0.919,11.212,2.676,15.865,6.117c2.288,1.692,4.23,3.916,5.673,6.364C58.104,373.255,58.299,373.017,58.195,372.804z"/>
					<path style="opacity:0.3;" d="M58.195,372.804c-5.059-10.448-18.095-13.637-28.751-13.579
						c-3.53,0.019-6.974,0.464-10.392,1.351c-0.047,0.012-0.055,0.13,0.003,0.121c5.715-0.902,11.638-1.106,17.361-0.176
						c5.656,0.919,11.212,2.676,15.865,6.117c2.288,1.692,4.23,3.916,5.673,6.364C58.104,373.255,58.299,373.017,58.195,372.804z"/>
				</g>
				<g>
					<path style="fill:#BA68C8;" d="M77.019,349.521c-0.154,4.196,5.75,6.63,11.463,3.004c5.713-3.626,11.703-7.158,16.996-8.526
						c5.293-1.368,7.8-5.686,6.129-7.775c-1.672-2.09-4.33-7.362-18.247-5.641c-13.918,1.721-18.847,7.992-20.755,12.42
						C70.697,347.431,74.925,350.73,77.019,349.521z"/>
					<path style="opacity:0.45;fill:#FFFFFF;" d="M77.019,349.521c-0.154,4.196,5.75,6.63,11.463,3.004
						c5.713-3.626,11.703-7.158,16.996-8.526c5.293-1.368,7.8-5.686,6.129-7.775c-1.672-2.09-4.33-7.362-18.247-5.641
						c-13.918,1.721-18.847,7.992-20.755,12.42C70.697,347.431,74.925,350.73,77.019,349.521z"/>
				</g>
				<g>
					<path style="fill:#BA68C8;" d="M99.669,336.206c-1.965-0.309-4.063,0.136-5.968,0.626c-1.756,0.452-3.464,1.068-5.109,1.83
						c-3.267,1.514-6.241,3.674-8.702,6.303c-0.7,0.748-1.367,1.533-1.965,2.365c-0.536,0.746-1.188,1.559-1.486,2.434
						c-0.094,0.276,0.309,0.725,0.553,0.444c0.689-0.794,1.206-1.766,1.853-2.603c0.695-0.899,1.439-1.757,2.239-2.564
						c1.607-1.621,3.415-3.034,5.362-4.224c1.889-1.154,3.86-2.137,5.942-2.892c1.137-0.412,2.29-0.745,3.463-1.039
						c1.249-0.313,2.485-0.621,3.784-0.526C99.702,336.366,99.737,336.216,99.669,336.206z"/>
					<path style="opacity:0.3;" d="M99.669,336.206c-1.965-0.309-4.063,0.136-5.968,0.626c-1.756,0.452-3.464,1.068-5.109,1.83
						c-3.267,1.514-6.241,3.674-8.702,6.303c-0.7,0.748-1.367,1.533-1.965,2.365c-0.536,0.746-1.188,1.559-1.486,2.434
						c-0.094,0.276,0.309,0.725,0.553,0.444c0.689-0.794,1.206-1.766,1.853-2.603c0.695-0.899,1.439-1.757,2.239-2.564
						c1.607-1.621,3.415-3.034,5.362-4.224c1.889-1.154,3.86-2.137,5.942-2.892c1.137-0.412,2.29-0.745,3.463-1.039
						c1.249-0.313,2.485-0.621,3.784-0.526C99.702,336.366,99.737,336.216,99.669,336.206z"/>
				</g>
				<g>
					<path style="fill:#BA68C8;" d="M67.033,372.161c-1.95-1.95-7.243-1.497-9.75,4.266c-2.507,5.763,2.755,12.068,3.343,13.842
						c2.419-1.397,4.299-0.564,8.557-1.397c4.258-0.832,8.437-5.321,8.158-10.598C77.062,372.997,74.833,369.515,67.033,372.161z"/>
					<path style="opacity:0.45;fill:#FFFFFF;" d="M67.033,372.161c-1.95-1.95-7.243-1.497-9.75,4.266
						c-2.507,5.763,2.755,12.068,3.343,13.842c2.419-1.397,4.299-0.564,8.557-1.397c4.258-0.832,8.437-5.321,8.158-10.598
						C77.062,372.997,74.833,369.515,67.033,372.161z"/>
				</g>
				<g>
					<path style="fill:#BA68C8;" d="M66.96,371.581c-1.045,0.507-1.939,1.739-2.584,2.674c-0.689,1-1.254,2.092-1.674,3.231
						c-0.858,2.322-1.218,4.894-0.737,7.338c0.019,0.094,0.095,0.009,0.091-0.051c-0.16-2.493,0.197-4.97,1.233-7.254
						c0.47-1.036,1.061-2.013,1.757-2.913c0.367-0.474,0.757-0.931,1.176-1.359c0.359-0.366,0.848-0.68,1.12-1.116
						C67.48,371.911,67.257,371.436,66.96,371.581z"/>
					<path style="opacity:0.3;" d="M66.96,371.581c-1.045,0.507-1.939,1.739-2.584,2.674c-0.689,1-1.254,2.092-1.674,3.231
						c-0.858,2.322-1.218,4.894-0.737,7.338c0.019,0.094,0.095,0.009,0.091-0.051c-0.16-2.493,0.197-4.97,1.233-7.254
						c0.47-1.036,1.061-2.013,1.757-2.913c0.367-0.474,0.757-0.931,1.176-1.359c0.359-0.366,0.848-0.68,1.12-1.116
						C67.48,371.911,67.257,371.436,66.96,371.581z"/>
				</g>
				<g>
					<path style="fill:#BA68C8;" d="M57.855,383.84c-0.179-4.29-4.827-7.687-11.441-9.654c-6.615-1.967-13.765-0.307-18.592,4.942
						c-4.827,5.248-7.33,9.718-5.363,10.969c1.966,1.251,10.726,4.469,16.447,6.257c5.721,1.788,13.229,2.324,18.95-1.073
						C63.576,391.884,63.218,385.985,57.855,383.84z"/>
					<path style="opacity:0.25;fill:#FFFFFF;" d="M57.855,383.84c-0.179-4.29-4.827-7.687-11.441-9.654
						c-6.615-1.967-13.765-0.307-18.592,4.942c-4.827,5.248-7.33,9.718-5.363,10.969c1.966,1.251,10.726,4.469,16.447,6.257
						c5.721,1.788,13.229,2.324,18.95-1.073C63.576,391.884,63.218,385.985,57.855,383.84z"/>
				</g>
				<g>
					<path style="fill:#BA68C8;" d="M58.223,383.358c-2.123-1.232-4.776-1.674-7.187-1.919c-2.393-0.243-4.811-0.195-7.198,0.087
						c-2.524,0.298-5.018,0.857-7.453,1.575c-1.275,0.376-2.537,0.794-3.784,1.253c-1.161,0.427-2.372,0.829-3.46,1.423
						c-0.042,0.023-0.066,0.165,0.007,0.15c1.212-0.253,2.397-0.726,3.581-1.09c1.277-0.393,2.559-0.77,3.852-1.106
						c2.416-0.629,4.864-1.126,7.348-1.389c2.478-0.262,4.99-0.281,7.465,0.026c2.334,0.29,4.518,1.01,6.766,1.655
						C58.621,384.154,58.484,383.509,58.223,383.358z"/>
					<path style="opacity:0.3;" d="M58.223,383.358c-2.123-1.232-4.776-1.674-7.187-1.919c-2.393-0.243-4.811-0.195-7.198,0.087
						c-2.524,0.298-5.018,0.857-7.453,1.575c-1.275,0.376-2.537,0.794-3.784,1.253c-1.161,0.427-2.372,0.829-3.46,1.423
						c-0.042,0.023-0.066,0.165,0.007,0.15c1.212-0.253,2.397-0.726,3.581-1.09c1.277-0.393,2.559-0.77,3.852-1.106
						c2.416-0.629,4.864-1.126,7.348-1.389c2.478-0.262,4.99-0.281,7.465,0.026c2.334,0.29,4.518,1.01,6.766,1.655
						C58.621,384.154,58.484,383.509,58.223,383.358z"/>
				</g>
				<g>
					<path style="fill:#BA68C8;" d="M71.504,377.451c-4.728-3.755-3.152-12.764,13.395-13.25c16.547-0.486,28.366,3.834,27.84,9.159
						c2.663,2.663,1.313,10.124-12.082,12.453C87.262,388.142,68.089,386.984,71.504,377.451z"/>
					<path style="opacity:0.25;fill:#FFFFFF;" d="M71.504,377.451c-4.728-3.755-3.152-12.764,13.395-13.25
						c16.547-0.486,28.366,3.834,27.84,9.159c2.663,2.663,1.313,10.124-12.082,12.453C87.262,388.142,68.089,386.984,71.504,377.451
						z"/>
				</g>
				<g>
					<path style="fill:#BA68C8;" d="M104.955,373.419c-4.846-0.892-9.867-1.001-14.782-0.862c-4.54,0.128-9.248,0.343-13.647,1.568
						c-1.143,0.318-2.258,0.724-3.328,1.237c-0.495,0.237-0.983,0.492-1.452,0.777c-0.375,0.228-0.795,0.427-0.931,0.867
						c-0.082,0.267,0.227,0.589,0.493,0.527c1.006-0.235,1.944-1.011,2.894-1.435c0.928-0.414,1.89-0.754,2.864-1.043
						c1.876-0.555,3.81-0.89,5.749-1.132c4.62-0.577,9.311-0.832,13.967-0.77c2.721,0.036,5.429,0.242,8.14,0.458
						C105.006,373.618,105.038,373.435,104.955,373.419z"/>
					<path style="opacity:0.3;" d="M104.955,373.419c-4.846-0.892-9.867-1.001-14.782-0.862c-4.54,0.128-9.248,0.343-13.647,1.568
						c-1.143,0.318-2.258,0.724-3.328,1.237c-0.495,0.237-0.983,0.492-1.452,0.777c-0.375,0.228-0.795,0.427-0.931,0.867
						c-0.082,0.267,0.227,0.589,0.493,0.527c1.006-0.235,1.944-1.011,2.894-1.435c0.928-0.414,1.89-0.754,2.864-1.043
						c1.876-0.555,3.81-0.89,5.749-1.132c4.62-0.577,9.311-0.832,13.967-0.77c2.721,0.036,5.429,0.242,8.14,0.458
						C105.006,373.618,105.038,373.435,104.955,373.419z"/>
				</g>
			</g>
		</g>
	</g>
</g>
<g id="Device">
	<g id="Mobile_00000153675570265295649290000001029937599244899762_">
		<g>
			<path style="fill:#37474F;" d="M237.602,366.41l-0.001-296.328c0-7.511-3.732-9.582-7.044-11.495
				c-3.313-1.912-8.769-3.072-13.477-0.353l-120.55,69.599c-4.709,2.718-8.526,9.33-8.526,14.767v296.329
				c0,5.437,3.411,8.642,6.724,10.555c3.313,1.913,9.09,4.013,13.799,1.294l120.55-69.6
				C233.785,378.458,237.601,373.982,237.602,366.41z"/>
			<path style="fill:#263238;" d="M229.934,369.173l-123.962,71.569l0.039-297.591l-15.511-8.955
				c-1.542,2.672-2.496,5.683-2.496,8.401v296.329c0,5.437,3.411,8.642,6.724,10.555c3.313,1.913,9.09,4.013,13.799,1.294
				l120.55-69.6c2.941-1.698,5.849-4.249,7.382-8.236c0,0-0.48-0.277-0.48-0.277L229.934,369.173z"/>
		</g>
		<path style="fill:#455A64;" d="M228.853,67.559l-120.896,69.802c-3.297,1.899-5.988,6.559-5.988,10.356v293.958
			c0,5.836,4.147,8.224,9.203,5.3l117.681-67.938c3.728-2.155,6.78-7.432,6.78-11.742V71.473
			C235.633,67.163,232.581,65.404,228.853,67.559z"/>
		<g>
			<path d="M229.734,85.312v275.071c0,4.105-2.894,9.126-6.439,11.164l-108.989,62.926c-3.554,2.067-6.438,0.404-6.438-3.711
				V153.702c0-3.327,1.89-7.255,4.519-9.707c0.207-0.187,0.404-0.374,0.61-0.551c0.424-0.335,0.866-0.64,1.309-0.896l30.656-17.701
				c0,0,0.896-0.522,1.998-1.152c1.103-0.64,1.999-0.128,1.999,1.152c0,1.27,0.955,1.762,2.136,1.073l35.726-20.624
				c1.171-0.679,2.136-2.264,2.136-3.534c0-1.191,0.787-2.638,1.792-3.347c0.069-0.049,0.138-0.089,0.207-0.128l29.987-17.307
				l0.64-0.374C226.072,78.017,229.734,80.134,229.734,85.312z"/>
			<path style="fill:#BA68C8;" d="M220.943,80.98l-29.987,17.307c-0.069,0.039-0.138,0.079-0.206,0.128
				c-1.004,0.709-1.792,2.156-1.792,3.347c0,1.27-0.965,2.855-2.136,3.534l-35.726,20.624c-1.181,0.689-2.137,0.197-2.137-1.073
				c0-1.28-0.896-1.792-1.998-1.152c-1.103,0.63-1.998,1.152-1.998,1.152l-30.656,17.701c-0.443,0.256-0.886,0.561-1.309,0.896
				c-0.207,0.177-0.403,0.364-0.61,0.551c-2.629,2.451-4.519,6.379-4.519,9.707v277.059c0,0.536,0.051,1.029,0.145,1.479
				c0.474-0.147,0.966-0.358,1.474-0.653l108.989-62.926c3.544-2.038,6.438-7.059,6.438-11.164V82.426
				c0-1.099-0.173-2.05-0.476-2.858c-0.89,0.126-1.85,0.458-2.855,1.038L220.943,80.98z"/>
			<path style="opacity:0.75;fill:#FFFFFF;" d="M220.943,80.98l-29.987,17.307c-0.069,0.039-0.138,0.079-0.206,0.128
				c-1.004,0.709-1.792,2.156-1.792,3.347c0,1.27-0.965,2.855-2.136,3.534l-35.726,20.624c-1.181,0.689-2.137,0.197-2.137-1.073
				c0-1.28-0.896-1.792-1.998-1.152c-1.103,0.63-1.998,1.152-1.998,1.152l-30.656,17.701c-0.443,0.256-0.886,0.561-1.309,0.896
				c-0.207,0.177-0.403,0.364-0.61,0.551c-2.629,2.451-4.519,6.379-4.519,9.707v277.059c0,0.536,0.051,1.029,0.145,1.479
				c0.474-0.147,0.966-0.358,1.474-0.653l108.989-62.926c3.544-2.038,6.438-7.059,6.438-11.164V82.426
				c0-1.099-0.173-2.05-0.476-2.858c-0.89,0.126-1.85,0.458-2.855,1.038L220.943,80.98z"/>
			<g>
				<path style="fill:#263238;" d="M156.52,115.026l16.377-9.455c0.977-0.564,1.769-0.163,1.769,0.895
					c0,1.058-0.792,2.374-1.769,2.938l-16.377,9.455c-0.977,0.564-1.769,0.163-1.769-0.895
					C154.751,116.906,155.543,115.59,156.52,115.026z"/>
				<g>
					<path style="fill:#263238;" d="M181.3,99.942c1.101-0.635,1.993-0.12,1.993,1.151c0,1.271-0.892,2.816-1.993,3.452
						c-1.101,0.635-1.993,0.12-1.993-1.151C179.307,102.123,180.2,100.578,181.3,99.942z"/>
				</g>
			</g>
		</g>
		<g>
			<g>
				<path style="fill:#455A64;" d="M99.187,193.236c0-2.142-1.411-4.693-3.151-5.698c-0.84-0.485-1.599-0.516-2.159-0.178
					c-0.396,0.238-1.951,1.105-2.363,1.352c-0.599,0.359-0.972,1.136-0.972,2.237l0,23.787c0,2.142,1.411,4.693,3.151,5.698
					c0.802,0.463,1.53,0.512,2.082,0.222c0.434-0.228,2.024-1.147,2.436-1.393c0.601-0.358,0.976-1.136,0.976-2.24L99.187,193.236z"
					/>
				<path style="fill:#37474F;" d="M96.843,194.588l0,23.787c0,2.142-1.411,3.064-3.151,2.059c-1.74-1.005-3.151-3.556-3.151-5.698
					v-23.788c0-2.142,1.411-3.064,3.151-2.059C95.432,189.895,96.843,192.446,96.843,194.588z"/>
			</g>
			<g>
				<path style="fill:#455A64;" d="M99.187,234.869c0-2.142-1.411-4.693-3.151-5.698c-0.84-0.485-1.599-0.516-2.159-0.178
					c-0.396,0.238-1.951,1.104-2.363,1.352c-0.599,0.359-0.972,1.136-0.972,2.237l0,23.787c0,2.142,1.411,4.693,3.151,5.698
					c0.802,0.463,1.53,0.512,2.082,0.221c0.434-0.229,2.024-1.148,2.436-1.393c0.601-0.358,0.976-1.136,0.976-2.24L99.187,234.869z"
					/>
				<path style="fill:#37474F;" d="M96.843,236.221l0,23.788c0,2.142-1.411,3.064-3.151,2.059c-1.74-1.005-3.151-3.556-3.151-5.698
					v-23.787c0-2.142,1.411-3.064,3.151-2.059C95.432,231.528,96.843,234.079,96.843,236.221z"/>
			</g>
		</g>
	</g>
</g>
<g id="Low_Battery_00000142889499636403806970000002786248751150775705_">
	<g id="Low_Battery">
		<g id="Battery">
			<path style="fill:#FFFFFF;" d="M199.057,162.125v129.546c0,3.614-2.208,7.822-4.91,9.382l-49.848,28.78
				c-2.71,1.565-4.91-0.098-4.91-3.712V196.575c0-3.614,2.2-7.817,4.91-9.382l49.848-28.78
				C196.849,156.853,199.057,158.511,199.057,162.125z"/>
			<path style="fill:#455A64;" d="M184.732,238.971c-0.031-0.455-0.12-0.873-0.267-1.252c-0.146-0.379-0.363-0.666-0.649-0.861
				c-0.286-0.196-0.638-0.286-1.055-0.273c-0.418,0.016-0.913,0.187-1.483,0.517c-0.573,0.331-1.066,0.73-1.484,1.196
				c-0.417,0.469-0.769,0.965-1.055,1.491c-0.286,0.526-0.502,1.063-0.649,1.61c-0.147,0.549-0.236,1.069-0.266,1.56
				c-0.031,0.555-0.046,1.135-0.046,1.742c0,0.609,0.015,1.172,0.046,1.689c0.03,0.456,0.119,0.874,0.266,1.252
				c0.146,0.379,0.363,0.667,0.649,0.861c0.286,0.196,0.638,0.281,1.055,0.257c0.418-0.025,0.912-0.203,1.484-0.533
				c0.571-0.33,1.066-0.722,1.483-1.18c0.417-0.457,0.769-0.949,1.055-1.475c0.286-0.525,0.502-1.063,0.649-1.61
				c0.147-0.548,0.236-1.069,0.267-1.561c0.031-0.553,0.046-1.134,0.046-1.743C184.777,240.053,184.762,239.49,184.732,238.971z
				 M182.529,242.777c0,0.267-0.008,0.468-0.024,0.601c-0.031,0.429-0.131,0.838-0.301,1.224c-0.17,0.388-0.48,0.71-0.927,0.968
				c-0.449,0.259-0.758,0.294-0.928,0.103c-0.17-0.189-0.271-0.482-0.301-0.876c-0.016-0.115-0.027-0.305-0.035-0.568
				c-0.008-0.262-0.012-0.539-0.012-0.828c0-0.289,0.003-0.569,0.012-0.841c0.008-0.273,0.019-0.474,0.035-0.607
				c0.031-0.429,0.131-0.838,0.301-1.225c0.17-0.387,0.479-0.709,0.928-0.969c0.447-0.258,0.757-0.293,0.927-0.102
				c0.17,0.191,0.271,0.483,0.301,0.877c0.015,0.115,0.024,0.305,0.024,0.574V242.777z M165.12,253.508l-6.444,3.721l4.289-7.699
				c0.54-0.889,0.973-1.68,1.298-2.372c0.324-0.692,0.571-1.32,0.742-1.882c0.17-0.562,0.278-1.088,0.324-1.577
				c0.047-0.49,0.07-0.993,0.07-1.509c0-0.804-0.113-1.548-0.337-2.232c-0.224-0.684-0.568-1.227-1.031-1.63
				c-0.464-0.402-1.051-0.609-1.762-0.621c-0.71-0.012-1.553,0.263-2.526,0.825c-0.804,0.464-1.554,1.077-2.249,1.84
				c-0.695,0.762-1.302,1.602-1.82,2.519c-0.518,0.917-0.931,1.877-1.24,2.879c-0.309,1.004-0.487,1.982-0.533,2.935
				c-0.016,0.257,0.042,0.424,0.173,0.503c0.131,0.079,0.282,0.069,0.452-0.03l1.831-1.057c0.139-0.08,0.278-0.227,0.417-0.441
				c0.139-0.214,0.232-0.469,0.278-0.763c0.17-0.964,0.452-1.838,0.847-2.622c0.394-0.784,1.016-1.421,1.866-1.912
				c0.896-0.518,1.538-0.593,1.924-0.229c0.386,0.363,0.579,0.968,0.579,1.813c0,0.433-0.066,0.946-0.197,1.536
				c-0.131,0.591-0.429,1.268-0.892,2.03l-6.885,11.919c-0.108,0.165-0.239,0.421-0.393,0.767c-0.155,0.348-0.233,0.696-0.233,1.047
				v1.885c0,0.227,0.062,0.387,0.186,0.48c0.124,0.093,0.27,0.091,0.44-0.007l10.826-6.251c0.17-0.098,0.316-0.265,0.441-0.501
				c0.124-0.236,0.185-0.468,0.185-0.694v-2.194c0-0.227-0.062-0.386-0.185-0.481C165.436,253.408,165.29,253.41,165.12,253.508z
				 M183.294,226.016c0.015-0.07,0.024-0.126,0.024-0.168c0-0.185-0.051-0.305-0.15-0.361c-0.102-0.054-0.236-0.034-0.406,0.064
				l-1.391,0.803c-0.216,0.125-0.382,0.272-0.498,0.442c-0.116,0.171-0.228,0.38-0.336,0.627l-11.452,26.702
				c-0.031,0.08-0.054,0.155-0.069,0.226s-0.023,0.126-0.023,0.168c0,0.185,0.05,0.306,0.15,0.361
				c0.1,0.056,0.235,0.035,0.405-0.064l1.391-0.803c0.217-0.125,0.382-0.271,0.498-0.442c0.116-0.169,0.228-0.379,0.337-0.627
				l11.451-26.701C183.255,226.162,183.279,226.086,183.294,226.016z M171.24,243.176c0.572-0.33,1.066-0.724,1.483-1.181
				c0.418-0.458,0.769-0.949,1.055-1.475c0.286-0.525,0.502-1.062,0.649-1.61c0.147-0.548,0.235-1.068,0.266-1.56
				c0.031-0.554,0.047-1.134,0.047-1.742c0-0.608-0.015-1.171-0.047-1.689c-0.031-0.456-0.119-0.874-0.266-1.252
				c-0.147-0.378-0.363-0.666-0.649-0.861c-0.287-0.195-0.638-0.286-1.055-0.271c-0.417,0.014-0.912,0.186-1.483,0.516
				c-0.572,0.33-1.066,0.73-1.483,1.197c-0.417,0.467-0.769,0.964-1.055,1.49c-0.286,0.526-0.502,1.062-0.65,1.611
				c-0.146,0.548-0.235,1.068-0.266,1.56c-0.031,0.555-0.047,1.135-0.047,1.743c0,0.608,0.015,1.171,0.047,1.688
				c0.031,0.456,0.12,0.873,0.266,1.252c0.147,0.379,0.364,0.666,0.65,0.861c0.286,0.196,0.638,0.281,1.055,0.257
				S170.668,243.506,171.24,243.176z M169.976,237.507c0.008-0.272,0.019-0.475,0.036-0.608c0.031-0.429,0.131-0.838,0.301-1.225
				c0.17-0.387,0.479-0.709,0.927-0.968c0.448-0.259,0.757-0.293,0.928-0.103c0.169,0.191,0.27,0.484,0.301,0.877
				c0.015,0.115,0.023,0.307,0.023,0.574v1.669c0,0.268-0.008,0.468-0.023,0.601c-0.031,0.431-0.132,0.839-0.301,1.225
				c-0.171,0.387-0.48,0.709-0.928,0.968c-0.448,0.259-0.757,0.294-0.927,0.103c-0.17-0.191-0.271-0.482-0.301-0.877
				c-0.016-0.115-0.028-0.303-0.036-0.567c-0.008-0.263-0.011-0.539-0.011-0.828S169.969,237.78,169.976,237.507z"/>
			<g>
				<path style="fill:#37474F;" d="M195.506,150.988c-1.466-0.846-3.375-0.769-5.463,0.436l-7.641,4.411v-3.411
					c0-0.919-0.303-1.569-0.783-1.854c-0.405-0.241-3.603-2.039-4.054-2.339c-0.411-0.273-0.963-0.268-1.569,0.082l-21.759,12.562
					c-1.271,0.734-2.302,2.703-2.302,4.398v8.15l-11.742,6.779c-4.616,2.665-8.374,9.835-8.374,16.001v129.546
					c0,3.378,1.13,5.751,2.91,6.769c0.691,0.395,3.4,1.959,4.094,2.362c1.468,0.853,3.381,0.779,5.474-0.43l49.848-28.78
					c4.616-2.665,8.374-9.835,8.374-16.001V160.125c0-3.377-1.129-5.75-2.908-6.768
					C198.922,152.961,196.205,151.391,195.506,150.988z M194.953,289.301c0,3.614-2.208,7.822-4.91,9.382l-49.848,28.78
					c-0.212,0.122-0.419,0.218-0.624,0.301c-0.116-0.491-0.183-1.037-0.183-1.643V196.575c0-3.614,2.2-7.817,4.91-9.382
					l49.848-28.78c0.212-0.122,0.419-0.218,0.623-0.301c0.116,0.49,0.183,1.036,0.183,1.643V289.301z"/>
				<path style="fill:#263238;" d="M156.861,164.823c-0.5,0.85-0.82,1.88-0.82,2.82v8.15l-4.11-2.37v-8.15
					c0-0.94,0.33-1.97,0.83-2.82L156.861,164.823z"/>
				<path style="fill:#455A64;" d="M194.147,153.794l-11.745,6.781v-8.15c0-1.695-1.031-2.474-2.302-1.74l-21.759,12.562
					c-1.271,0.734-2.302,2.703-2.302,4.398v8.15l-11.742,6.779c-4.616,2.665-8.374,9.835-8.374,16.001v129.546
					c0,6.166,3.758,8.996,8.374,6.331l49.848-28.78c4.616-2.665,8.374-9.835,8.374-16.001V160.125
					C202.521,153.959,198.763,151.129,194.147,153.794z M199.057,291.671c0,3.614-2.208,7.822-4.91,9.382l-49.848,28.78
					c-2.71,1.565-4.91-0.098-4.91-3.712V196.575c0-3.614,2.2-7.817,4.91-9.382l49.848-28.78c2.702-1.56,4.91,0.098,4.91,3.712
					V291.671z"/>
				<path style="fill:#263238;" d="M194.771,158.113c0.11,0.49,0.18,1.04,0.18,1.64v129.55c0,2.14-0.78,4.49-1.98,6.38l4.11,2.37
					c1.2-1.89,1.98-4.24,1.98-6.38v-129.55C199.061,158.793,197.181,157.123,194.771,158.113z"/>
			</g>
			<g>
				<path style="fill:#BA68C8;" d="M192.564,284.554l-55.071,31.796v7.465c0,0.607,0.202,1.035,0.522,1.22
					c0.265,0.154,3.969,2.294,4.293,2.476c0.264,0.149,0.607,0.134,0.981-0.082l52.049-30.051c0.833-0.481,1.511-1.777,1.511-2.887
					v-7.465L192.564,284.554z"/>
				<path style="fill:#BA68C8;" d="M141.778,318.822v7.465c0,1.11,0.678,1.623,1.511,1.142l52.049-30.051
					c0.833-0.481,1.511-1.777,1.511-2.887v-7.465L141.778,318.822z"/>
				<polygon style="opacity:0.4;fill:#FFFFFF;" points="137.492,316.35 141.778,318.822 196.849,287.026 192.564,284.554 				"/>
				<path style="opacity:0.2;" d="M141.778,326.287v-7.47l-4.281-2.464v7.459c0,0.606,0.198,1.034,0.522,1.222
					c0.24,0.146,3.519,2.036,4.198,2.423C141.945,327.238,141.778,326.841,141.778,326.287z"/>
			</g>
			<path style="fill:#455A64;" d="M194.147,153.794l-11.745,6.781v-8.15c0-1.695-1.031-2.474-2.302-1.74l-21.759,12.562
				c-1.271,0.734-2.302,2.703-2.302,4.398v8.15l-11.742,6.779c-4.616,2.665-8.374,9.835-8.374,16.001v129.546
				c0,6.166,3.758,8.996,8.374,6.331l49.848-28.78c4.616-2.665,8.374-9.835,8.374-16.001V160.125
				C202.521,153.959,198.763,151.129,194.147,153.794z M199.057,291.671c0,3.614-2.208,7.822-4.91,9.382l-49.848,28.78
				c-2.71,1.565-4.91-0.098-4.91-3.712V196.575c0-3.614,2.2-7.817,4.91-9.382l49.848-28.78c2.702-1.56,4.91,0.098,4.91,3.712
				V291.671z"/>
		</g>
		<path style="fill:#263238;" d="M136.764,369.522l-3.509,2.025v-7.768c0-0.104-0.027-0.178-0.084-0.222
			c-0.058-0.042-0.124-0.041-0.202,0.004l-0.862,0.498c-0.078,0.045-0.145,0.122-0.202,0.23c-0.057,0.108-0.085,0.215-0.085,0.319
			v9.159c0,0.104,0.028,0.177,0.085,0.219c0.057,0.044,0.124,0.043,0.202-0.002l4.657-2.689c0.078-0.045,0.146-0.122,0.203-0.231
			c0.056-0.108,0.085-0.214,0.085-0.318v-1.007c0-0.103-0.029-0.176-0.085-0.22C136.91,369.477,136.842,369.478,136.764,369.522z
			 M143.953,360.92c-0.021-0.526-0.099-0.981-0.234-1.367c-0.135-0.386-0.33-0.68-0.585-0.881c-0.256-0.203-0.575-0.294-0.957-0.27
			c-0.384,0.022-0.833,0.183-1.351,0.482c-0.524,0.303-0.977,0.667-1.361,1.091c-0.383,0.424-0.701,0.882-0.957,1.375
			c-0.254,0.492-0.448,1.009-0.579,1.553c-0.132,0.544-0.208,1.086-0.229,1.628c-0.008,0.185-0.013,0.385-0.016,0.605
			c-0.004,0.22-0.005,0.446-0.005,0.678c0,0.232,0.001,0.454,0.005,0.669c0.003,0.216,0.008,0.412,0.016,0.587
			c0.021,0.518,0.097,0.972,0.229,1.364c0.131,0.392,0.325,0.688,0.579,0.885c0.256,0.197,0.575,0.284,0.957,0.262
			c0.384-0.022,0.836-0.185,1.361-0.488c0.518-0.299,0.969-0.659,1.356-1.081c0.387-0.422,0.708-0.878,0.962-1.371
			c0.256-0.492,0.449-1.009,0.581-1.553c0.13-0.544,0.207-1.086,0.228-1.629c0.007-0.184,0.012-0.384,0.016-0.604
			c0.003-0.22,0.005-0.446,0.005-0.677c0-0.232-0.002-0.454-0.005-0.669C143.965,361.292,143.96,361.096,143.953,360.92z
			 M142.517,364.217c-0.028,0.696-0.193,1.316-0.494,1.859c-0.302,0.543-0.7,0.956-1.197,1.243
			c-0.496,0.286-0.894,0.333-1.196,0.138c-0.301-0.195-0.466-0.624-0.495-1.288c-0.014-0.351-0.021-0.746-0.021-1.186
			s0.007-0.842,0.021-1.21c0.029-0.696,0.194-1.319,0.495-1.866c0.302-0.548,0.7-0.964,1.196-1.251
			c0.497-0.287,0.895-0.33,1.197-0.131c0.301,0.2,0.466,0.632,0.494,1.296c0.014,0.352,0.022,0.746,0.022,1.186
			C142.539,363.446,142.531,363.85,142.517,364.217z M152.322,352.389l-0.787,0.454c-0.071,0.042-0.138,0.108-0.202,0.202
			c-0.064,0.094-0.107,0.218-0.128,0.372l-0.892,6.527l-0.787-3.331c-0.014-0.058-0.048-0.124-0.101-0.197
			c-0.054-0.073-0.144-0.073-0.272,0.001l-0.871,0.504c-0.128,0.074-0.218,0.178-0.272,0.312c-0.053,0.135-0.086,0.24-0.1,0.314
			l-0.787,4.241l-0.893-5.496c-0.021-0.13-0.064-0.204-0.127-0.225c-0.065-0.02-0.132-0.009-0.203,0.032l-0.786,0.455
			c-0.078,0.044-0.146,0.122-0.203,0.23c-0.056,0.108-0.085,0.214-0.085,0.318c0,0.028,0.004,0.064,0.011,0.108l1.361,8.161
			c0.021,0.129,0.062,0.221,0.123,0.276c0.06,0.055,0.143,0.053,0.249-0.009l0.862-0.498c0.106-0.062,0.186-0.152,0.239-0.273
			c0.053-0.121,0.098-0.263,0.133-0.424l0.914-4.767l0.914,3.711c0.036,0.121,0.08,0.212,0.133,0.27
			c0.053,0.06,0.133,0.059,0.239-0.002l0.862-0.498c0.107-0.062,0.19-0.155,0.249-0.28c0.061-0.124,0.102-0.264,0.123-0.418
			l1.362-9.733c0.007-0.051,0.01-0.091,0.01-0.119c0-0.104-0.029-0.177-0.085-0.221
			C152.467,352.343,152.399,352.344,152.322,352.389z M161.317,351.917c0.049-0.067,0.115-0.176,0.196-0.327
			c0.083-0.151,0.164-0.329,0.246-0.531c0.081-0.204,0.15-0.434,0.207-0.687c0.057-0.255,0.085-0.524,0.085-0.807
			c0-0.284-0.04-0.566-0.122-0.844c-0.082-0.279-0.215-0.505-0.399-0.676c-0.185-0.173-0.43-0.264-0.733-0.272
			c-0.305-0.008-0.685,0.119-1.138,0.381l-3.138,1.812c-0.078,0.044-0.145,0.122-0.201,0.229c-0.058,0.109-0.086,0.215-0.086,0.319
			v9.159c0,0.104,0.028,0.178,0.086,0.22c0.056,0.044,0.123,0.042,0.201-0.002l3.382-1.952c0.376-0.218,0.706-0.496,0.994-0.836
			c0.287-0.341,0.526-0.708,0.717-1.102c0.191-0.394,0.337-0.797,0.436-1.209c0.1-0.412,0.149-0.797,0.149-1.157
			c0-0.558-0.092-0.964-0.276-1.222C161.739,352.153,161.537,351.987,161.317,351.917z M157.67,351.073l1.882-1.086
			c0.369-0.214,0.639-0.276,0.808-0.19c0.171,0.085,0.256,0.309,0.256,0.668s-0.085,0.68-0.256,0.963
			c-0.17,0.282-0.44,0.53-0.808,0.741l-1.882,1.087V351.073z M160.493,355.49c-0.181,0.326-0.466,0.602-0.855,0.826l-1.967,1.136
			v-2.424l1.967-1.136c0.376-0.217,0.656-0.265,0.845-0.147c0.187,0.118,0.281,0.357,0.281,0.715
			C160.764,354.821,160.674,355.164,160.493,355.49z M187.71,340.109l-3.52,2.032v-2.353l3.201-1.848
			c0.078-0.044,0.146-0.122,0.203-0.23c0.056-0.108,0.085-0.214,0.085-0.318v-1.007c0-0.104-0.029-0.177-0.085-0.22
			c-0.057-0.044-0.125-0.042-0.203,0.002l-3.201,1.849v-2.254l3.434-1.982c0.078-0.046,0.146-0.122,0.203-0.23
			c0.056-0.109,0.085-0.216,0.085-0.32v-1.005c0-0.104-0.029-0.178-0.085-0.222c-0.057-0.042-0.125-0.04-0.203,0.004l-4.582,2.646
			c-0.078,0.046-0.146,0.122-0.202,0.23c-0.057,0.109-0.086,0.216-0.086,0.32v9.159c0,0.104,0.029,0.177,0.086,0.219
			c0.056,0.043,0.124,0.043,0.202-0.003l4.668-2.695c0.078-0.045,0.144-0.121,0.202-0.231c0.057-0.108,0.084-0.214,0.084-0.318
			v-1.007c0-0.102-0.027-0.176-0.084-0.22C187.854,340.064,187.788,340.064,187.71,340.109z M193.653,334.48
			c0.461-0.502,0.81-1.065,1.047-1.689c0.239-0.625,0.357-1.281,0.357-1.973c0-0.973-0.23-1.601-0.691-1.883
			c-0.46-0.283-1.134-0.168-2.019,0.344l-2.744,1.585c-0.078,0.044-0.146,0.122-0.202,0.229c-0.057,0.109-0.086,0.215-0.086,0.319
			v9.159c0,0.104,0.029,0.178,0.086,0.22c0.056,0.044,0.124,0.042,0.202-0.002l0.861-0.498c0.078-0.046,0.145-0.122,0.202-0.231
			c0.057-0.108,0.085-0.214,0.085-0.318v-3.303l1.415-0.816l1.392,2.499c0.029,0.059,0.077,0.114,0.144,0.165
			c0.068,0.051,0.172,0.036,0.314-0.046l0.904-0.522c0.064-0.038,0.118-0.1,0.165-0.188c0.046-0.088,0.069-0.175,0.069-0.26
			c0-0.047-0.011-0.092-0.032-0.138L193.653,334.48z M193.26,332.935c-0.24,0.329-0.563,0.609-0.967,0.842l-1.542,0.89v-2.694
			l1.542-0.89c0.405-0.234,0.727-0.33,0.967-0.289c0.242,0.041,0.362,0.325,0.362,0.854S193.501,332.606,193.26,332.935z
			 M202.022,323.807c-0.057-0.042-0.124-0.041-0.202,0.004l-0.797,0.461c-0.142,0.082-0.249,0.191-0.32,0.327
			c-0.071,0.134-0.113,0.23-0.127,0.285l-1.723,5.007l-1.723-3.018c-0.015-0.039-0.057-0.086-0.128-0.138
			c-0.071-0.054-0.178-0.04-0.319,0.042l-0.797,0.46c-0.078,0.046-0.146,0.122-0.202,0.23c-0.057,0.109-0.086,0.216-0.086,0.32
			c0,0.046,0.007,0.086,0.022,0.115l2.52,4.457v3.12c0,0.104,0.028,0.177,0.085,0.22c0.057,0.043,0.124,0.042,0.202-0.003
			l0.851-0.492c0.078-0.044,0.145-0.122,0.201-0.23c0.058-0.108,0.086-0.214,0.086-0.318v-3.12l2.52-7.366
			c0.014-0.046,0.021-0.094,0.021-0.14C202.107,323.925,202.079,323.851,202.022,323.807z M175.099,339.239l-5.264,3.039
			c-0.078,0.045-0.145,0.122-0.202,0.229c-0.057,0.11-0.085,0.216-0.085,0.32v1.006c0,0.104,0.028,0.177,0.085,0.221
			c0.057,0.043,0.124,0.041,0.202-0.004l1.915-1.105v7.77c0,0.104,0.028,0.178,0.085,0.22c0.057,0.043,0.123,0.042,0.202-0.003
			l0.861-0.497c0.078-0.046,0.145-0.122,0.203-0.232c0.056-0.107,0.085-0.214,0.085-0.318v-7.77l1.913-1.105
			c0.078-0.044,0.145-0.12,0.202-0.229c0.057-0.109,0.085-0.215,0.085-0.319v-1.006c0-0.104-0.028-0.178-0.085-0.221
			C175.244,339.193,175.177,339.193,175.099,339.239z M167.315,344.214c-0.042-0.137-0.092-0.228-0.149-0.276
			c-0.057-0.047-0.142-0.038-0.255,0.027l-1.169,0.675c-0.114,0.066-0.199,0.155-0.256,0.268c-0.057,0.114-0.106,0.262-0.149,0.448
			l-2.605,10.465c-0.007,0.032-0.011,0.067-0.011,0.105c0,0.104,0.028,0.178,0.085,0.22c0.057,0.043,0.124,0.042,0.203-0.003
			l0.764-0.442c0.143-0.082,0.242-0.179,0.298-0.293c0.058-0.113,0.097-0.214,0.117-0.302l0.458-1.838l3.36-1.94l0.457,1.309
			c0.022,0.064,0.061,0.12,0.117,0.167c0.058,0.048,0.157,0.031,0.298-0.051l0.766-0.442c0.078-0.046,0.145-0.122,0.202-0.232
			c0.057-0.107,0.085-0.214,0.085-0.318c0-0.038-0.003-0.068-0.01-0.092L167.315,344.214z M165.156,351.203l1.169-4.715l1.17,3.365
			L165.156,351.203z M181.405,335.598l-5.264,3.04c-0.078,0.044-0.146,0.122-0.202,0.229c-0.057,0.109-0.086,0.215-0.086,0.319
			v1.007c0,0.104,0.029,0.177,0.086,0.22c0.056,0.044,0.124,0.042,0.202-0.004l1.915-1.105v7.77c0,0.104,0.028,0.178,0.084,0.22
			c0.058,0.044,0.124,0.043,0.203-0.002l0.861-0.498c0.078-0.045,0.145-0.122,0.202-0.231c0.057-0.107,0.085-0.214,0.085-0.318
			v-7.77l1.915-1.105c0.078-0.045,0.145-0.121,0.202-0.229c0.057-0.11,0.085-0.216,0.085-0.32v-1.005
			c0-0.104-0.028-0.178-0.085-0.222C181.55,335.552,181.483,335.553,181.405,335.598z"/>
	</g>
</g>
<g id="Character">
	<g id="Character_00000135670738501731896340000004543372750097080460_">
		<g id="Bottom_00000059279853617214789820000002965523103515372199_">
			<g>
				<path style="fill:#FFBDA7;" d="M251.722,381.02c1.079-14.843-3.01-34.429-1.45-57.448c1.289-19.026,4.273-25.526,4.544-29.197
					c0,0,2.299-34.168,1.882-76.749c-0.192-19.588,6.427-26.736,10.961-37.13l59.82-0.314c4.837,27.282,5.122,80.497,4.942,106.928
					c-0.091,13.475-4.937,82.012-4.923,83.674c0.052,6.274-0.178,7.542,2.127,10.016c4.828,5.181,11.593,9.186,17.643,13.702
					c-0.876,2.314-9.038,3.238-12.64,1.476c-5.755-2.814-11.466-7.108-13.43-8.562c-4.971-3.68-11.325-6.632-11.406-12.233
					c-0.014-0.697-0.203-0.89-0.167-1c-0.095-3.27-7.96-45.991-8.594-57.181c-0.546-9.621,0.626-25.948,0.626-25.948l-6.208-40.754
					c0,0-4.844,30.647-8.716,47.095c-3.151,13.388-7.331,29.674-10.878,46.151l0,0c-3.54,17.854-6.566,30.371-7.815,37.306
					c0.2,3.845-3.078,26.571-4.14,31.671c-1.061,5.1-13.241,4.749-13.954-4.023C249.475,402.664,251.519,383.814,251.722,381.02z"/>
				<path style="fill:#455A64;" d="M332.951,261.307c-0.45-25.34-2.207-70.821-4.276-82.062l-61.886,0.407
					c0,0-7.33,13.649-10.088,24.419c-2.758,10.77-1.312,44.121-2.227,64.185s-1.1,26.686-1.1,26.686s-3.79,12.463-4.465,21.841
					c0,0,3.957,7.38,17.261,9.088c13.304,1.708,15.397-2.442,15.397-2.442s5.702-23.549,7.952-35.026
					c2.25-11.477,5.933-34.233,5.933-34.233l5.094,35.583c0,0-1.455,17.642-0.9,24.933c7.651,5.223,25.362,6.874,32.429-0.266
					C332.075,314.419,333.401,286.646,332.951,261.307z"/>
				<path id="XMLID_00000024720184942261797300000012840501294111858361_" style="fill:#263238;" d="M295.451,254.169l3.995-29.281
					c0,0,14.137,0.776,24.469-12.198c0,0-3.812,14.361-20.367,16.212l-4.413,25.669l1.411,35.181L295.451,254.169z"/>
			</g>
			<g>
				<path style="fill:#263238;" d="M357.565,400.42c-0.578,1.005-0.076,4.391-1.732,5.85c-1.911,1.684-7.544,4.477-15.036,3.59
					c-7.492-0.887-11.568-3.159-14.589-5.632c-3.021-2.473-7.254-5.962-10.647-6.673c-3.151-0.659-6.58-2.047-7.597-3.008
					c-1.016-0.961-0.038-6.291-0.038-6.291L357.565,400.42z"/>
				<path id="XMLID_00000163075052853162106570000007354882851509720458_" style="fill:#37474F;" d="M309.471,372.603
					c0,0-0.564,0.024-0.747,1.026c-0.217,1.193-0.429,4.658-0.903,6.617c-0.658,2.723-1.058,8.295-0.622,10.504
					c0.436,2.209,5.577,3.692,8.866,4.904c3.359,1.238,7.256,3.822,10.682,6.587c3.546,2.861,10.974,5.69,15.85,5.709
					c7.445,0.029,12.244-2.042,13.704-4.733c1.806-3.33,1.227-6.241-7.37-10.113c-1.627-0.733-7.352-4.038-9.303-5.238
					c-2.063-1.267-4.041-2.68-5.868-4.27c-0.924-0.805-1.809-1.655-2.639-2.556c-0.731-0.793-1.758-1.751-2.197-2.743
					c-0.099-0.225-0.169-0.488-0.258-0.722c-0.257-0.674-0.435-1.296-0.579-1.999c-0.145-0.709-0.243-1.745-0.924-2.164
					c-0.635-0.392-1.842-0.229-2.547-0.233c-1.092-0.006-2.189,0.04-3.265,0.242c-1.742,0.327-3.899,1.203-4.875,2.787
					c-0.562,0.912-0.638,2.058-0.671,3.107c-0.016,0.499,0,1.002,0.001,1.502c0,0.213,0.096,0.596-0.204,0.51
					c-0.285-0.081-0.611-0.824-0.721-1.077c-0.243-0.557-0.401-1.153-0.667-1.701c-0.304-0.626-0.646-1.267-1.084-1.8
					c-0.409-0.497-0.855-0.974-1.369-1.365c-0.467-0.356-1.06-0.529-1.475-0.933C309.759,373.939,309.521,373.025,309.471,372.603z"
					/>
				<path style="fill:#FAFAFA;" d="M350.317,393.743c-10.77,0.858-14.977,8.558-15.39,12.682c2.68,0.917,5.441,1.517,7.67,1.526
					c7.445,0.029,12.55-2.042,14.01-4.733C358.31,400.076,357.988,396.561,350.317,393.743z"/>
				<g>
					<g>
						<path style="fill:#F0F0F0;" d="M333.277,395.034c-0.117,0.001-0.235-0.036-0.334-0.116c-0.227-0.181-0.263-0.512-0.082-0.74
							c1.481-1.853,6.666-5.34,10.588-4.955c0.29,0.028,0.503,0.286,0.473,0.574c-0.028,0.288-0.278,0.5-0.574,0.473
							c-3.66-0.348-8.491,3.096-9.665,4.565C333.581,394.965,333.431,395.033,333.277,395.034z"/>
					</g>
					<g>
						<path style="fill:#F0F0F0;" d="M328.607,392.379c-0.117,0.002-0.235-0.036-0.334-0.115c-0.228-0.181-0.263-0.513-0.082-0.74
							c1.482-1.855,6.67-5.348,10.588-4.955c0.29,0.027,0.502,0.286,0.473,0.575c-0.027,0.288-0.273,0.5-0.574,0.473
							c-3.66-0.353-8.491,3.095-9.665,4.565C328.91,392.31,328.76,392.378,328.607,392.379z"/>
					</g>
					<g>
						<path style="fill:#F0F0F0;" d="M324.273,389.337c-0.118,0.001-0.236-0.036-0.335-0.116c-0.227-0.181-0.263-0.512-0.082-0.74
							c1.48-1.854,6.684-5.343,10.588-4.955c0.29,0.027,0.502,0.286,0.473,0.574c-0.028,0.289-0.275,0.499-0.575,0.473
							c-3.655-0.35-8.491,3.095-9.665,4.565C324.577,389.267,324.426,389.335,324.273,389.337z"/>
					</g>
					<g>
						<path style="fill:#F0F0F0;" d="M320.027,386.293c-0.114,0.001-0.231-0.035-0.328-0.111c-0.231-0.178-0.271-0.509-0.094-0.738
							c2.036-2.629,7.568-5.404,11.484-5.018c0.29,0.028,0.503,0.286,0.473,0.575c-0.027,0.289-0.276,0.493-0.574,0.473
							c-3.527-0.345-8.744,2.285-10.552,4.615C320.335,386.222,320.181,386.292,320.027,386.293z"/>
					</g>
				</g>
			</g>
			<g>
				<path style="fill:#263238;" d="M267.395,416.5c-0.296,5.083-1.086,8.453-2.889,11.435c-1.803,2.981-5.206,3.917-8.652,3.044
					c-3.446-0.873-8.097-3.964-9.911-8.077c-1.604-3.635-1.563-7.39-0.781-12.105L267.395,416.5z"/>
				<path id="XMLID_00000018916551436831825540000000325744071951433917_" style="fill:#37474F;" d="M251.844,379.204
					c-1.42,0.112-1.839,6.937-2.657,13.771c-0.878,7.325-3.065,10.355-3.849,16.361c-0.896,6.862,1.304,10.413,3.708,14.562
					c2.404,4.149,10.915,8.219,15.11,2.277c3.419-4.845,3.56-10.216,3.249-17.068c-0.323-7.083,0.167-11.988,0.457-17.363
					c0.276-5.138,1.414-10.318,0.18-10.89c-0.095,0.755-0.187,1.712-0.288,2.453c-0.124,0.912-0.127,1.869-0.458,2.74
					c-0.145,0.382-0.462,0.782-0.59,0.161c-0.087-0.421-0.046-0.857,0.001-1.278c0.208-1.892-0.746-2.046-1.26-2.193
					c-1.116-0.319-5.523-0.861-6.587-0.933c-1.085-0.074-5.893-0.722-6.379-0.105c-0.329,0.418-0.376,1.118-0.478,1.984
					c-0.121,1.033-0.36,1.789-0.39,1.465c-0.068-0.739,0.076-2.661,0.094-3.126c0.017-0.445,0.09-1.052,0.096-1.499
					C251.811,380.083,251.815,379.643,251.844,379.204z"/>
				<path style="fill:#FAFAFA;" d="M244.945,413.312c-0.245,4.261,1.162,8.054,3.719,10.912c3.198,3.574,11.601,8.233,15.796,2.291
					c2.087-2.956,2.646-6.452,2.933-10.018C264.879,411.917,248.91,409.414,244.945,413.312z"/>
				<g>
					<g>
						<path style="fill:#F0F0F0;" d="M264.295,409.036c-0.059-0.006-0.118-0.022-0.175-0.049c-0.057-0.027-7.691-3.229-14.086-1.749
							c-0.283,0.061-0.565-0.112-0.632-0.395c-0.065-0.283,0.112-0.566,0.396-0.632c6.763-1.561,14.526,1.708,14.777,1.825
							c0.262,0.127,0.373,0.441,0.248,0.703C264.725,408.945,264.51,409.057,264.295,409.036z"/>
					</g>
					<g>
						<path style="fill:#F0F0F0;" d="M250.352,402.124c-0.199-0.02-0.378-0.153-0.447-0.354c-0.092-0.276,0.054-0.575,0.329-0.669
							c6.366-2.156,14.494,1.566,14.76,1.706c0.258,0.134,0.358,0.452,0.221,0.71c-0.136,0.257-0.458,0.35-0.71,0.222
							c-0.06-0.031-8.009-3.653-13.932-1.639C250.501,402.124,250.426,402.131,250.352,402.124z"/>
					</g>
					<g>
						<path style="fill:#F0F0F0;" d="M250.577,397.302c-0.195-0.02-0.372-0.149-0.442-0.346c-0.098-0.275,0.044-0.577,0.317-0.674
							c7.001-2.508,14.771,1.514,15.019,1.665c0.249,0.151,0.328,0.475,0.177,0.723c-0.151,0.249-0.481,0.329-0.723,0.177
							c-0.055-0.035-7.6-3.906-14.116-1.574C250.731,397.301,250.652,397.309,250.577,397.302z"/>
					</g>
					<g>
						<path style="fill:#EBEBEB;" d="M250.925,392.554c-0.192-0.019-0.368-0.145-0.44-0.339c-0.102-0.272,0.035-0.576,0.308-0.678
							c6.561-2.457,14.843,1.654,15.113,1.812c0.252,0.143,0.338,0.466,0.193,0.719c-0.143,0.253-0.465,0.343-0.718,0.193
							c-0.063-0.035-8.126-4.021-14.218-1.738C251.083,392.552,251.003,392.562,250.925,392.554z"/>
					</g>
				</g>
			</g>
		</g>
		<g id="Top_00000070827760613834282600000013713768667055425158_">
			<g>
				<g>
					<path style="fill:#263238;" d="M395.319,144.703c-0.153,0-0.307-0.063-0.416-0.188c-3.132-3.555-4.856-8.121-4.856-12.858
						v-7.587c0-0.307,0.248-0.555,0.555-0.555c0.307,0,0.555,0.248,0.555,0.555v7.587c0,4.467,1.626,8.773,4.579,12.126
						c0.202,0.23,0.181,0.58-0.05,0.782C395.58,144.657,395.45,144.703,395.319,144.703z"/>
				</g>
				<g>
					<path style="fill:#37474F;" d="M390.998,143.275l-0.216,0.522c-0.346,0.835-0.18,2.094,0.371,2.811l3.679,4.793l6.09-0.803
						l1.763-4.256l-3.859-4.18c-0.613-0.664-1.837-1.107-2.734-0.989l-2.844,0.375C392.351,141.666,391.344,142.439,390.998,143.275
						z"/>
					<path style="fill:#455A64;" d="M398.825,142.162c-0.613-0.664-1.837-1.107-2.734-0.989l-2.844,0.375
						c-0.896,0.118-1.126,0.752-0.512,1.417l3.859,4.179l6.091-0.802L398.825,142.162z"/>
					<path style="opacity:0.1;" d="M396.554,145.928c-0.448,0.059-0.952,0.445-1.125,0.863l-1.449,3.501l0.852,1.11l6.09-0.803
						l1.763-4.256l-1.007-1.09L396.554,145.928z"/>
					<g>
						<path style="fill:#37474F;" d="M403.406,145.782c-0.09-0.117-0.256-0.174-0.479-0.145l-5.99,0.79
							c-0.448,0.059-0.952,0.446-1.125,0.863l-1.723,4.163c-0.087,0.209-0.073,0.386,0.018,0.502c0.085,0.108,0.385,0.5,0.468,0.609
							c0.089,0.118,0.256,0.177,0.481,0.147l5.99-0.79c0.448-0.059,0.952-0.446,1.125-0.863l1.724-4.163
							c0.086-0.208,0.075-0.385-0.015-0.502C403.794,146.285,403.49,145.892,403.406,145.782z"/>
						<path style="fill:#455A64;" d="M397.405,147.037l5.99-0.79c0.448-0.059,0.671,0.232,0.498,0.649l-1.724,4.163
							c-0.173,0.418-0.676,0.804-1.124,0.863l-5.99,0.79c-0.448,0.059-0.671-0.232-0.498-0.649l1.723-4.163
							C396.453,147.482,396.957,147.096,397.405,147.037z"/>
					</g>
					<g>
						<path style="fill:#BA68C8;" d="M401.11,152.255l-3.043-3.964l-0.539,0.071l-1.175,2.838l3.043,3.964
							c0.193,0.251,0.418,0.359,0.625,0.331c0.092-0.012,0.449-0.06,0.54-0.071c0.204-0.027,0.389-0.188,0.51-0.48l0.298-0.72
							C401.612,153.637,401.495,152.757,401.11,152.255z M400.061,152.71c0.258,0.336,0.336,0.927,0.174,1.319
							c-0.026,0.063-0.058,0.113-0.092,0.159c-0.045-0.035-0.089-0.075-0.13-0.129c-0.258-0.336-0.336-0.927-0.174-1.319
							c0.026-0.063,0.059-0.117,0.093-0.161C399.976,152.612,400.019,152.656,400.061,152.71z"/>
						<path style="opacity:0.85;fill:#FFFFFF;" d="M401.11,152.254l-3.043-3.964l-0.536,0.072l3.04,3.962
							c0.387,0.504,0.501,1.384,0.259,1.968l-0.298,0.72c-0.125,0.303-0.322,0.469-0.538,0.486c0.007-0.001,0.019-0.003,0.026-0.003
							c0.094-0.014,0.451-0.062,0.541-0.074c0.205-0.025,0.389-0.186,0.51-0.48l0.298-0.72
							C401.611,153.638,401.494,152.757,401.11,152.254z"/>
						<path style="fill:#BA68C8;" d="M401.369,154.222l-0.298,0.72c-0.121,0.294-0.305,0.455-0.51,0.48
							c-0.09,0.012-0.447,0.06-0.541,0.074c-0.007,0-0.015,0.001-0.022,0.001c0.213-0.018,0.408-0.182,0.534-0.484l0.298-0.72
							c0.121-0.293,0.151-0.657,0.105-1.016l0.54-0.071C401.522,153.562,401.491,153.928,401.369,154.222z"/>
						<path style="opacity:0.6;fill:#FFFFFF;" d="M401.369,154.222l-0.298,0.72c-0.121,0.294-0.305,0.455-0.51,0.48
							c-0.09,0.012-0.447,0.06-0.541,0.074c-0.007,0-0.015,0.001-0.022,0.001c0.213-0.018,0.408-0.182,0.534-0.484l0.298-0.72
							c0.121-0.293,0.151-0.657,0.105-1.016l0.54-0.071C401.522,153.562,401.491,153.928,401.369,154.222z"/>
						<path style="opacity:0.05;" d="M401.369,154.222l-0.298,0.72c-0.121,0.294-0.305,0.455-0.51,0.48
							c-0.09,0.012-0.447,0.06-0.541,0.074c-0.007,0-0.015,0.001-0.022,0.001c0.213-0.018,0.408-0.182,0.534-0.484l0.298-0.72
							c0.121-0.293,0.151-0.657,0.105-1.016l0.54-0.071C401.522,153.562,401.491,153.928,401.369,154.222z"/>
						<path style="opacity:0.6;fill:#FFFFFF;" d="M399.84,152.738c0.026-0.064,0.06-0.118,0.092-0.161l0,0
							c-0.232-0.182-0.495-0.097-0.631,0.232c-0.163,0.393-0.084,0.982,0.173,1.319c0.216,0.284,0.494,0.297,0.671,0.058
							c-0.046-0.033-0.09-0.073-0.131-0.129C399.756,153.72,399.677,153.132,399.84,152.738z"/>
						<path style="opacity:0.1;" d="M399.84,152.738c0.026-0.064,0.06-0.118,0.092-0.161l0,0c-0.232-0.182-0.495-0.097-0.631,0.232
							c-0.163,0.393-0.084,0.982,0.173,1.319c0.216,0.284,0.494,0.297,0.671,0.058c-0.046-0.033-0.09-0.073-0.131-0.129
							C399.756,153.72,399.677,153.132,399.84,152.738z"/>
						<path style="opacity:0.7;fill:#FFFFFF;" d="M400.571,152.326l-3.043-3.964l-1.175,2.838l3.043,3.964
							c0.385,0.502,0.894,0.435,1.136-0.15l0.298-0.72C401.073,153.709,400.957,152.828,400.571,152.326z M399.474,154.129
							c-0.258-0.336-0.336-0.927-0.174-1.319c0.162-0.392,0.503-0.437,0.761-0.1c0.258,0.336,0.336,0.927,0.174,1.319
							C400.073,154.42,399.732,154.465,399.474,154.129z"/>
					</g>
					<g>
						<path style="fill:#BA68C8;" d="M405.14,151.724l-3.043-3.964l-0.539,0.071l-1.175,2.838l3.043,3.964
							c0.193,0.251,0.418,0.359,0.625,0.331c0.092-0.012,0.449-0.06,0.54-0.071c0.204-0.027,0.389-0.188,0.51-0.48l0.298-0.72
							C405.641,153.107,405.525,152.226,405.14,151.724z M404.091,152.179c0.258,0.336,0.336,0.927,0.174,1.319
							c-0.026,0.063-0.058,0.114-0.092,0.158c-0.045-0.035-0.089-0.075-0.13-0.129c-0.258-0.336-0.336-0.927-0.174-1.319
							c0.026-0.063,0.059-0.117,0.093-0.162C404.006,152.081,404.049,152.125,404.091,152.179z"/>
						<path style="opacity:0.85;fill:#FFFFFF;" d="M405.14,151.723l-3.043-3.964l-0.536,0.072l3.04,3.963
							c0.387,0.504,0.501,1.384,0.259,1.968l-0.298,0.72c-0.125,0.302-0.322,0.469-0.538,0.486c0.007,0,0.019-0.003,0.026-0.003
							c0.094-0.014,0.451-0.061,0.541-0.074c0.205-0.025,0.389-0.186,0.51-0.48l0.298-0.72
							C405.641,153.107,405.523,152.226,405.14,151.723z"/>
						<path style="fill:#BA68C8;" d="M405.399,153.691l-0.298,0.72c-0.121,0.294-0.305,0.455-0.51,0.48
							c-0.09,0.012-0.447,0.06-0.541,0.074c-0.007,0.001-0.015,0.001-0.022,0.001c0.213-0.018,0.408-0.182,0.534-0.484l0.298-0.72
							c0.121-0.293,0.151-0.657,0.105-1.016l0.54-0.071C405.552,153.031,405.52,153.398,405.399,153.691z"/>
						<path style="opacity:0.6;fill:#FFFFFF;" d="M405.399,153.691l-0.298,0.72c-0.121,0.294-0.305,0.455-0.51,0.48
							c-0.09,0.012-0.447,0.06-0.541,0.074c-0.007,0.001-0.015,0.001-0.022,0.001c0.213-0.018,0.408-0.182,0.534-0.484l0.298-0.72
							c0.121-0.293,0.151-0.657,0.105-1.016l0.54-0.071C405.552,153.031,405.52,153.398,405.399,153.691z"/>
						<path style="opacity:0.05;" d="M405.399,153.691l-0.298,0.72c-0.121,0.294-0.305,0.455-0.51,0.48
							c-0.09,0.012-0.447,0.06-0.541,0.074c-0.007,0.001-0.015,0.001-0.022,0.001c0.213-0.018,0.408-0.182,0.534-0.484l0.298-0.72
							c0.121-0.293,0.151-0.657,0.105-1.016l0.54-0.071C405.552,153.031,405.52,153.398,405.399,153.691z"/>
						<path style="opacity:0.6;fill:#FFFFFF;" d="M403.869,152.208c0.026-0.064,0.06-0.118,0.092-0.161l0,0
							c-0.232-0.182-0.495-0.097-0.631,0.232c-0.163,0.393-0.084,0.982,0.173,1.319c0.216,0.284,0.494,0.297,0.671,0.058
							c-0.046-0.033-0.09-0.073-0.131-0.129C403.785,153.19,403.707,152.601,403.869,152.208z"/>
						<path style="opacity:0.1;" d="M403.869,152.208c0.026-0.064,0.06-0.118,0.092-0.161l0,0c-0.232-0.182-0.495-0.097-0.631,0.232
							c-0.163,0.393-0.084,0.982,0.173,1.319c0.216,0.284,0.494,0.297,0.671,0.058c-0.046-0.033-0.09-0.073-0.131-0.129
							C403.785,153.19,403.707,152.601,403.869,152.208z"/>
						<path style="opacity:0.7;fill:#FFFFFF;" d="M404.601,151.795l-3.043-3.964l-1.175,2.838l3.043,3.964
							c0.385,0.502,0.894,0.435,1.136-0.15l0.298-0.72C405.103,153.178,404.986,152.297,404.601,151.795z M403.503,153.598
							c-0.258-0.336-0.336-0.927-0.174-1.318c0.162-0.392,0.503-0.437,0.761-0.1c0.258,0.336,0.336,0.927,0.174,1.319
							S403.761,153.934,403.503,153.598z"/>
					</g>
				</g>
			</g>
			<g id="Arm_00000129183449705711070210000013144498840890744454_">
				<path style="fill:#FFBDA7;" d="M398.086,117.321c-0.965-0.308-2.022-0.208-2.988,0.095c-1.572,0.492-2.902,1.474-4.369,2.187
					c-2.235,1.085-5.831,2.868-8.351,2.64c-0.513-0.047-1.563-0.301-0.835-0.907c0.949-0.791,1.972-1.511,2.772-2.452
					c0.801-0.941,1.368-2.169,1.195-3.393c-0.052-0.368-0.185-0.747-0.473-0.983c-0.409-0.334-0.709-0.148-1.053,0.087
					c-0.362,0.248-0.767,0.433-1.162,0.633c-0.813,0.412-1.625,0.826-2.432,1.25c-4.71,2.473-9.442,5.401-12.371,9.98
					c-0.425,0.665-3.043,5.929-4.711,8.89c-1.374,2.706-9.769,16.47-9.769,16.47s-14.404-12.019-20.17-16.667
					c-9.757-7.865-15.868-13.968-22.941-13.901l13.478,35.455c0,0,18.08,11.674,20.746,13.32c8.887,5.488,10.869,6.605,15.749,2.21
					c5.984-5.389,7.499-11.728,9.921-18.6c2.728-7.739,3.613-11.471,5.078-13.782c1.465-2.311,3.699-2.371,5.284-2.787
					c2.896-0.761,3.621-1.065,6.296-2.411c1.761-0.885,3.434-1.967,4.904-3.283c0.616-0.551,1.641-1.32,1.935-2.115
					c0.275-0.743,0.18-1.577,0.55-2.324c0.416-0.839,1.215-1.459,1.536-2.338c0.253-0.691,0.177-1.451,0.244-2.184
					c0.107-1.164,0.854-1.807,1.698-2.514c0.41-0.343,0.868-0.673,1.08-1.163C399.271,117.946,398.741,117.53,398.086,117.321z"/>
				<path style="fill:#F0997A;" d="M353.54,151.816c-3.352,5.212-3.764,10.287-3.342,12.254c-2.486-6.559,0.376-11.678,1.604-13.703
					L353.54,151.816z"/>
				<path style="fill:#F0997A;" d="M379.401,124.302c-1.186,2.83-4.237,5.959-5.965,6.828c0,0,2.77-0.153,4.292-1.948
					C379.397,127.216,379.497,125.47,379.401,124.302z"/>
			</g>
			<g>
				<path style="fill:#37474F;" d="M260.1,134.07L260.1,134.07c10.79,0,19.536-8.747,19.536-19.536V65.767h-3.239
					c-9.001,0-16.298,7.297-16.298,16.298V134.07z"/>
				<g>
					<path style="fill:#BA68C8;" d="M269.732,71.902c-0.262,0.808-0.438,1.646-0.523,2.488c-0.055,0.542-0.076,1.09-0.003,1.629
						c0.344,2.536,2.85,4.395,5.36,4.435c2.509,0.04,4.881-1.447,6.451-3.455c2.089-2.67,5.209-8.962,1.146-11.199
						c-2.665-1.467-6.131-1.07-8.623,0.712C271.728,67.808,270.428,69.752,269.732,71.902z"/>
					<path style="opacity:0.25;" d="M269.732,71.902c-0.262,0.808-0.438,1.646-0.523,2.488c-0.055,0.542-0.076,1.09-0.003,1.629
						c0.344,2.536,2.85,4.395,5.36,4.435c2.509,0.04,4.881-1.447,6.451-3.455c2.089-2.67,5.209-8.962,1.146-11.199
						c-2.665-1.467-6.131-1.07-8.623,0.712C271.728,67.808,270.428,69.752,269.732,71.902z"/>
				</g>
			</g>
			<g>
				<path style="fill:#FAFAFA;" d="M291.683,213.046c-8.979,0-25.278-1.641-33.957-12.581c1.805-6.892,4.996-12.944,7.117-16.966
					c1.545-2.929,2.287-4.376,2.288-5.254c0.01-11.869-1.31-19.32-2.272-24.76c-0.246-1.386-0.471-2.659-0.651-3.862
					c-1.968-13.162,2.563-20.977,5.277-23.321c0.857-0.422,10.39-5.088,13.592-5.54c3.398-0.479,6.8-0.723,10.108-0.723
					c2.141,0,4.23,0.103,6.213,0.304c0.222,0.022,0.527,0.049,0.903,0.082c1.961,0.172,6.02,0.528,9.906,1.343
					c0.971,0.669,10.037,7.135,15.482,18.488c2.537,5.292,3.54,30.617,4.204,47.375c0.186,4.722,0.349,8.808,0.518,11.965
					c-2.244,7.05-20.639,13.448-38.728,13.448C291.682,213.046,291.685,213.046,291.683,213.046z"/>
				<path style="fill:#E0E0E0;" d="M293.184,120.594c2.122,0,4.194,0.101,6.158,0.301c0.224,0.023,0.534,0.05,0.915,0.084
					c1.931,0.169,5.91,0.518,9.727,1.31c1.304,0.913,9.946,7.244,15.204,18.209c2.488,5.189,3.488,30.447,4.15,47.16
					c0.185,4.671,0.345,8.719,0.513,11.865c-2.083,6.038-19.035,12.969-38.169,12.969c-8.82,0-24.773-1.592-33.35-12.156
					c1.801-6.719,4.919-12.631,7-16.578c1.63-3.092,2.351-4.501,2.352-5.513c0.01-11.922-1.315-19.401-2.282-24.862
					c-0.242-1.363-0.47-2.651-0.648-3.843c-1.92-12.84,2.401-20.447,5.039-22.773c2.938-1.45,10.701-5.081,13.36-5.456
					C286.526,120.835,289.901,120.594,293.184,120.594 M293.184,119.485c-2.819,0-6.266,0.175-10.184,0.728
					c-3.466,0.489-13.823,5.622-13.823,5.622c-3.048,2.577-7.475,10.782-5.518,23.869c0.898,6.01,2.93,13.745,2.917,28.54
					c-0.002,2.084-6.567,11.055-9.456,22.347c7.335,9.457,20.971,13.009,34.563,13.009c18.597,0,37.112-6.652,39.287-13.934
					c-0.809-14.979-1.501-52.807-4.782-59.649c-5.868-12.237-15.759-18.769-15.759-18.769c-4.676-0.992-9.556-1.313-10.975-1.457
					C298.04,119.648,295.903,119.485,293.184,119.485L293.184,119.485z"/>
			</g>
			<g id="Mobile_00000071545447835187892480000012873123476589421713_">
				<g>
					<g id="XMLID_00000109017891191531874480000015519838430824426918_">
						<g id="XMLID_00000005970174746632593950000002901126703381304452_">
							<g id="XMLID_00000179628260005285403280000003058583066749633424_">
								<path id="XMLID_00000013175287186477069590000000963954670239161507_" style="fill:#455A64;" d="M357.251,160.362
									l0.027,0.004l-1.309-1.223l-0.001,0.018c-0.296-0.259-0.768-0.354-1.388-0.212l-16.088,3.741
									c-1.376,0.316-2.909,1.638-3.423,2.952l-11.788,30.073c-0.273,0.697-0.197,1.245,0.133,1.566l-0.012,0.003l1.35,1.261
									v-0.018c0.294,0.266,0.772,0.366,1.401,0.222l16.088-3.74c1.376-0.316,2.909-1.638,3.424-2.952
									c2.316-5.911,9.473-24.163,11.788-30.074C357.742,161.242,357.636,160.671,357.251,160.362z"/>
								<path id="XMLID_00000085241750417651932130000002181314876789876875_" style="fill:#455A64;" d="M338.172,164.698
									c-0.789,0.574-1.48,1.379-1.793,2.173l-11.791,30.063c-0.255,0.675-0.21,1.214,0.087,1.535l-1.27-1.179l0.014-0.013
									c-0.337-0.323-0.409-0.863-0.139-1.564l11.792-30.077c0.285-0.742,0.919-1.482,1.655-2.058L338.172,164.698z"/>
								<path id="XMLID_00000127033333474965478680000014411451550749966513_" style="fill:#37474F;" d="M324.593,196.941
									l11.788-30.073c0.515-1.315,2.048-2.637,3.424-2.952l16.088-3.741c1.376-0.316,2.074,0.494,1.559,1.808
									c-2.315,5.911-9.473,24.163-11.788,30.074c-0.515,1.315-2.048,2.637-3.424,2.953l-16.088,3.74
									C324.776,199.065,324.078,198.255,324.593,196.941z"/>
							</g>
						</g>
					</g>
					<path id="XMLID_00000121967498326596384480000013560270093725617834_" style="fill:#455A64;" d="M336.145,173.264l2.206-5.628
						c0.096-0.246,0.383-0.493,0.641-0.553l2.779-0.638c0.258-0.059,0.388,0.092,0.292,0.338c-0.433,1.106-1.773,4.522-2.206,5.629
						c-0.096,0.246-0.383,0.493-0.641,0.553l-2.779,0.637C336.179,173.662,336.048,173.51,336.145,173.264z"/>
					<path id="XMLID_00000009582091021330873630000017286822916435219584_" style="fill:#263238;" d="M338.431,169.006
						c0.235-0.599,0.965-1.208,1.631-1.361c0.665-0.153,1.015,0.209,0.779,0.808c-0.236,0.598-0.965,1.208-1.631,1.361
						C338.544,169.966,338.196,169.604,338.431,169.006z"/>
					<path id="XMLID_00000134238593609731470890000005181407781850131099_" style="fill:#263238;" d="M337.354,171.847
						c0.235-0.599,0.965-1.208,1.631-1.361c0.665-0.153,1.015,0.209,0.779,0.808c-0.236,0.598-0.965,1.208-1.631,1.361
						C337.467,172.807,337.119,172.446,337.354,171.847z"/>
				</g>
			</g>
			<g>
				<g>
					<path style="fill:#FFBDA7;" d="M288.408,179.345l-7.751-31.598c0,0-6.029-19.745-11.48-21.912
						c-9.726,3.14-11.673,9.053-12.433,15.079c-0.689,5.466,0.414,11.209,4.427,25.518c3.889,13.87,6.567,21.393,8.642,26.603
						c2.567,6.448,8.241,6.993,18.102,6.49c9.861-0.504,16.031-1.411,29.714-3.242c6.58-0.881,10.03-2.334,15.474-4.026
						c2.702-0.84,4.23-1.564,5.873-2.654c1.644-1.091,3.13-2.481,4.067-4.217c0.176-0.326,0.299-0.656,0.564-0.921
						c0.253-0.253,0.537-0.471,0.824-0.685c0.543-0.404,1.116-0.79,1.526-1.339c0.434-0.582,0.644-1.286,0.952-1.934
						c0.144-0.303,0.235-0.615,0.417-0.902c0.185-0.291,0.409-0.554,0.643-0.806c0.604-0.65,1.306-1.284,1.648-2.117
						c0.319-0.776-0.145-1.355-0.145-1.355s0.914-0.716,1.212-0.976c0.417-0.365,0.795-0.776,1.124-1.223
						c0.13-0.176,0.257-0.388,0.203-0.6c-0.032-0.124-0.122-0.224-0.214-0.313c-1.481-1.425-3.489-0.836-5.176-0.186
						c-4.391,1.691-6.792,3.668-11.372,4.873c-2.49,0.655-3.117,0.786-3.995,0.508c-1.193-0.752,3.342-4.975,3.696-8.519
						c0.176-1.758-1.418-3.91-2.82-1.898c-2.937,4.216-5.482,5.313-7.679,7.721c-2.197,2.408-4.254,3.868-8.908,5.431
						C310.6,181.802,288.408,179.345,288.408,179.345z"/>
					<path style="fill:#F0997A;" d="M288.408,179.345c-6.005-1.112-11.017-0.878-11.017-0.878s2.761-2.043,10.73-0.903
						L288.408,179.345z"/>
					<path style="fill:#F0997A;" d="M349.364,175.561c-0.897,0.761-1.862,1.437-2.827,2.104c-0.963,0.67-1.948,1.305-2.913,1.964
						c-0.485,0.319-0.956,0.671-1.468,0.981c-0.509,0.303-1.021,0.595-1.548,0.858c-1.048,0.536-2.113,1.033-3.207,1.464
						l1.524-0.882c0.51-0.287,1.019-0.578,1.52-0.878c0.499-0.304,1.005-0.595,1.49-0.914c0.486-0.307,0.953-0.661,1.443-0.992
						c0.978-0.654,1.97-1.281,2.976-1.883L349.364,175.561z"/>
					<path style="fill:#F0997A;" d="M347.407,179.481c-0.564,0.71-1.221,1.395-1.911,1.979c-0.69,0.586-1.41,1.133-2.143,1.663
						c-0.738,0.522-1.487,1.028-2.258,1.499c-0.769,0.474-1.561,0.918-2.389,1.286c0.743-0.515,1.465-1.051,2.2-1.571l2.192-1.57
						l2.187-1.574C346.007,180.656,346.722,180.072,347.407,179.481z"/>
				</g>
			</g>
			<g>
				<g id="Head_00000057133441638674680090000008790526771635369861_">
					<path style="fill:#37474F;" d="M316.394,93.33l1.597-0.492c7.177-3.854,6.815-13.215,5.072-18.093
						c-3.89-10.889-15.659-14.966-22.942-15.364c-13.81-0.755-20.555,2.812-21.979,9.965c-1.871-0.159-4.443,1.348-5.995,3.461
						c-3.397,4.624-7.437,20.733,10.466,37.723L316.394,93.33z"/>
					<g id="XMLID_00000109005133058254161550000002272435325319589811_">
						<g id="XMLID_00000151535250271173009020000001419940873516897951_">
							<path id="XMLID_00000039820268588338137430000001376671401095409338_" style="fill:#FFBDA7;" d="M279.286,105.127
								c-2.501,0.368-4.431-0.941-5.872-2.659c-3.199-3.812-3.363-7.57-1.706-10.004c1.362-1.999,4.571-3.185,6.73-1.711
								c2.309,1.576,2.335,2.79,3.164,4.501c0.851,1.756,4.293,1.699,5.384-5.029c1.018-6.276,0.732-12.869,3.929-15.595
								c4.774-4.071,10.745-2.665,12.485-0.083c1.996-2.867,5.508-3.606,8.592-1.794c3.024,1.777,5.299,6.603,5.915,18.61
								c0.628,12.24-2.535,19.738-5.411,21.68c-2.181,1.473-4.586,2.081-9.171,2.109l0.164,5.382c0,0,7.477,16.603,7.052,27.057
								c0,0-3.807-6.63-15.182-16.575c-7.577-6.625-12.361-10.802-12.361-10.802l-0.643-16.887
								C282.356,103.326,281.663,104.777,279.286,105.127z"/>
						</g>
						<g>
							<g id="XMLID_00000132806568289174791920000008353576167386360225_">
								<path id="XMLID_00000102540173358803030220000015084432600951680665_" style="fill:#263238;" d="M314.711,85.47
									l-4.498-1.725c0.433-1.27,1.791-1.914,3.033-1.437C314.488,82.785,315.144,84.201,314.711,85.47z"/>
							</g>
							<g id="XMLID_00000163035532008230791000000017443654401373237919_">
								<path id="XMLID_00000002382057947176318560000008822100592028954510_" style="fill:#263238;" d="M298.009,83.716
									l-4.455,2.593c-0.768-1.213-0.394-2.777,0.837-3.493C295.621,82.101,297.241,82.504,298.009,83.716z"/>
							</g>
							<path style="fill:#37474F;" d="M292.021,75.444c-1.081,1.37-1.87,2.749-1.706,7.668c0.069,2.05-0.086,6.827-1.459,9.677
								c-1.201,2.492-2.447,3.974-5.102,4.438c-1.328,0.232-3.569,0.083-4.792-0.484c-0.941-0.436-3.587-2.3-3.265-5.036
								c0.423,0.473,1.194,1.073,1.94,1.368c0.563,0.223,1.154,0.388,1.758,0.421c1.799,0.099,3.512-1.014,4.52-2.507
								c1.785-2.644,1.666-6.21,2.212-9.243c0.693-3.855,1.363-8.228,4.842-10.139c4.112-2.258,11.539-1.255,12.431,2.941
								C300.59,71.865,294.805,71.915,292.021,75.444z"/>
							<g id="XMLID_00000034076105674835076910000007209991122286044816_">
								<path id="XMLID_00000147210807670247410790000012654620595229315754_" style="fill:#B16668;" d="M298.201,101.712
									l6.727,1.862c-0.448,1.892-2.508,2.995-4.618,2.327C298.472,105.319,297.753,103.603,298.201,101.712z"/>
								<path style="fill:#F0997A;" d="M302.232,106.019c-0.288-1.841-1.912-3.207-3.812-3.103
									c-0.116,0.007-0.224,0.036-0.336,0.053c0.065,1.358,0.81,2.483,2.226,2.931
									C300.974,106.111,301.626,106.129,302.232,106.019z"/>
							</g>
							<g id="XMLID_00000080919845993474388980000011868643870459280544_">
								<polygon id="XMLID_00000155122679893283338090000009563164043948743810_" style="fill:#F0997A;" points="303.401,87.037 
									304.82,99.019 311.319,96.49 								"/>
							</g>
							<g id="XMLID_00000021114009200706534750000003370076842458384557_">
								<path id="XMLID_00000051363178334865591710000016028533454991830409_" style="fill:#F0997A;" d="M303.326,115.152
									c-4.234-0.441-8.693-1.065-12.929-2.92c-1.498-0.656-3.499-3.416-5.124-6.484c0,0,1.102,6.021,4.335,8.123
									c4.915,3.195,13.793,3.954,13.793,3.954L303.326,115.152z"/>
							</g>
							<g>
								<path id="XMLID_00000157275557453956382970000005809973985501889700_" style="fill:#263238;" d="M313.588,89.051
									c0.352,0.979-0.331,1.311-1.274,1.647c-0.944,0.337-1.791,0.551-2.143-0.428c-0.352-0.979,0.127-2.046,1.071-2.383
									C312.185,87.55,313.236,88.072,313.588,89.051z"/>
								<path style="fill:#263238;" d="M310.348,88.256c0.41-0.25,0.893-0.397,1.358-0.507c0.456-0.108,0.94-0.153,1.404-0.09
									c0.78,0.106,1.198,0.287,1.438,0.404c0.031,0.015,0.065,0.121,0.008,0.115c-0.386-0.04-0.725-0.1-1.282-0.112
									c-0.47-0.01-1.119,0.091-1.573,0.207c-0.714,0.183-0.99,0.279-1.779,0.685c-0.184,0.095-0.541,0.296-0.575,0.323
									c-0.052,0.041-0.098-0.1-0.072-0.145C309.5,88.762,309.983,88.479,310.348,88.256z"/>
							</g>
							<g>
								<path id="XMLID_00000147189460678378469050000013756664802904983694_" style="fill:#263238;" d="M295.29,89.71
									c-0.216,1.018,0.506,1.254,1.486,1.459c0.981,0.206,1.849,0.303,2.065-0.715c0.216-1.018-0.403-2.01-1.384-2.216
									C296.477,88.033,295.507,88.692,295.29,89.71z"/>
								<path style="fill:#263238;" d="M298.393,88.483c-0.44-0.192-0.939-0.272-1.415-0.318c-0.467-0.046-0.952-0.024-1.403,0.102
									c-0.758,0.211-1.148,0.447-1.37,0.595c-0.029,0.02-0.048,0.129,0.008,0.115c0.377-0.092,0.705-0.197,1.255-0.284
									c0.464-0.074,1.122-0.062,1.587-0.008c0.733,0.084,1.019,0.142,1.855,0.438c0.195,0.069,0.576,0.219,0.614,0.242
									c0.057,0.034,0.084-0.113,0.052-0.153C299.302,88.869,298.785,88.655,298.393,88.483z"/>
							</g>
						</g>
					</g>
				</g>
			</g>
			<g>
				<path style="fill:#263238;" d="M356.633,230.064h-1.577c-10.751,0-19.497-8.747-19.497-19.498V195.39
					c0-0.307,0.248-0.555,0.555-0.555s0.555,0.248,0.555,0.555v15.176c0,10.14,8.248,18.389,18.388,18.389h1.577
					c10.14,0,18.388-8.249,18.388-18.389v-68.581c0-7.724,3.197-15.219,8.772-20.565l0.617-0.592
					c0.221-0.211,0.571-0.203,0.784,0.017c0.212,0.221,0.204,0.572-0.017,0.784l-0.617,0.592
					c-5.358,5.138-8.431,12.342-8.431,19.765v68.581C376.13,221.317,367.384,230.064,356.633,230.064z"/>
			</g>
		</g>
	</g>
</g>
<g id="Speech_Bubble">
	<g id="Speech_Bubble_00000139267666713406729800000017027091177916602761_">
		<path style="fill:#FFFFFF;" d="M423.611,46.246V76.88c0,2.607-2.116,4.723-4.723,4.723h-26.813c-0.582,0-1.073,0.421-1.163,0.993
			c-0.943,6.187-6.227,12.755-15.713,13.788c3.209-3.82,4.212-8.654,2.838-13.908c-0.14-0.511-0.602-0.872-1.133-0.872h-27.485
			c-2.597,0-4.713-2.116-4.713-4.723V46.246c0-2.607,2.116-4.723,4.713-4.723h69.47C421.495,41.523,423.611,43.639,423.611,46.246z"
			/>
		<path style="fill:#455A64;" d="M418.888,39.176h-69.47c-3.891,0-7.059,3.169-7.059,7.069v3.365
			c-0.07-0.009-0.138-0.021-0.211-0.021h-4.855c-0.875,0-1.584,0.709-1.584,1.584V71.95c0,0.875,0.709,1.584,1.584,1.584h4.855
			c0.072,0,0.141-0.012,0.211-0.021v3.366c0,3.901,3.168,7.069,7.059,7.069h26.553c1.063,5.104-0.491,9.526-4.512,12.835
			c-0.381,0.321-0.521,0.832-0.361,1.304c0.161,0.461,0.602,0.772,1.093,0.782h0.371c11.993,0,18.891-7.521,20.496-14.921h25.831
			c3.901,0,7.069-3.169,7.069-7.069V46.246C425.957,42.345,422.789,39.176,418.888,39.176z M423.611,76.88
			c0,2.607-2.116,4.723-4.723,4.723h-26.813c-0.582,0-1.073,0.421-1.163,0.993c-0.942,6.187-6.227,12.755-15.713,13.788
			c3.209-3.82,4.212-8.654,2.838-13.908c-0.14-0.511-0.602-0.872-1.133-0.872h-27.485c-2.597,0-4.713-2.116-4.713-4.723V46.246
			c0-2.607,2.116-4.723,4.713-4.723h69.47c2.607,0,4.723,2.116,4.723,4.723V76.88z"/>
		<path style="fill:#BA68C8;" d="M379.236,44.939V62.26l-26.934-6.647l36.054,23.124v-0.025l0.015,0.025V61.416l28.426,8.17
			L379.25,44.939v0.025L379.236,44.939z"/>
	</g>
</g>
</svg>
