<svg xmlns="http://www.w3.org/2000/svg" viewBox="0 0 500 500"><g id="freepik--Floor--inject-144"><path id="freepik--floor--inject-144" d="M77.66,458.87c-95.17-45.19-95.17-118.46,0-163.65s249.5-45.19,344.68,0,95.17,118.46,0,163.65S172.84,504.06,77.66,458.87Z" style="fill:#f5f5f5"></path></g><g id="freepik--Windows--inject-144"><g id="freepik--Window--inject-144"><g id="freepik--window--inject-144"><g id="freepik--Frame--inject-144"><polygon points="28.19 279.06 30.9 280.67 120.25 229.08 117.55 227.47 28.19 279.06" style="fill:#fafafa"></polygon><polygon points="117.55 227.47 30.9 277.49 30.9 82.34 117.55 32.34 117.55 227.47" style="fill:#fff"></polygon><path d="M125.36,21.9,25.79,79.39V289.52L125.36,232Zm-5.11,207.18L30.9,280.67V82.34l89.35-51.59Z" style="fill:#f0f0f0"></path><polygon points="120.25 229.08 117.55 227.47 117.55 32.34 120.25 30.75 120.25 229.08" style="fill:#e0e0e0"></polygon><polygon points="30.9 214.15 30.9 217.32 120.25 165.74 117.55 164.12 30.9 214.15" style="fill:#fafafa"></polygon><polygon points="30.9 136.63 30.9 139.81 120.25 88.22 117.55 86.6 30.9 136.63" style="fill:#fafafa"></polygon><polygon points="125.36 21.9 122.61 20.33 23.04 77.82 25.79 79.39 125.36 21.9" style="fill:#fafafa"></polygon><polygon points="23.04 77.82 25.79 79.39 25.79 289.52 23.04 287.94 23.04 77.82" style="fill:#e0e0e0"></polygon><polygon points="70.28 59.6 73.03 58.01 73.03 256.36 70.28 254.78 70.28 59.6" style="fill:#e0e0e0"></polygon></g><polygon points="78.14 55.08 73.03 58.01 73.03 256.36 78.14 253.4 78.14 55.08" style="fill:#f0f0f0"></polygon><polygon points="125.36 85.27 125.36 91.16 25.79 148.65 25.79 142.76 125.36 85.27" style="fill:#f0f0f0"></polygon><polygon points="125.36 162.77 125.36 168.66 25.79 226.15 25.79 220.26 125.36 162.77" style="fill:#f0f0f0"></polygon><polygon points="73.03 115.48 70.28 113.89 30.9 136.63 30.9 139.81 73.03 115.48" style="fill:#fafafa"></polygon><polygon points="73.03 192.97 70.28 191.38 30.9 214.12 30.9 217.29 73.03 192.97" style="fill:#fafafa"></polygon></g></g></g><g id="freepik--Pictures--inject-144"><g id="freepik--Picture--inject-144"><g id="freepik--frame--inject-144"><polygon points="464.12 89.23 462.25 90.34 423.74 68.11 425.62 67 464.12 89.23" style="fill:#fafafa"></polygon><polygon points="425.62 67 462.25 88.14 462.25 49.78 425.62 28.65 425.62 67" style="fill:#fff"></polygon><path d="M420.2,70.16l45.59,26.32V47.74L420.2,21.42Zm3.54-42.61,38.5,22.23V90.34L423.74,68.11Z" style="fill:#f0f0f0"></path><polygon points="423.74 68.11 425.62 67 425.62 28.65 423.74 27.55 423.74 68.11" style="fill:#e0e0e0"></polygon><polygon points="420.2 21.42 422.11 20.33 467.69 46.65 465.79 47.74 420.2 21.42" style="fill:#fafafa"></polygon><polygon points="467.69 46.65 465.79 47.74 465.79 96.48 467.69 95.39 467.69 46.65" style="fill:#e0e0e0"></polygon></g><g id="freepik--Land--inject-144"><polygon points="427.05 65.85 460.81 85.34 460.81 75.6 452.37 56.1 447.11 60.98 449 69.15 437.35 44.21 427.05 56.1 427.05 65.85" style="fill:#f0f0f0"></polygon><path d="M447.43,46.69a5.51,5.51,0,0,1,2.5,4.32c0,1.6-1.12,2.24-2.5,1.45a5.54,5.54,0,0,1-2.5-4.33C444.93,46.54,446.05,45.89,447.43,46.69Z" style="fill:#f0f0f0"></path></g></g><g id="freepik--picture--inject-144"><g id="freepik--frame--inject-144"><polygon points="464.12 156.58 462.25 157.7 423.74 135.47 425.62 134.35 464.12 156.58" style="fill:#fafafa"></polygon><polygon points="425.62 134.35 462.25 155.49 462.25 117.14 425.62 96.01 425.62 134.35" style="fill:#fff"></polygon><path d="M420.2,137.51l45.59,26.32V115.09L420.2,88.77Zm3.54-42.6,38.5,22.23V157.7l-38.51-22.23Z" style="fill:#f0f0f0"></path><polygon points="423.74 135.47 425.62 134.35 425.62 96.01 423.74 94.91 423.74 135.47" style="fill:#e0e0e0"></polygon><polygon points="420.2 88.77 422.11 87.68 467.69 114 465.79 115.09 420.2 88.77" style="fill:#fafafa"></polygon><polygon points="467.69 114 465.79 115.09 465.79 163.83 467.69 162.74 467.69 114" style="fill:#e0e0e0"></polygon></g><g id="freepik--land--inject-144"><polygon points="427.05 133.2 460.81 152.7 460.81 142.95 452.37 123.45 447.11 128.33 449 136.5 437.35 111.56 427.05 123.45 427.05 133.2" style="fill:#f0f0f0"></polygon><path d="M447.43,114a5.52,5.52,0,0,1,2.5,4.33c0,1.59-1.12,2.24-2.5,1.44a5.52,5.52,0,0,1-2.5-4.33C444.93,113.89,446.05,113.25,447.43,114Z" style="fill:#f0f0f0"></path></g></g><g id="freepik--picture--inject-144"><g id="freepik--frame--inject-144"><polygon points="140.46 89.23 142.33 90.34 180.84 68.11 178.96 67 140.46 89.23" style="fill:#fafafa"></polygon><polygon points="178.96 67 142.33 88.14 142.33 49.78 178.96 28.65 178.96 67" style="fill:#fff"></polygon><path d="M184.38,21.42,138.79,47.74V96.48l45.59-26.32Zm-3.54,46.69L142.33,90.34V49.78l38.51-22.23Z" style="fill:#f0f0f0"></path><polygon points="180.84 68.11 178.96 67 178.96 28.65 180.84 27.55 180.84 68.11" style="fill:#e0e0e0"></polygon><polygon points="184.38 21.42 182.47 20.33 136.89 46.65 138.79 47.74 184.38 21.42" style="fill:#fafafa"></polygon><polygon points="136.89 46.65 138.79 47.74 138.79 96.48 136.89 95.39 136.89 46.65" style="fill:#e0e0e0"></polygon></g><g id="freepik--land--inject-144"><polygon points="177.53 65.85 143.76 85.34 143.76 75.6 152.21 56.1 157.46 60.98 155.57 69.15 167.23 44.21 177.53 56.1 177.53 65.85" style="fill:#f0f0f0"></polygon><path d="M157.15,46.69a5.51,5.51,0,0,0-2.5,4.32c0,1.6,1.12,2.24,2.5,1.45a5.53,5.53,0,0,0,2.49-4.33C159.64,46.54,158.53,45.89,157.15,46.69Z" style="fill:#f0f0f0"></path></g></g><g id="freepik--picture--inject-144"><g id="freepik--frame--inject-144"><polygon points="140.46 156.58 142.33 157.7 180.84 135.47 178.96 134.35 140.46 156.58" style="fill:#fafafa"></polygon><polygon points="178.96 134.35 142.33 155.49 142.33 117.14 178.96 96.01 178.96 134.35" style="fill:#fff"></polygon><path d="M184.38,88.77l-45.59,26.32v48.74l45.59-26.32Zm-3.54,46.7L142.33,157.7V117.14l38.51-22.23Z" style="fill:#f0f0f0"></path><polygon points="180.84 135.47 178.96 134.35 178.96 96.01 180.84 94.91 180.84 135.47" style="fill:#e0e0e0"></polygon><polygon points="184.38 88.77 182.47 87.68 136.89 114 138.79 115.09 184.38 88.77" style="fill:#fafafa"></polygon><polygon points="136.89 114 138.79 115.09 138.79 163.83 136.89 162.74 136.89 114" style="fill:#e0e0e0"></polygon></g><g id="freepik--land--inject-144"><polygon points="177.53 133.2 143.76 152.7 143.76 142.95 152.21 123.45 157.46 128.33 155.57 136.5 167.23 111.56 177.53 123.45 177.53 133.2" style="fill:#f0f0f0"></polygon><path d="M157.15,114a5.52,5.52,0,0,0-2.5,4.33c0,1.59,1.12,2.24,2.5,1.44a5.51,5.51,0,0,0,2.49-4.33C159.64,113.89,158.53,113.25,157.15,114Z" style="fill:#f0f0f0"></path></g></g></g><g id="freepik--Shadows--inject-144"><ellipse id="freepik--Shadow--inject-144" cx="63.25" cy="428.17" rx="32.07" ry="18.52" style="fill:#e0e0e0"></ellipse><ellipse id="freepik--shadow--inject-144" cx="300.4" cy="409.66" rx="70.31" ry="40.6" style="fill:#e0e0e0"></ellipse><path id="freepik--shadow--inject-144" d="M425.29,437.15l54.26-31.27c1.26-.73,1.26-1.91,0-2.65L367.63,338.42a5.07,5.07,0,0,0-4.57,0L308.8,369.68c-1.26.73-1.26,1.91,0,2.65l111.93,64.81A5,5,0,0,0,425.29,437.15Z" style="fill:#e0e0e0"></path><path id="freepik--shadow--inject-144" d="M110.05,461.63a5.87,5.87,0,0,1-5.26,0L75.16,444.5c-1.45-.84-1.45-2.2,0-3l141.56-81.74a5.8,5.8,0,0,1,5.26,0l29.63,17.12c1.45.84,1.46,2.21,0,3.06Z" style="fill:#e0e0e0"></path></g><g id="freepik--Furniture--inject-144"><g id="freepik--Drawer--inject-144"><g id="freepik--drawer--inject-144"><polygon points="413.82 406.9 418.48 430.02 423.01 432.63 427.5 430.04 432.19 406.9 423 401.6 413.82 406.9" style="fill:#e0e0e0"></polygon><polygon points="413.82 406.9 418.48 430.02 423.01 432.63 427.5 430.04 432.19 406.9 423 401.6 413.82 406.9" style="opacity:0.05"></polygon><polygon points="423.01 432.63 423 412.21 413.82 406.9 418.48 430.02 423.01 432.63" style="fill:#ebebeb"></polygon><polygon points="413.82 406.9 416.83 421.83 423.01 425.4 429.16 421.85 432.19 406.9 423 401.6 413.82 406.9" style="opacity:0.05"></polygon><polygon points="454.22 383.57 458.88 406.69 463.41 409.31 467.9 406.71 472.6 383.57 463.41 378.27 454.22 383.57" style="fill:#e0e0e0"></polygon><polygon points="454.22 383.57 458.88 406.69 463.41 409.31 467.9 406.71 472.6 383.57 463.41 378.27 454.22 383.57" style="opacity:0.05"></polygon><polygon points="463.41 409.31 463.41 388.88 454.22 383.57 458.88 406.69 463.41 409.31" style="fill:#ebebeb"></polygon><polygon points="454.22 383.57 457.23 398.5 463.41 402.07 469.57 398.52 472.6 383.57 463.41 378.27 454.22 383.57" style="opacity:0.05"></polygon><polygon points="314.75 349.78 319.41 372.89 323.94 375.51 328.43 372.92 333.13 349.78 323.94 344.47 314.75 349.78" style="fill:#e0e0e0"></polygon><polygon points="314.75 349.78 319.41 372.89 323.94 375.51 328.43 372.92 333.13 349.78 323.94 344.47 314.75 349.78" style="opacity:0.05"></polygon><polygon points="323.94 375.51 323.94 355.08 314.75 349.78 319.41 372.89 323.94 375.51" style="fill:#ebebeb"></polygon><polygon points="314.75 349.78 317.76 364.7 323.94 368.27 330.09 364.72 333.13 349.78 323.94 344.47 314.75 349.78" style="opacity:0.05"></polygon><g id="freepik--Cabinet--inject-144"><g id="freepik--cabinet--inject-144"><polygon points="423.01 421.67 473.08 392.76 473.08 284.38 423.01 313.29 423.01 421.67" style="fill:#e0e0e0"></polygon><polygon points="423.01 313.29 312.14 249.36 312.14 357.74 423.01 421.67 423.01 313.29" style="fill:#ebebeb"></polygon><polygon points="312.14 249.36 423.01 313.29 473.08 284.38 362.22 220.44 312.14 249.36" style="fill:#f5f5f5"></polygon><polygon points="415.85 366.98 319.3 311.31 319.3 351.08 317.98 351.84 414.54 407.51 415.86 406.75 415.85 366.98" style="fill:#e0e0e0"></polygon><polygon points="414.54 367.74 317.98 312.06 317.98 351.84 414.54 407.51 414.54 367.74" style="fill:#f5f5f5"></polygon><path d="M371.79,352.21l-9.74-5.62c-1.26-.73-2.28-.4-2.28.75a4.57,4.57,0,0,0,2.28,3.38l9.74,5.62c1.26.73,2.28.4,2.28-.74A4.59,4.59,0,0,0,371.79,352.21Z" style="fill:#e0e0e0"></path><polygon points="415.86 318.95 319.3 263.28 319.3 303.05 317.98 303.81 414.54 359.49 415.86 358.73 415.86 318.95" style="fill:#e0e0e0"></polygon><polygon points="414.54 319.71 317.98 264.04 317.98 303.81 414.54 359.49 414.54 319.71" style="fill:#f5f5f5"></polygon><path d="M371.79,304.18l-9.73-5.61c-1.27-.73-2.29-.4-2.29.74a4.57,4.57,0,0,0,2.29,3.39l9.73,5.61c1.26.73,2.29.4,2.29-.74A4.63,4.63,0,0,0,371.79,304.18Z" style="fill:#e0e0e0"></path></g></g></g><g id="freepik--picture--inject-144"><g id="freepik--frame--inject-144"><path d="M378.44,257.58l41.21,23.8,17.5-10.11-41.21-23.79Z" style="opacity:0.05"></path><polygon points="419.45 273.04 417.76 273.85 386.54 255.82 388.23 255.01 419.45 273.04" style="fill:#fafafa"></polygon><polygon points="388.23 255.01 417.93 272.15 422.25 227.72 392.54 210.59 388.23 255.01" style="fill:#fff"></polygon><path d="M383.36,257.3l37,21.34,5.1-52.4-37-21.34ZM391,209.7l31.23,18-4.49,46.13-31.22-18Z" style="fill:#f0f0f0"></path><polygon points="386.54 255.82 388.23 255.01 392.54 210.59 391.02 209.7 386.54 255.82" style="fill:#e0e0e0"></polygon><polygon points="388.46 204.9 390.17 204.11 427.13 225.45 425.43 226.24 388.46 204.9" style="fill:#fafafa"></polygon><polygon points="427.13 225.45 425.43 226.24 420.33 278.64 422.04 277.85 427.13 225.45" style="fill:#e0e0e0"></polygon></g><g id="freepik--land--inject-144"><polygon points="389.53 254.16 416.92 269.97 417.64 262.49 412.55 240.5 407.69 248 408.7 254.32 400.6 231 390.26 246.68 389.53 254.16" style="fill:#f0f0f0"></polygon><path d="M413,231.24a3.86,3.86,0,0,1,1.81,3.39c-.12,1.22-1.12,1.69-2.24,1a3.84,3.84,0,0,1-1.81-3.38C410.85,231.06,411.85,230.6,413,231.24Z" style="fill:#f0f0f0"></path></g></g><g id="freepik--Pot--inject-144"><path id="freepik--shadow--inject-144" d="M438.27,278.51c-4.82,2.79-4.82,7.3,0,10.09s12.65,2.78,17.48,0,4.82-7.3,0-10.09S443.1,275.72,438.27,278.51Z" style="opacity:0.05"></path><path d="M454.86,285.54c4.21-4.29,6.68-15,2.58-18.4H436.58c-4.09,3.4-1.63,14.1,2.57,18.39l.12.12.14.14c.12.12.25.23.38.34l.1.08.32.24c.18.13.36.24.54.35a13.87,13.87,0,0,0,12.52,0h0l.55-.35.29-.23.13-.09.36-.33.17-.16Z" style="fill:#f5f5f5"></path><path d="M438.39,265.51c-4.75,2.75-4.75,7.2,0,9.95s12.48,2.75,17.23,0,4.76-7.2,0-9.95S443.15,262.77,438.39,265.51Z" style="fill:#fff"></path><path d="M441.77,267.46c-2.9,1.67-2.9,4.38,0,6.05a11.59,11.59,0,0,0,10.48,0c2.9-1.67,2.9-4.38,0-6.05A11.59,11.59,0,0,0,441.77,267.46Z" style="fill:#ebebeb"></path><path d="M452.25,270.33a11.59,11.59,0,0,0-10.48,0,4.85,4.85,0,0,0-1.74,1.59,4.77,4.77,0,0,0,1.74,1.59,11.59,11.59,0,0,0,10.48,0,4.77,4.77,0,0,0,1.74-1.59A4.85,4.85,0,0,0,452.25,270.33Z" style="fill:#e0e0e0"></path><path d="M442.41,271.92a23.63,23.63,0,0,1-3.79-5c-1.76-3.09-2.08-7.24-1.17-7.75s4.59,3.62,4.59,3.62a22,22,0,0,1-.39-5.28c.15-2.76.83-5.27,1.61-5.77s2.56,3,3.32,5.49,1.21,4.6,1.21,4.6a39.45,39.45,0,0,1,1.36-5.81c.92-2.61,1.75-3.2,2.4-2.95s1.07,1.48,1.26,5a34.63,34.63,0,0,1-.16,5s1.3-1.43,2.74-2.82c1.59-1.52,2.27-1.73,2.72-1.44s.58,2.66-1.88,7.1a24.67,24.67,0,0,1-4.63,6.09S448.21,274.11,442.41,271.92Z" style="fill:#ebebeb"></path></g></g></g><g id="freepik--Outlets--inject-144"><g id="freepik--Oulet--inject-144"><polygon points="433.46 169.47 449.7 178.85 449.7 214.13 433.46 204.75 433.46 169.47" style="fill:#2D3D6C"></polygon><polygon points="433.46 169.47 449.7 178.85 449.7 214.13 433.46 204.75 433.46 169.47" style="fill:#fff;opacity:0.4"></polygon><polygon points="449.7 214.13 451.34 213.19 451.34 177.91 449.7 178.85 449.7 214.13" style="fill:#2D3D6C"></polygon><polygon points="451.34 177.91 435.09 168.53 433.46 169.47 449.7 178.85 451.34 177.91" style="fill:#2D3D6C"></polygon><polygon points="451.34 177.91 435.09 168.53 433.46 169.47 449.7 178.85 451.34 177.91" style="fill:#fff;opacity:0.6000000000000001"></polygon><path d="M442.79,200.42l1.16.66v-3.87l-1.16-.67Zm2.13-20.17-6.68-3.86c-.73-.42-1.32,0-1.32,1v8.16a3.16,3.16,0,0,0,1.32,2.52l6.68,3.85c.73.42,1.32,0,1.32-1v-8.16A3.16,3.16,0,0,0,444.92,180.25Zm.93,10.46c0,.68-.42,1-.93.7l-6.68-3.86a2.24,2.24,0,0,1-.93-1.78v-8.16c0-.68.42-1,.93-.7l6.68,3.86a2.22,2.22,0,0,1,.93,1.77Zm-4.27,10.9c-.41-.24-.75,0-.75.57a1.77,1.77,0,0,0,.75,1.42c.41.24.75,0,.75-.56A1.81,1.81,0,0,0,441.58,201.61Zm-2.37-2.93,1.16.67v-4.48l-1.16-.67Zm2.37-12.35c-.41-.24-.75,0-.75.56a1.81,1.81,0,0,0,.75,1.43c.41.24.75,0,.75-.57A1.79,1.79,0,0,0,441.58,186.33Zm3.34,9.2-6.68-3.85c-.73-.42-1.32,0-1.32,1v8.17a3.15,3.15,0,0,0,1.32,2.51l6.68,3.86c.73.42,1.32,0,1.32-1v-8.16A3.16,3.16,0,0,0,444.92,195.53Zm.93,10.46c0,.68-.42,1-.93.7l-6.68-3.85a2.26,2.26,0,0,1-.93-1.78V192.9c0-.69.42-1,.93-.71l6.68,3.86a2.24,2.24,0,0,1,.93,1.78Zm-3.06-20.86,1.16.67v-3.88l-1.16-.67Zm-3.58-1.73,1.16.66v-4.48l-1.16-.66Z" style="fill:#2D3D6C"></path><path d="M442.79,200.42l1.16.66v-3.87l-1.16-.67Zm2.13-20.17-6.68-3.86c-.73-.42-1.32,0-1.32,1v8.16a3.16,3.16,0,0,0,1.32,2.52l6.68,3.85c.73.42,1.32,0,1.32-1v-8.16A3.16,3.16,0,0,0,444.92,180.25Zm.93,10.46c0,.68-.42,1-.93.7l-6.68-3.86a2.24,2.24,0,0,1-.93-1.78v-8.16c0-.68.42-1,.93-.7l6.68,3.86a2.22,2.22,0,0,1,.93,1.77Zm-4.27,10.9c-.41-.24-.75,0-.75.57a1.77,1.77,0,0,0,.75,1.42c.41.24.75,0,.75-.56A1.81,1.81,0,0,0,441.58,201.61Zm-2.37-2.93,1.16.67v-4.48l-1.16-.67Zm2.37-12.35c-.41-.24-.75,0-.75.56a1.81,1.81,0,0,0,.75,1.43c.41.24.75,0,.75-.57A1.79,1.79,0,0,0,441.58,186.33Zm3.34,9.2-6.68-3.85c-.73-.42-1.32,0-1.32,1v8.17a3.15,3.15,0,0,0,1.32,2.51l6.68,3.86c.73.42,1.32,0,1.32-1v-8.16A3.16,3.16,0,0,0,444.92,195.53Zm.93,10.46c0,.68-.42,1-.93.7l-6.68-3.85a2.26,2.26,0,0,1-.93-1.78V192.9c0-.69.42-1,.93-.71l6.68,3.86a2.24,2.24,0,0,1,.93,1.78Zm-3.06-20.86,1.16.67v-3.88l-1.16-.67Zm-3.58-1.73,1.16.66v-4.48l-1.16-.66Z" style="opacity:0.2"></path></g></g><g id="freepik--Plants--inject-144"><g id="freepik--Plant--inject-144"><g id="freepik--plant--inject-144"><g id="freepik--pot--inject-144"><path d="M47.43,429.49C39,420.76,34,398.08,42.26,391.15h42c8.25,6.93,3.28,29.6-5.17,38.33l-.23.24-.3.29c-.24.24-.49.46-.76.69l-.2.16-.64.49a10.13,10.13,0,0,1-1.1.7c-7,4.07-18.24,4.07-25.2,0h0a10.24,10.24,0,0,1-1.1-.71l-.6-.45-.25-.2c-.26-.22-.5-.44-.73-.66s-.23-.22-.34-.34Z" style="fill:#37474f"></path><path d="M80.6,388.37c9.58,5.59,9.58,14.66,0,20.25s-25.12,5.6-34.7,0-9.58-14.66,0-20.25S71,382.77,80.6,388.37Z" style="fill:#455a64"></path><path d="M76,391.06c7,4.1,7,10.76,0,14.87s-18.44,4.11-25.48,0-7-10.77,0-14.87S69,387,76,391.06Z" style="fill:#263238"></path><path d="M50.51,398.12c7-4.11,18.45-4.11,25.48,0a11.75,11.75,0,0,1,4.22,3.9A11.68,11.68,0,0,1,76,405.93c-7,4.11-18.44,4.11-25.48,0A11.72,11.72,0,0,1,46.3,402,11.79,11.79,0,0,1,50.51,398.12Z" style="fill:#fafafa"></path></g><path d="M60.43,342.12c-3.22,3.48-12.16,4.44-15.87-5-3.47-8.83-7.22-17.21-8.29-20.45a3.34,3.34,0,0,1,2.14-4.32s.25-4.85,8.48-1.56,14,8.28,17.62,16.36S65.93,341,60.43,342.12Z" style="fill:#2D3D6C"></path><path d="M60.43,342.12c-3.22,3.48-12.16,4.44-15.87-5-3.47-8.83-7.22-17.21-8.29-20.45a3.34,3.34,0,0,1,2.14-4.32s.25-4.85,8.48-1.56,14,8.28,17.62,16.36S65.93,341,60.43,342.12Z" style="fill:#fff;opacity:0.45"></path><path d="M64,354.57a45.39,45.39,0,0,0-.72-4.91,67.92,67.92,0,0,0-2.72-9.48A70,70,0,0,0,51,322.58a60.53,60.53,0,0,0-7.49-8.5c-.09-.08-.15.11-.09.17a74.85,74.85,0,0,1,11.73,16.22A75.37,75.37,0,0,1,62,348.85c.4,1.79.79,3.59,1.12,5.4s.52,3.69.83,5.52c0,.19.32.3.33.05A34.18,34.18,0,0,0,64,354.57Z" style="fill:#2D3D6C"></path><path d="M64,354.57a45.39,45.39,0,0,0-.72-4.91,67.92,67.92,0,0,0-2.72-9.48A70,70,0,0,0,51,322.58a60.53,60.53,0,0,0-7.49-8.5c-.09-.08-.15.11-.09.17a74.85,74.85,0,0,1,11.73,16.22A75.37,75.37,0,0,1,62,348.85c.4,1.79.79,3.59,1.12,5.4s.52,3.69.83,5.52c0,.19.32.3.33.05A34.18,34.18,0,0,0,64,354.57Z" style="opacity:0.30000000000000004"></path><path d="M66.74,339.67c-7.39,2.29-12.88-3.48-11-12.52s11.4-19.09,15-16.39c2.24-2.24,7.18-1.44,9.5,5.91S80.46,342.88,66.74,339.67Z" style="fill:#2D3D6C"></path><path d="M66.74,339.67c-7.39,2.29-12.88-3.48-11-12.52s11.4-19.09,15-16.39c2.24-2.24,7.18-1.44,9.5,5.91S80.46,342.88,66.74,339.67Z" style="fill:#fff;opacity:0.25"></path><path d="M71.07,316.26a98.79,98.79,0,0,0-4.91,16.25,158.19,158.19,0,0,0-2.85,17,263.4,263.4,0,0,0-1.48,33.35q0,4.61.12,9.23c.06,3.16,0,6.37.28,9.52.1,1.21,1.82.89,1.85-.22.1-5.54-.2-11.1-.26-16.64s0-11,.11-16.44a230.74,230.74,0,0,1,3-33.3c.53-3.07,1.11-6.13,1.82-9.16.76-3.18,1.68-6.32,2.52-9.49C71.29,316.26,71.14,316.09,71.07,316.26Z" style="fill:#2D3D6C"></path><path d="M71.07,316.26a98.79,98.79,0,0,0-4.91,16.25,158.19,158.19,0,0,0-2.85,17,263.4,263.4,0,0,0-1.48,33.35q0,4.61.12,9.23c.06,3.16,0,6.37.28,9.52.1,1.21,1.82.89,1.85-.22.1-5.54-.2-11.1-.26-16.64s0-11,.11-16.44a230.74,230.74,0,0,1,3-33.3c.53-3.07,1.11-6.13,1.82-9.16.76-3.18,1.68-6.32,2.52-9.49C71.29,316.26,71.14,316.09,71.07,316.26Z" style="opacity:0.30000000000000004"></path><path d="M54.71,366.2c-3.23,3.65-10.62,3.33-15.59-3.19s-7.94-31-.95-29.48c1.47-3.28,20.77,4.58,23.24,20.59C63.21,365.75,54.71,366.2,54.71,366.2Z" style="fill:#2D3D6C"></path><path d="M54.71,366.2c-3.23,3.65-10.62,3.33-15.59-3.19s-7.94-31-.95-29.48c1.47-3.28,20.77,4.58,23.24,20.59C63.21,365.75,54.71,366.2,54.71,366.2Z" style="fill:#fff;opacity:0.25"></path><path d="M60.48,377.79a34.32,34.32,0,0,0-.95-4.48q-1.22-4.5-2.87-8.87A93.56,93.56,0,0,0,48,347.52a84.24,84.24,0,0,0-6.12-8.64c-.06-.08-.12.09-.08.14,1.72,2.52,3.47,5,5,7.63s3,5.54,4.37,8.41a116.75,116.75,0,0,1,6.37,17.07c.47,1.66.86,3.34,1.35,5s1.15,3.4,1.58,5.14c.06.26.39.35.35,0C60.73,380.79,60.68,379.28,60.48,377.79Z" style="fill:#2D3D6C"></path><path d="M60.48,377.79a34.32,34.32,0,0,0-.95-4.48q-1.22-4.5-2.87-8.87A93.56,93.56,0,0,0,48,347.52a84.24,84.24,0,0,0-6.12-8.64c-.06-.08-.12.09-.08.14,1.72,2.52,3.47,5,5,7.63s3,5.54,4.37,8.41a116.75,116.75,0,0,1,6.37,17.07c.47,1.66.86,3.34,1.35,5s1.15,3.4,1.58,5.14c.06.26.39.35.35,0C60.73,380.79,60.68,379.28,60.48,377.79Z" style="opacity:0.30000000000000004"></path><path d="M66.53,362.57c-4.23-1-4.44-6,.84-12.26S86,341.38,86.58,344c3,0,3,9.26-3.59,17.76S66.92,368.29,66.53,362.57Z" style="fill:#2D3D6C"></path><path d="M66.53,362.57c-4.23-1-4.44-6,.84-12.26S86,341.38,86.58,344c3,0,3,9.26-3.59,17.76S66.92,368.29,66.53,362.57Z" style="fill:#fff;opacity:0.25"></path><path d="M74.8,353.52a34.63,34.63,0,0,0-7.31,6.94,34.19,34.19,0,0,0-4.91,8.84c-.14.36.48.89.63.5a39,39,0,0,1,11.61-16.19S74.85,353.48,74.8,353.52Z" style="fill:#2D3D6C"></path><path d="M74.8,353.52a34.63,34.63,0,0,0-7.31,6.94,34.19,34.19,0,0,0-4.91,8.84c-.14.36.48.89.63.5a39,39,0,0,1,11.61-16.19S74.85,353.48,74.8,353.52Z" style="opacity:0.30000000000000004"></path><path d="M71.35,393.47c-5.85,2.37-3.34,9.34,2.37,14.63a26.18,26.18,0,0,0,17.8,6.41c3.93-.28,4.93-.82,4.93-.82s.63-6,0-9.68a18.7,18.7,0,0,0-13.78-14.85C73.54,386.69,71.35,390,71.35,393.47Z" style="fill:#2D3D6C"></path><path d="M71.35,393.47c-5.85,2.37-3.34,9.34,2.37,14.63a26.18,26.18,0,0,0,17.8,6.41c3.93-.28,4.93-.82,4.93-.82s.63-6,0-9.68a18.7,18.7,0,0,0-13.78-14.85C73.54,386.69,71.35,390,71.35,393.47Z" style="fill:#fff;opacity:0.45"></path><path d="M87.55,403.76a47.59,47.59,0,0,0-9-8.29c-3.33-2.19-7.77-4.06-11.77-2.69-1.55.53-3.95,2.07-3.66,4,0,.19.37.67.59.4a15.94,15.94,0,0,1,2.11-2.45A6.18,6.18,0,0,1,69,393.52a14.47,14.47,0,0,1,8.2,1.86c4,2.1,7.15,5.35,10.3,8.47C87.53,403.89,87.57,403.79,87.55,403.76Z" style="fill:#2D3D6C"></path><path d="M87.55,403.76a47.59,47.59,0,0,0-9-8.29c-3.33-2.19-7.77-4.06-11.77-2.69-1.55.53-3.95,2.07-3.66,4,0,.19.37.67.59.4a15.94,15.94,0,0,1,2.11-2.45A6.18,6.18,0,0,1,69,393.52a14.47,14.47,0,0,1,8.2,1.86c4,2.1,7.15,5.35,10.3,8.47C87.53,403.89,87.57,403.79,87.55,403.76Z" style="opacity:0.30000000000000004"></path><path d="M49.08,363.52c.55-2.67-3.29-9-15.29-10.27s-21,3.87-22.79,6.19-2.72,4.77-.55,5.38,9.67,1.34,14.59,3.6,14.92,9,21.75,7S52.47,366.16,49.08,363.52Z" style="fill:#2D3D6C"></path><path d="M49.08,363.52c.55-2.67-3.29-9-15.29-10.27s-21,3.87-22.79,6.19-2.72,4.77-.55,5.38,9.67,1.34,14.59,3.6,14.92,9,21.75,7S52.47,366.16,49.08,363.52Z" style="fill:#fff;opacity:0.45"></path><path d="M58.2,372.8c-5.06-10.44-18.1-13.63-28.76-13.58a42.37,42.37,0,0,0-10.39,1.35s-.05.13,0,.13a54.94,54.94,0,0,1,17.36-.18c5.65.92,11.21,2.68,15.86,6.12A21.44,21.44,0,0,1,58,373C58.1,373.25,58.3,373,58.2,372.8Z" style="fill:#2D3D6C"></path><path d="M58.2,372.8c-5.06-10.44-18.1-13.63-28.76-13.58a42.37,42.37,0,0,0-10.39,1.35s-.05.13,0,.13a54.94,54.94,0,0,1,17.36-.18c5.65.92,11.21,2.68,15.86,6.12A21.44,21.44,0,0,1,58,373C58.1,373.25,58.3,373,58.2,372.8Z" style="opacity:0.30000000000000004"></path><path d="M77,349.52c-.15,4.2,5.75,6.63,11.46,3s11.7-7.16,17-8.53,7.8-5.69,6.13-7.78-4.33-7.36-18.25-5.64-18.85,8-20.76,12.42S74.93,350.73,77,349.52Z" style="fill:#2D3D6C"></path><path d="M77,349.52c-.15,4.2,5.75,6.63,11.46,3s11.7-7.16,17-8.53,7.8-5.69,6.13-7.78-4.33-7.36-18.25-5.64-18.85,8-20.76,12.42S74.93,350.73,77,349.52Z" style="fill:#fff;opacity:0.45"></path><path d="M99.67,336.21a15.12,15.12,0,0,0-6,.62,30.22,30.22,0,0,0-5.11,1.83,28.41,28.41,0,0,0-8.7,6.3,23.25,23.25,0,0,0-2,2.37,10.18,10.18,0,0,0-1.49,2.43c-.1.28.31.73.55.45.69-.8,1.21-1.77,1.85-2.6A28.83,28.83,0,0,1,81.08,345a28.47,28.47,0,0,1,5.37-4.22,32.28,32.28,0,0,1,5.94-2.89,32.71,32.71,0,0,1,3.46-1,11.9,11.9,0,0,1,3.79-.53C99.7,336.37,99.74,336.22,99.67,336.21Z" style="fill:#2D3D6C"></path><path d="M99.67,336.21a15.12,15.12,0,0,0-6,.62,30.22,30.22,0,0,0-5.11,1.83,28.41,28.41,0,0,0-8.7,6.3,23.25,23.25,0,0,0-2,2.37,10.18,10.18,0,0,0-1.49,2.43c-.1.28.31.73.55.45.69-.8,1.21-1.77,1.85-2.6A28.83,28.83,0,0,1,81.08,345a28.47,28.47,0,0,1,5.37-4.22,32.28,32.28,0,0,1,5.94-2.89,32.71,32.71,0,0,1,3.46-1,11.9,11.9,0,0,1,3.79-.53C99.7,336.37,99.74,336.22,99.67,336.21Z" style="opacity:0.30000000000000004"></path><path d="M67,372.16c-2-2-7.24-1.5-9.75,4.27S60,388.5,60.63,390.27c2.41-1.4,4.29-.56,8.55-1.4a10.62,10.62,0,0,0,8.16-10.6C77.06,373,74.83,369.51,67,372.16Z" style="fill:#2D3D6C"></path><path d="M67,372.16c-2-2-7.24-1.5-9.75,4.27S60,388.5,60.63,390.27c2.41-1.4,4.29-.56,8.55-1.4a10.62,10.62,0,0,0,8.16-10.6C77.06,373,74.83,369.51,67,372.16Z" style="fill:#fff;opacity:0.45"></path><path d="M67,371.58a7.88,7.88,0,0,0-2.58,2.68,14.58,14.58,0,0,0-1.68,3.23,13.6,13.6,0,0,0-.73,7.33c0,.1.09,0,.09-.05a15,15,0,0,1,1.23-7.25,14.37,14.37,0,0,1,1.76-2.91,13.75,13.75,0,0,1,1.17-1.36,7.41,7.41,0,0,0,1.12-1.12C67.48,371.91,67.26,371.44,67,371.58Z" style="fill:#2D3D6C"></path><path d="M67,371.58a7.88,7.88,0,0,0-2.58,2.68,14.58,14.58,0,0,0-1.68,3.23,13.6,13.6,0,0,0-.73,7.33c0,.1.09,0,.09-.05a15,15,0,0,1,1.23-7.25,14.37,14.37,0,0,1,1.76-2.91,13.75,13.75,0,0,1,1.17-1.36,7.41,7.41,0,0,0,1.12-1.12C67.48,371.91,67.26,371.44,67,371.58Z" style="opacity:0.30000000000000004"></path><path d="M57.86,383.84c-.18-4.29-4.83-7.69-11.45-9.65a18,18,0,0,0-18.59,4.94c-4.83,5.25-7.33,9.72-5.36,11s10.72,4.47,16.45,6.25,13.22,2.33,19-1.07S63.22,386,57.86,383.84Z" style="fill:#2D3D6C"></path><path d="M57.86,383.84c-.18-4.29-4.83-7.69-11.45-9.65a18,18,0,0,0-18.59,4.94c-4.83,5.25-7.33,9.72-5.36,11s10.72,4.47,16.45,6.25,13.22,2.33,19-1.07S63.22,386,57.86,383.84Z" style="fill:#fff;opacity:0.25"></path><path d="M58.22,383.36A18,18,0,0,0,51,381.44a33.33,33.33,0,0,0-7.2.08,45.21,45.21,0,0,0-7.46,1.58c-1.27.38-2.53.79-3.78,1.25a25.45,25.45,0,0,0-3.46,1.43s-.07.16,0,.15c1.21-.26,2.39-.73,3.58-1.09s2.56-.77,3.85-1.11a49.6,49.6,0,0,1,7.35-1.39,32.65,32.65,0,0,1,7.46,0A44.86,44.86,0,0,1,58.16,384C58.62,384.15,58.48,383.51,58.22,383.36Z" style="fill:#2D3D6C"></path><path d="M58.22,383.36A18,18,0,0,0,51,381.44a33.33,33.33,0,0,0-7.2.08,45.21,45.21,0,0,0-7.46,1.58c-1.27.38-2.53.79-3.78,1.25a25.45,25.45,0,0,0-3.46,1.43s-.07.16,0,.15c1.21-.26,2.39-.73,3.58-1.09s2.56-.77,3.85-1.11a49.6,49.6,0,0,1,7.35-1.39,32.65,32.65,0,0,1,7.46,0A44.86,44.86,0,0,1,58.16,384C58.62,384.15,58.48,383.51,58.22,383.36Z" style="opacity:0.30000000000000004"></path><path d="M71.5,377.45c-4.72-3.75-3.15-12.76,13.4-13.25s28.36,3.84,27.84,9.16c2.66,2.66,1.31,10.12-12.08,12.45S68.09,387,71.5,377.45Z" style="fill:#2D3D6C"></path><path d="M71.5,377.45c-4.72-3.75-3.15-12.76,13.4-13.25s28.36,3.84,27.84,9.16c2.66,2.66,1.31,10.12-12.08,12.45S68.09,387,71.5,377.45Z" style="fill:#fff;opacity:0.25"></path><path d="M105,373.42a71.06,71.06,0,0,0-14.79-.86,56.88,56.88,0,0,0-13.64,1.57,19.55,19.55,0,0,0-3.33,1.23,15.53,15.53,0,0,0-1.45.78c-.38.23-.8.43-.93.87a.44.44,0,0,0,.49.52,18,18,0,0,0,2.89-1.43,22.38,22.38,0,0,1,2.87-1.05,36.09,36.09,0,0,1,5.75-1.13,103.43,103.43,0,0,1,14-.77c2.72,0,5.43.24,8.14.46C105,373.62,105,373.43,105,373.42Z" style="fill:#2D3D6C"></path><path d="M105,373.42a71.06,71.06,0,0,0-14.79-.86,56.88,56.88,0,0,0-13.64,1.57,19.55,19.55,0,0,0-3.33,1.23,15.53,15.53,0,0,0-1.45.78c-.38.23-.8.43-.93.87a.44.44,0,0,0,.49.52,18,18,0,0,0,2.89-1.43,22.38,22.38,0,0,1,2.87-1.05,36.09,36.09,0,0,1,5.75-1.13,103.43,103.43,0,0,1,14-.77c2.72,0,5.43.24,8.14.46C105,373.62,105,373.43,105,373.42Z" style="opacity:0.30000000000000004"></path></g></g></g><g id="freepik--Device--inject-144"><g id="freepik--Mobile--inject-144"><path d="M237.6,366.41V70.08c0-7.51-3.73-9.58-7-11.49s-8.77-3.08-13.48-.36L96.53,127.83C91.82,130.55,88,137.16,88,142.6V438.93c0,5.43,3.41,8.64,6.73,10.55s9.09,4,13.8,1.3l120.55-69.6A16.06,16.06,0,0,0,237.6,366.41Z" style="fill:#37474f"></path><path d="M229.93,369.17,106,440.74l0-297.59-15.51-9a17.44,17.44,0,0,0-2.5,8.4V438.93c0,5.43,3.41,8.64,6.73,10.55s9.09,4,13.8,1.3l120.55-69.6a16.26,16.26,0,0,0,7.38-8.24l-.48-.28Z" style="fill:#263238"></path><path d="M228.85,67.56,108,137.36a13.25,13.25,0,0,0-6,10.36v294c0,5.84,4.15,8.23,9.2,5.31L228.85,379a15.06,15.06,0,0,0,6.78-11.75V71.47C235.63,67.16,232.58,65.4,228.85,67.56Z" style="fill:#455a64"></path><path d="M229.73,85.31V360.38a14.27,14.27,0,0,1-6.43,11.17l-109,62.92c-3.56,2.07-6.44.41-6.44-3.71V153.7a14.36,14.36,0,0,1,4.52-9.7c.2-.19.4-.38.61-.56a10.08,10.08,0,0,1,1.31-.89L145,124.85l2-1.15c1.1-.64,2-.13,2,1.15s.95,1.76,2.14,1.07l35.72-20.62a4.61,4.61,0,0,0,2.14-3.54,4.51,4.51,0,0,1,1.79-3.34l.21-.13,30-17.31.64-.37C226.07,78,229.73,80.13,229.73,85.31Z"></path><path d="M220.94,81,191,98.29l-.21.13a4.51,4.51,0,0,0-1.79,3.34,4.61,4.61,0,0,1-2.14,3.54L151.1,125.92c-1.19.69-2.14.2-2.14-1.07s-.9-1.79-2-1.15l-2,1.15-30.65,17.7a10.08,10.08,0,0,0-1.31.89c-.21.18-.41.37-.61.56a14.36,14.36,0,0,0-4.52,9.7V430.76a7.52,7.52,0,0,0,.14,1.48,7.51,7.51,0,0,0,1.48-.65l109-62.93a14.27,14.27,0,0,0,6.43-11.16V82.43a8.2,8.2,0,0,0-.47-2.86,8.12,8.12,0,0,0-2.86,1Z" style="fill:#2D3D6C"></path><path d="M220.94,81,191,98.29l-.21.13a4.51,4.51,0,0,0-1.79,3.34,4.61,4.61,0,0,1-2.14,3.54L151.1,125.92c-1.19.69-2.14.2-2.14-1.07s-.9-1.79-2-1.15l-2,1.15-30.65,17.7a10.08,10.08,0,0,0-1.31.89c-.21.18-.41.37-.61.56a14.36,14.36,0,0,0-4.52,9.7V430.76a7.52,7.52,0,0,0,.14,1.48,7.51,7.51,0,0,0,1.48-.65l109-62.93a14.27,14.27,0,0,0,6.43-11.16V82.43a8.2,8.2,0,0,0-.47-2.86,8.12,8.12,0,0,0-2.86,1Z" style="fill:#fff;opacity:0.75"></path><path d="M156.52,115l16.38-9.46c1-.56,1.77-.16,1.77.9a3.81,3.81,0,0,1-1.77,2.93l-16.38,9.46c-1,.56-1.77.16-1.77-.9A3.78,3.78,0,0,1,156.52,115Z" style="fill:#263238"></path><path d="M181.3,99.94c1.1-.63,2-.12,2,1.15a4.39,4.39,0,0,1-2,3.45c-1.1.64-2,.13-2-1.15A4.41,4.41,0,0,1,181.3,99.94Z" style="fill:#263238"></path><path d="M99.19,193.24a7.19,7.19,0,0,0-3.15-5.7,2.07,2.07,0,0,0-2.16-.18c-.4.24-1.95,1.1-2.37,1.35a2.47,2.47,0,0,0-1,2.24v23.79a7.18,7.18,0,0,0,3.15,5.69,2.12,2.12,0,0,0,2.08.23c.44-.23,2-1.15,2.44-1.4a2.45,2.45,0,0,0,1-2.24Z" style="fill:#455a64"></path><path d="M96.84,194.59v23.79c0,2.14-1.41,3.06-3.15,2.05a7.18,7.18,0,0,1-3.15-5.69V191c0-2.14,1.41-3.06,3.15-2.06A7.2,7.2,0,0,1,96.84,194.59Z" style="fill:#37474f"></path><path d="M99.19,234.87a7.22,7.22,0,0,0-3.15-5.7,2.12,2.12,0,0,0-2.16-.18c-.4.24-1.95,1.11-2.37,1.36a2.44,2.44,0,0,0-1,2.23v23.79a7.22,7.22,0,0,0,3.15,5.7,2.14,2.14,0,0,0,2.08.22c.44-.23,2-1.15,2.44-1.39a2.48,2.48,0,0,0,1-2.24Z" style="fill:#455a64"></path><path d="M96.84,236.22V260c0,2.14-1.41,3.06-3.15,2.06a7.22,7.22,0,0,1-3.15-5.7V232.58c0-2.14,1.41-3.06,3.15-2.06A7.22,7.22,0,0,1,96.84,236.22Z" style="fill:#37474f"></path></g></g><g id="freepik--Battery--inject-144"><g id="freepik--low-battery--inject-144"><g id="freepik--battery--inject-144"><path d="M199.06,162.13V291.67c0,3.62-2.21,7.82-4.91,9.38L144.3,329.83c-2.71,1.57-4.91-.09-4.91-3.71V196.58c0-3.62,2.2-7.82,4.91-9.39l49.85-28.78C196.85,156.85,199.06,158.51,199.06,162.13Z" style="fill:#fff"></path><path d="M195.51,151c-1.47-.85-3.38-.77-5.47.43l-7.64,4.42v-3.42a2.06,2.06,0,0,0-.78-1.85c-.41-.24-3.6-2-4.05-2.34a1.45,1.45,0,0,0-1.57.08l-21.76,12.57a5.5,5.5,0,0,0-2.3,4.39v8.16l-11.75,6.77c-4.61,2.67-8.37,9.84-8.37,16V325.75c0,3.38,1.13,5.75,2.91,6.77l4.09,2.36c1.47.85,3.39.78,5.48-.43l49.85-28.78c4.61-2.66,8.37-9.83,8.37-16V160.13c0-3.38-1.13-5.75-2.91-6.77ZM195,289.3c0,3.62-2.21,7.82-4.91,9.38l-49.85,28.78a3.52,3.52,0,0,1-.62.3,6.86,6.86,0,0,1-.18-1.64V196.58c0-3.62,2.2-7.82,4.91-9.39l49.85-28.78c.21-.12.42-.21.62-.3a7,7,0,0,1,.18,1.65Z" style="fill:#37474f"></path><path d="M156.86,164.82a5.78,5.78,0,0,0-.82,2.82v8.15l-4.11-2.37v-8.15a5.8,5.8,0,0,1,.83-2.82Z" style="fill:#263238"></path><path d="M194.15,153.79l-11.75,6.78v-8.15c0-1.69-1-2.47-2.3-1.74l-21.76,12.57a5.5,5.5,0,0,0-2.3,4.39v8.16l-11.74,6.77c-4.62,2.67-8.38,9.84-8.38,16V328.12c0,6.17,3.76,9,8.38,6.33l49.85-28.78c4.61-2.66,8.37-9.83,8.37-16V160.13C202.52,154,198.76,151.13,194.15,153.79Zm4.91,137.88c0,3.62-2.21,7.82-4.91,9.38L144.3,329.83c-2.71,1.57-4.91-.09-4.91-3.71V196.58c0-3.62,2.2-7.82,4.91-9.39l49.85-28.78c2.7-1.56,4.91.1,4.91,3.72Z" style="fill:#455a64"></path><path d="M194.77,158.11a7.49,7.49,0,0,1,.18,1.64V289.3a12.42,12.42,0,0,1-2,6.38l4.11,2.37a12.42,12.42,0,0,0,2-6.38V162.12C199.06,158.79,197.18,157.12,194.77,158.11Z" style="fill:#263238"></path><path d="M192.56,284.55l-55.07,31.8v7.46A1.33,1.33,0,0,0,138,325c.27.16,4,2.3,4.3,2.48a1,1,0,0,0,1-.08l52.05-30.05a3.64,3.64,0,0,0,1.51-2.89V287Z" style="fill:#2D3D6C"></path><path d="M141.78,318.82v7.47c0,1.11.68,1.62,1.51,1.14l52.05-30.05a3.64,3.64,0,0,0,1.51-2.89V287Z" style="fill:#2D3D6C"></path><polygon points="137.49 316.35 141.78 318.82 196.85 287.03 192.56 284.55 137.49 316.35" style="fill:#fff;opacity:0.4"></polygon><path d="M141.78,326.29v-7.47l-4.28-2.47v7.46A1.31,1.31,0,0,0,138,325c.24.15,3.52,2,4.2,2.43A1.43,1.43,0,0,1,141.78,326.29Z" style="opacity:0.2"></path><path d="M194.15,153.79l-11.75,6.78v-8.15c0-1.69-1-2.47-2.3-1.74l-21.76,12.57a5.5,5.5,0,0,0-2.3,4.39v8.16l-11.74,6.77c-4.62,2.67-8.38,9.84-8.38,16V328.12c0,6.17,3.76,9,8.38,6.33l49.85-28.78c4.61-2.66,8.37-9.83,8.37-16V160.13C202.52,154,198.76,151.13,194.15,153.79Zm4.91,137.88c0,3.62-2.21,7.82-4.91,9.38L144.3,329.83c-2.71,1.57-4.91-.09-4.91-3.71V196.58c0-3.62,2.2-7.82,4.91-9.39l49.85-28.78c2.7-1.56,4.91.1,4.91,3.72Z" style="fill:#455a64"></path></g></g></g><g id="freepik--Texts--inject-144"><path d="M136.76,369.52l-3.5,2v-7.77a.25.25,0,0,0-.09-.22.18.18,0,0,0-.2,0l-.86.5a.53.53,0,0,0-.21.23.76.76,0,0,0-.08.32v9.16a.29.29,0,0,0,.08.22.18.18,0,0,0,.21,0l4.65-2.68a.63.63,0,0,0,.21-.24.71.71,0,0,0,.08-.31v-1a.28.28,0,0,0-.08-.22A.2.2,0,0,0,136.76,369.52Zm7.19-8.6a4.89,4.89,0,0,0-.23-1.37,1.9,1.9,0,0,0-.59-.88,1.36,1.36,0,0,0-.95-.27,3.07,3.07,0,0,0-1.35.48,5.67,5.67,0,0,0-1.36,1.09,6.34,6.34,0,0,0-1,1.38,6.58,6.58,0,0,0-.58,1.55,8.42,8.42,0,0,0-.23,1.63c0,.19,0,.38,0,.6v1.35c0,.22,0,.41,0,.59a4.88,4.88,0,0,0,.23,1.36,1.8,1.8,0,0,0,.58.89,1.42,1.42,0,0,0,1,.26,3.27,3.27,0,0,0,1.36-.49,5.73,5.73,0,0,0,1.35-1.08,6.05,6.05,0,0,0,1-1.37,6.58,6.58,0,0,0,.58-1.55,8.42,8.42,0,0,0,.23-1.63c0-.19,0-.39,0-.61v-1.34C144,361.29,144,361.1,144,360.92Zm-1.43,3.3a4.22,4.22,0,0,1-.5,1.86,3.23,3.23,0,0,1-1.19,1.24,1.16,1.16,0,0,1-1.2.14,1.53,1.53,0,0,1-.49-1.29c0-.35,0-.75,0-1.19s0-.84,0-1.21a4,4,0,0,1,.49-1.86,3.08,3.08,0,0,1,1.2-1.25,1.12,1.12,0,0,1,1.19-.14,1.58,1.58,0,0,1,.5,1.3c0,.35,0,.75,0,1.19S142.53,363.85,142.52,364.22Zm9.8-11.83-.79.45a.75.75,0,0,0-.2.2,1,1,0,0,0-.12.38l-.9,6.52-.78-3.33a.68.68,0,0,0-.11-.2c0-.07-.14-.07-.27,0l-.87.5a.58.58,0,0,0-.27.31,2.07,2.07,0,0,0-.1.31l-.79,4.25-.89-5.5a.28.28,0,0,0-.13-.23.25.25,0,0,0-.2,0l-.79.45a.58.58,0,0,0-.2.23.66.66,0,0,0-.08.32.49.49,0,0,0,0,.11l1.36,8.16a.43.43,0,0,0,.12.27c.06.06.14.06.25,0l.86-.49a.6.6,0,0,0,.24-.28,2.08,2.08,0,0,0,.13-.42l.92-4.77.91,3.71a.67.67,0,0,0,.13.27q.09.09.24,0l.87-.5a.56.56,0,0,0,.24-.28,1.1,1.1,0,0,0,.13-.41l1.36-9.74a.54.54,0,0,0,0-.11.27.27,0,0,0-.09-.23A.17.17,0,0,0,152.32,352.39Zm9-.47a3.38,3.38,0,0,0,.19-.33,3.76,3.76,0,0,0,.25-.53,4.73,4.73,0,0,0,.21-.69,4.12,4.12,0,0,0,.08-.81,3,3,0,0,0-.12-.84,1.54,1.54,0,0,0-.4-.68,1.09,1.09,0,0,0-.73-.27,2.27,2.27,0,0,0-1.14.38L156.52,350a.65.65,0,0,0-.2.23.68.68,0,0,0-.09.32v9.16a.25.25,0,0,0,.09.22.18.18,0,0,0,.2,0l3.38-1.95a3.82,3.82,0,0,0,1-.84,6.13,6.13,0,0,0,.72-1.1,6.25,6.25,0,0,0,.43-1.21,4.93,4.93,0,0,0,.15-1.16,2.07,2.07,0,0,0-.28-1.22A1.18,1.18,0,0,0,161.32,351.92Zm-3.65-.85,1.88-1.08c.37-.22.64-.28.81-.19s.26.31.26.66a1.88,1.88,0,0,1-.26,1,2.18,2.18,0,0,1-.81.74l-1.88,1.09Zm2.82,4.42a2.19,2.19,0,0,1-.85.83l-2,1.13V355l2-1.14c.37-.21.65-.26.84-.14s.28.35.28.71A2.11,2.11,0,0,1,160.49,355.49Zm27.22-15.38-3.52,2v-2.35l3.2-1.85a.46.46,0,0,0,.2-.23.65.65,0,0,0,.09-.32v-1a.24.24,0,0,0-.09-.22.15.15,0,0,0-.2,0l-3.2,1.85v-2.26l3.43-2a.59.59,0,0,0,.21-.23.79.79,0,0,0,.08-.32v-1a.29.29,0,0,0-.08-.22.18.18,0,0,0-.21,0L183,334.65a.58.58,0,0,0-.2.23.68.68,0,0,0-.09.32v9.16a.25.25,0,0,0,.09.22.18.18,0,0,0,.2,0l4.67-2.7a.51.51,0,0,0,.2-.23.65.65,0,0,0,.09-.32v-1a.24.24,0,0,0-.09-.22A.15.15,0,0,0,187.71,340.11Zm5.94-5.63a5.21,5.21,0,0,0,1-1.69,5.42,5.42,0,0,0,.36-2c0-1-.23-1.6-.69-1.88s-1.14-.17-2,.34l-2.75,1.59a.54.54,0,0,0-.2.22.68.68,0,0,0-.09.32v9.16a.24.24,0,0,0,.09.22c.06,0,.12,0,.2,0l.86-.5a.53.53,0,0,0,.21-.23.76.76,0,0,0,.08-.32v-3.3l1.42-.82,1.39,2.5a.44.44,0,0,0,.14.17c.07,0,.17,0,.32-.05l.9-.52a.44.44,0,0,0,.16-.19.51.51,0,0,0,.07-.26.39.39,0,0,0,0-.14Zm-.39-1.55a3.11,3.11,0,0,1-1,.85l-1.54.89V332l1.54-.89a1.62,1.62,0,0,1,1-.29c.24,0,.36.33.36.86A2.09,2.09,0,0,1,193.26,332.93Zm8.76-9.12c-.05-.05-.12,0-.2,0l-.8.46a.78.78,0,0,0-.32.33,1.24,1.24,0,0,0-.12.28l-1.73,5-1.72-3s-.06-.08-.13-.14-.18,0-.32,0l-.79.46a.53.53,0,0,0-.21.23.72.72,0,0,0-.08.32.36.36,0,0,0,0,.11l2.52,4.46v3.12a.27.27,0,0,0,.09.22.17.17,0,0,0,.2,0l.85-.49a.51.51,0,0,0,.2-.23.65.65,0,0,0,.09-.32v-3.12l2.52-7.36a.78.78,0,0,0,0-.14A.24.24,0,0,0,202,323.81ZM175.1,339.24l-5.27,3a.58.58,0,0,0-.2.23.76.76,0,0,0-.08.32v1a.27.27,0,0,0,.08.22.16.16,0,0,0,.2,0l1.92-1.11v7.77a.27.27,0,0,0,.08.22.17.17,0,0,0,.21,0l.86-.5a.51.51,0,0,0,.2-.23.62.62,0,0,0,.09-.32v-7.77l1.91-1.1a.51.51,0,0,0,.2-.23.65.65,0,0,0,.09-.32v-1a.27.27,0,0,0-.09-.23A.17.17,0,0,0,175.1,339.24Zm-7.79,5a.67.67,0,0,0-.14-.27c-.06-.05-.15,0-.26,0l-1.17.67a.65.65,0,0,0-.25.27,1.68,1.68,0,0,0-.15.45l-2.61,10.46s0,.07,0,.11a.27.27,0,0,0,.09.22.17.17,0,0,0,.2,0l.76-.44a.65.65,0,0,0,.3-.29,1.33,1.33,0,0,0,.12-.3l.46-1.84,3.36-1.94.45,1.31a.38.38,0,0,0,.12.17c.06,0,.16,0,.3-.06l.76-.44a.53.53,0,0,0,.21-.23.76.76,0,0,0,.08-.32.28.28,0,0,0,0-.09Zm-2.15,7,1.17-4.71,1.17,3.36Zm16.24-15.6-5.26,3a.46.46,0,0,0-.2.23.64.64,0,0,0-.09.31v1a.24.24,0,0,0,.09.22c.05,0,.12,0,.2,0l1.92-1.11v7.77c0,.11,0,.18.08.22a.15.15,0,0,0,.2,0l.86-.5a.53.53,0,0,0,.21-.23.72.72,0,0,0,.08-.32v-7.77l1.91-1.1a.59.59,0,0,0,.21-.23.79.79,0,0,0,.08-.32v-1a.3.3,0,0,0-.08-.23A.18.18,0,0,0,181.4,335.6Z" style="fill:#263238"></path><path d="M184.73,239a4.15,4.15,0,0,0-.27-1.25,1.64,1.64,0,0,0-1.7-1.14,3.38,3.38,0,0,0-1.48.52,6,6,0,0,0-1.49,1.2,7.89,7.89,0,0,0-1,1.49,7.15,7.15,0,0,0-.65,1.61,7.74,7.74,0,0,0-.27,1.56c0,.55,0,1.13,0,1.74s0,1.17,0,1.69a4.08,4.08,0,0,0,.27,1.25,1.75,1.75,0,0,0,.65.86,1.58,1.58,0,0,0,1,.26,3.45,3.45,0,0,0,1.49-.53,6.15,6.15,0,0,0,1.48-1.18,7.57,7.57,0,0,0,1.06-1.48,7.11,7.11,0,0,0,.64-1.61,7.74,7.74,0,0,0,.27-1.56c0-.55.05-1.13.05-1.74S184.76,239.49,184.73,239Zm-2.2,3.81c0,.26,0,.47,0,.6a3.6,3.6,0,0,1-.31,1.22,2.08,2.08,0,0,1-.92,1c-.45.26-.76.29-.93.1a1.45,1.45,0,0,1-.3-.87,5.32,5.32,0,0,1,0-.57c0-.26,0-.54,0-.83s0-.57,0-.84,0-.47,0-.61a3.59,3.59,0,0,1,.3-1.22,2.11,2.11,0,0,1,.93-1c.45-.26.75-.29.92-.1a1.45,1.45,0,0,1,.31.87c0,.12,0,.31,0,.58Zm-17.41,10.73-6.44,3.72,4.28-7.7a25.05,25.05,0,0,0,1.3-2.37,13.4,13.4,0,0,0,.74-1.88,8.59,8.59,0,0,0,.33-1.58c0-.49.07-1,.07-1.51a7,7,0,0,0-.34-2.23,3.52,3.52,0,0,0-1-1.63,2.65,2.65,0,0,0-1.76-.62,5.15,5.15,0,0,0-2.53.82,9.83,9.83,0,0,0-2.25,1.84,14,14,0,0,0-1.82,2.52,15.26,15.26,0,0,0-1.24,2.88,12,12,0,0,0-.53,2.93c0,.26,0,.43.17.51a.43.43,0,0,0,.46,0l1.83-1.06a1.26,1.26,0,0,0,.41-.44,1.87,1.87,0,0,0,.28-.76,9.66,9.66,0,0,1,.85-2.63,4.55,4.55,0,0,1,1.86-1.91c.9-.52,1.54-.59,1.93-.23a2.41,2.41,0,0,1,.58,1.82,7.3,7.3,0,0,1-.2,1.53,7,7,0,0,1-.89,2l-6.89,11.92a6.6,6.6,0,0,0-.39.77,2.57,2.57,0,0,0-.23,1v1.89a.56.56,0,0,0,.18.48.38.38,0,0,0,.44,0l10.83-6.25a1.15,1.15,0,0,0,.44-.5,1.56,1.56,0,0,0,.19-.69V254a.59.59,0,0,0-.19-.48A.37.37,0,0,0,165.12,253.51ZM183.29,226a.67.67,0,0,0,0-.17q0-.28-.15-.36a.4.4,0,0,0-.41.06l-1.39.8a1.57,1.57,0,0,0-.5.45,3.93,3.93,0,0,0-.33.62l-11.46,26.7c0,.08-.05.16-.07.23a1.49,1.49,0,0,0,0,.17.39.39,0,0,0,.15.36c.1.06.24,0,.41-.06l1.39-.81a1.44,1.44,0,0,0,.5-.44,3.66,3.66,0,0,0,.33-.63l11.45-26.7A.7.7,0,0,0,183.29,226Zm-12,17.16a6,6,0,0,0,1.48-1.19,7.22,7.22,0,0,0,1.06-1.47,7.87,7.87,0,0,0,.65-1.61,8.46,8.46,0,0,0,.26-1.56c0-.55.05-1.14.05-1.74s0-1.17-.05-1.69a4.47,4.47,0,0,0-.26-1.26,1.91,1.91,0,0,0-.65-.86,1.8,1.8,0,0,0-1.06-.27,3.42,3.42,0,0,0-1.48.52,5.81,5.81,0,0,0-1.48,1.2,7.45,7.45,0,0,0-1.71,3.1,8.19,8.19,0,0,0-.26,1.56c0,.55,0,1.13,0,1.74s0,1.17,0,1.69a4.48,4.48,0,0,0,.26,1.25,1.81,1.81,0,0,0,.65.86,1.67,1.67,0,0,0,1.06.26A3.6,3.6,0,0,0,171.24,243.18ZM170,237.51c0-.27,0-.48,0-.61a3.7,3.7,0,0,1,.3-1.23,2.09,2.09,0,0,1,.93-1c.45-.26.76-.3.93-.11a1.48,1.48,0,0,1,.3.88c0,.12,0,.31,0,.57v1.67c0,.27,0,.47,0,.6a3.64,3.64,0,0,1-.3,1.23,2.11,2.11,0,0,1-.93,1c-.45.26-.76.29-.93.1a1.46,1.46,0,0,1-.3-.88,5.59,5.59,0,0,1,0-.56c0-.27,0-.54,0-.83S170,237.78,170,237.51Z" style="fill:#455a64"></path></g><g id="freepik--Character--inject-144"><g id="freepik--character--inject-144"><g id="freepik--Bottom--inject-144"><path d="M251.72,381c1.08-14.84-3-34.43-1.45-57.45,1.29-19,4.28-25.52,4.55-29.2,0,0,2.3-34.16,1.88-76.74-.19-19.59,6.43-26.74,11-37.13l59.82-.32c4.84,27.28,5.12,80.5,4.94,106.93-.09,13.48-4.93,82-4.92,83.67.05,6.28-.18,7.55,2.13,10,4.82,5.18,11.59,9.19,17.64,13.7-.88,2.32-9,3.24-12.64,1.48a92.77,92.77,0,0,1-13.43-8.56c-5-3.68-11.32-6.64-11.41-12.24a6.61,6.61,0,0,0-.16-1c-.1-3.27-8-46-8.6-57.18-.54-9.62.63-25.94.63-25.94l-6.21-40.76s-4.84,30.65-8.71,47.1c-3.16,13.38-7.34,29.67-10.88,46.15h0c-3.54,17.85-6.57,30.37-7.82,37.3.2,3.85-3.08,26.58-4.14,31.68s-13.24,4.74-13.95-4C249.48,402.66,251.52,383.81,251.72,381Z" style="fill:#ffbda7"></path><path d="M333,261.31c-.45-25.34-2.21-70.82-4.27-82.06l-61.89.4s-7.33,13.65-10.09,24.42-1.31,44.12-2.23,64.19-1.1,26.68-1.1,26.68-3.79,12.46-4.46,21.84c0,0,4,7.38,17.26,9.09s15.4-2.44,15.4-2.44,5.7-23.55,7.95-35,5.93-34.23,5.93-34.23l5.1,35.58s-1.46,17.64-.9,24.93c7.65,5.23,25.36,6.88,32.42-.26C332.07,314.42,333.4,286.65,333,261.31Z" style="fill:#455a64"></path><path d="M295.45,254.17l4-29.28a31.36,31.36,0,0,0,24.46-12.2,23.53,23.53,0,0,1-20.36,16.21l-4.42,25.67,1.42,35.18Z" style="fill:#263238"></path><path d="M357.56,400.42c-.57,1-.07,4.39-1.73,5.85-1.91,1.68-7.54,4.48-15,3.59s-11.57-3.16-14.59-5.63-7.26-6-10.65-6.67c-3.15-.66-6.58-2.05-7.6-3s0-6.29,0-6.29Z" style="fill:#263238"></path><path d="M309.47,372.6s-.56,0-.75,1c-.21,1.19-.43,4.66-.9,6.62-.66,2.72-1.06,8.29-.62,10.5s5.58,3.69,8.86,4.9a41.94,41.94,0,0,1,10.69,6.59c3.54,2.86,11,5.69,15.85,5.71,7.44,0,12.24-2,13.7-4.73,1.81-3.33,1.23-6.24-7.37-10.12-1.63-.73-7.35-4-9.3-5.23a44,44,0,0,1-5.87-4.27,35.44,35.44,0,0,1-2.64-2.56,11.78,11.78,0,0,1-2.2-2.74c-.1-.23-.17-.49-.25-.73a11.61,11.61,0,0,1-.58-2c-.15-.71-.25-1.75-.93-2.17a5.57,5.57,0,0,0-2.54-.23,17,17,0,0,0-3.27.24c-1.74.33-3.9,1.2-4.87,2.79a6.14,6.14,0,0,0-.67,3.1c0,.5,0,1,0,1.51,0,.21.09.59-.21.51s-.61-.83-.72-1.08c-.24-.56-.4-1.15-.67-1.7a8.6,8.6,0,0,0-1.08-1.8,8.45,8.45,0,0,0-1.37-1.37,13.17,13.17,0,0,1-1.48-.93A3.46,3.46,0,0,1,309.47,372.6Z" style="fill:#37474f"></path><path d="M350.32,393.74c-10.77.86-15,8.56-15.39,12.68A25.41,25.41,0,0,0,342.6,408c7.44,0,12.55-2,14-4.73C358.31,400.08,358,396.56,350.32,393.74Z" style="fill:#fafafa"></path><path d="M333.28,395a.48.48,0,0,1-.34-.11.53.53,0,0,1-.08-.74c1.48-1.85,6.67-5.34,10.59-5a.53.53,0,0,1,.47.58.52.52,0,0,1-.57.47c-3.66-.35-8.49,3.1-9.67,4.57A.53.53,0,0,1,333.28,395Z" style="fill:#f0f0f0"></path><path d="M328.61,392.38a.54.54,0,0,1-.34-.12.52.52,0,0,1-.08-.74c1.48-1.85,6.67-5.34,10.59-4.95a.53.53,0,0,1-.1,1.05c-3.66-.36-8.49,3.09-9.67,4.56A.51.51,0,0,1,328.61,392.38Z" style="fill:#f0f0f0"></path><path d="M324.27,389.34a.54.54,0,0,1-.33-.12.52.52,0,0,1-.08-.74c1.48-1.85,6.68-5.34,10.58-5a.52.52,0,1,1-.1,1c-3.65-.35-8.49,3.1-9.66,4.57A.51.51,0,0,1,324.27,389.34Z" style="fill:#f0f0f0"></path><path d="M320,386.29a.51.51,0,0,1-.33-.11.53.53,0,0,1-.09-.74c2-2.62,7.56-5.4,11.48-5a.52.52,0,1,1-.1,1c-3.53-.34-8.75,2.29-10.55,4.62A.54.54,0,0,1,320,386.29Z" style="fill:#f0f0f0"></path><path d="M267.4,416.5c-.3,5.08-1.09,8.45-2.89,11.44s-5.21,3.91-8.66,3-8.09-4-9.91-8.08c-1.6-3.63-1.56-7.39-.78-12.1Z" style="fill:#263238"></path><path d="M251.84,379.2c-1.42.12-1.83,6.94-2.65,13.78-.88,7.32-3.07,10.35-3.85,16.36-.9,6.86,1.3,10.41,3.71,14.56s10.91,8.22,15.11,2.28c3.42-4.85,3.56-10.22,3.25-17.07a150.86,150.86,0,0,1,.45-17.37c.28-5.13,1.42-10.31.18-10.89-.09.76-.18,1.72-.28,2.46a12.66,12.66,0,0,1-.46,2.74c-.15.38-.46.78-.59.16a3.93,3.93,0,0,1,0-1.28c.21-1.89-.75-2.05-1.26-2.19a64.5,64.5,0,0,0-6.59-.94c-1.08-.07-5.89-.72-6.38-.1a4.34,4.34,0,0,0-.48,2c-.12,1-.36,1.79-.39,1.47-.06-.74.08-2.66.1-3.13s.09-1,.09-1.5S251.81,379.64,251.84,379.2Z" style="fill:#37474f"></path><path d="M244.94,413.31a14.88,14.88,0,0,0,3.72,10.91c3.2,3.58,11.61,8.24,15.8,2.3,2.09-3,2.65-6.46,2.93-10C264.88,411.92,248.91,409.41,244.94,413.31Z" style="fill:#fafafa"></path><path d="M264.3,409l-.18-.05c-.06,0-7.69-3.23-14.08-1.75a.53.53,0,1,1-.24-1c6.76-1.56,14.53,1.71,14.78,1.83a.52.52,0,0,1,.24.7A.53.53,0,0,1,264.3,409Z" style="fill:#f0f0f0"></path><path d="M250.35,402.12a.5.5,0,0,1-.44-.35.52.52,0,0,1,.33-.67c6.36-2.16,14.49,1.57,14.76,1.71a.53.53,0,0,1,.22.71.54.54,0,0,1-.71.22c-.06,0-8-3.65-13.94-1.64A.53.53,0,0,1,250.35,402.12Z" style="fill:#f0f0f0"></path><path d="M250.58,397.3a.55.55,0,0,1-.45-.34.54.54,0,0,1,.32-.68c7-2.51,14.77,1.52,15,1.67a.52.52,0,0,1,.18.72.53.53,0,0,1-.73.18c-.05,0-7.6-3.91-14.11-1.58A.47.47,0,0,1,250.58,397.3Z" style="fill:#f0f0f0"></path><path d="M250.92,392.55a.54.54,0,0,1-.44-.33.53.53,0,0,1,.31-.68c6.56-2.46,14.85,1.65,15.12,1.81a.53.53,0,0,1,.19.72.52.52,0,0,1-.72.19c-.06,0-8.13-4-14.22-1.74A.5.5,0,0,1,250.92,392.55Z" style="fill:#ebebeb"></path></g><g id="freepik--Top--inject-144"><path d="M395.32,144.7a.55.55,0,0,1-.42-.19,19.43,19.43,0,0,1-4.85-12.85v-7.59a.55.55,0,0,1,.55-.56.56.56,0,0,1,.56.56v7.59a18.29,18.29,0,0,0,4.58,12.12.55.55,0,0,1-.05.78A.54.54,0,0,1,395.32,144.7Z" style="fill:#263238"></path><path d="M391,143.27l-.22.53a3.15,3.15,0,0,0,.37,2.81l3.68,4.79,6.09-.8,1.76-4.26-3.85-4.18a3.61,3.61,0,0,0-2.74-1l-2.84.38A3.13,3.13,0,0,0,391,143.27Z" style="fill:#37474f"></path><path d="M398.83,142.16a3.61,3.61,0,0,0-2.74-1l-2.84.38c-.9.12-1.13.75-.51,1.42l3.85,4.17,6.09-.8Z" style="fill:#455a64"></path><path d="M396.55,145.93a1.56,1.56,0,0,0-1.12.86l-1.45,3.5.85,1.11,6.09-.8,1.76-4.26-1-1.09Z" style="opacity:0.1"></path><path d="M403.41,145.78a.51.51,0,0,0-.48-.14l-6,.79a1.58,1.58,0,0,0-1.13.86l-1.72,4.16a.5.5,0,0,0,0,.51l.46.61a.52.52,0,0,0,.49.14l6-.79a1.56,1.56,0,0,0,1.13-.86l1.72-4.16a.5.5,0,0,0,0-.51Z" style="fill:#37474f"></path><path d="M397.41,147l6-.79c.45-.06.68.23.5.65l-1.72,4.16a1.56,1.56,0,0,1-1.12.86l-6,.79c-.45.06-.68-.23-.5-.65l1.72-4.16A1.56,1.56,0,0,1,397.41,147Z" style="fill:#455a64"></path><path d="M401.11,152.25l-3-4-.54.07-1.18,2.84,3,4a.68.68,0,0,0,.62.33l.54-.07a.69.69,0,0,0,.51-.48l.3-.72A2.2,2.2,0,0,0,401.11,152.25Zm-1.05.46a1.45,1.45,0,0,1,.17,1.32.51.51,0,0,1-.09.16l-.13-.13a1.48,1.48,0,0,1-.17-1.32.61.61,0,0,1,.09-.16A.53.53,0,0,1,400.06,152.71Z" style="fill:#2D3D6C"></path><path d="M401.11,152.25l-3-4-.54.07,3,4a2.2,2.2,0,0,1,.26,2l-.3.72a.67.67,0,0,1-.54.49h0l.54-.08c.21,0,.39-.18.51-.48l.3-.72A2.23,2.23,0,0,0,401.11,152.25Z" style="fill:#fff;opacity:0.85"></path><path d="M401.37,154.22l-.3.72c-.12.3-.3.46-.51.48l-.54.08h0a.68.68,0,0,0,.53-.49l.3-.72a2.09,2.09,0,0,0,.11-1l.53-.07A2,2,0,0,1,401.37,154.22Z" style="fill:#2D3D6C"></path><path d="M401.37,154.22l-.3.72c-.12.3-.3.46-.51.48l-.54.08h0a.68.68,0,0,0,.53-.49l.3-.72a2.09,2.09,0,0,0,.11-1l.53-.07A2,2,0,0,1,401.37,154.22Z" style="fill:#fff;opacity:0.6000000000000001"></path><path d="M401.37,154.22l-.3.72c-.12.3-.3.46-.51.48l-.54.08h0a.68.68,0,0,0,.53-.49l.3-.72a2.09,2.09,0,0,0,.11-1l.53-.07A2,2,0,0,1,401.37,154.22Z" style="opacity:0.05"></path><path d="M399.84,152.74a.76.76,0,0,1,.09-.16h0c-.23-.18-.49-.1-.63.23a1.51,1.51,0,0,0,.17,1.32c.22.28.5.29.67.06l-.13-.13A1.51,1.51,0,0,1,399.84,152.74Z" style="fill:#fff;opacity:0.6000000000000001"></path><path d="M399.84,152.74a.76.76,0,0,1,.09-.16h0c-.23-.18-.49-.1-.63.23a1.51,1.51,0,0,0,.17,1.32c.22.28.5.29.67.06l-.13-.13A1.51,1.51,0,0,1,399.84,152.74Z" style="opacity:0.1"></path><path d="M400.57,152.33l-3-4-1.18,2.84,3,4c.38.51.89.44,1.13-.15l.3-.72A2.17,2.17,0,0,0,400.57,152.33Zm-1.1,1.8a1.51,1.51,0,0,1-.17-1.32.4.4,0,0,1,.76-.1,1.45,1.45,0,0,1,.17,1.32C400.07,154.42,399.73,154.46,399.47,154.13Z" style="fill:#fff;opacity:0.7000000000000001"></path><path d="M405.14,151.72l-3-4-.54.07-1.18,2.84,3.05,4a.68.68,0,0,0,.62.33l.54-.07a.69.69,0,0,0,.51-.48l.3-.72A2.23,2.23,0,0,0,405.14,151.72Zm-1.05.46a1.45,1.45,0,0,1,.17,1.32.51.51,0,0,1-.09.16,1.59,1.59,0,0,1-.13-.13,1.48,1.48,0,0,1-.17-1.32.61.61,0,0,1,.09-.16A.4.4,0,0,1,404.09,152.18Z" style="fill:#2D3D6C"></path><path d="M405.14,151.72l-3-4-.54.07,3,4a2.2,2.2,0,0,1,.26,2l-.3.72a.69.69,0,0,1-.54.49h0l.54-.07c.21,0,.39-.19.51-.48l.3-.72A2.23,2.23,0,0,0,405.14,151.72Z" style="fill:#fff;opacity:0.85"></path><path d="M405.4,153.69l-.3.72c-.12.29-.3.46-.51.48l-.54.07h0a.69.69,0,0,0,.53-.49l.3-.72a2,2,0,0,0,.1-1l.54-.07A2,2,0,0,1,405.4,153.69Z" style="fill:#2D3D6C"></path><path d="M405.4,153.69l-.3.72c-.12.29-.3.46-.51.48l-.54.07h0a.69.69,0,0,0,.53-.49l.3-.72a2,2,0,0,0,.1-1l.54-.07A2,2,0,0,1,405.4,153.69Z" style="fill:#fff;opacity:0.6000000000000001"></path><path d="M405.4,153.69l-.3.72c-.12.29-.3.46-.51.48l-.54.07h0a.69.69,0,0,0,.53-.49l.3-.72a2,2,0,0,0,.1-1l.54-.07A2,2,0,0,1,405.4,153.69Z" style="opacity:0.05"></path><path d="M403.87,152.21a.76.76,0,0,1,.09-.16h0c-.23-.19-.49-.1-.63.23a1.51,1.51,0,0,0,.17,1.32c.22.28.5.29.67.06a1.59,1.59,0,0,1-.13-.13A1.51,1.51,0,0,1,403.87,152.21Z" style="fill:#fff;opacity:0.6000000000000001"></path><path d="M403.87,152.21a.76.76,0,0,1,.09-.16h0c-.23-.19-.49-.1-.63.23a1.51,1.51,0,0,0,.17,1.32c.22.28.5.29.67.06a1.59,1.59,0,0,1-.13-.13A1.51,1.51,0,0,1,403.87,152.21Z" style="opacity:0.1"></path><path d="M404.6,151.8l-3-4-1.18,2.84,3.05,4a.6.6,0,0,0,1.13-.15l.3-.72A2.17,2.17,0,0,0,404.6,151.8Zm-1.1,1.8a1.51,1.51,0,0,1-.17-1.32.4.4,0,0,1,.76-.1,1.45,1.45,0,0,1,.17,1.32C404.1,153.89,403.76,153.93,403.5,153.6Z" style="fill:#fff;opacity:0.7000000000000001"></path><g id="freepik--Arm--inject-144"><path d="M398.09,117.32a4.93,4.93,0,0,0-3,.1,33,33,0,0,0-4.37,2.18c-2.24,1.09-5.83,2.87-8.35,2.64-.51,0-1.56-.3-.84-.9a22.53,22.53,0,0,0,2.78-2.46,4.46,4.46,0,0,0,1.19-3.39,1.47,1.47,0,0,0-.47-1c-.41-.34-.71-.15-1.05.08a10.19,10.19,0,0,1-1.17.64c-.81.41-1.62.82-2.43,1.25-4.71,2.47-9.44,5.4-12.37,10-.42.66-3,5.93-4.71,8.89-1.38,2.7-9.77,16.47-9.77,16.47s-14.4-12-20.17-16.67c-9.76-7.87-15.87-14-22.94-13.9l13.48,35.45S342,168.38,344.65,170c8.89,5.49,10.87,6.61,15.75,2.21,6-5.39,7.5-11.72,9.92-18.6,2.73-7.74,3.62-11.47,5.08-13.78s3.7-2.37,5.28-2.79a24.07,24.07,0,0,0,6.3-2.41,22.39,22.39,0,0,0,4.91-3.28,6.92,6.92,0,0,0,1.93-2.11,21.83,21.83,0,0,1,.55-2.33c.42-.84,1.22-1.46,1.54-2.33a8.91,8.91,0,0,0,.24-2.19,3.68,3.68,0,0,1,1.7-2.51,3.54,3.54,0,0,0,1.08-1.17C399.27,118,398.74,117.53,398.09,117.32Z" style="fill:#ffbda7"></path><path d="M353.54,151.82c-3.35,5.21-3.76,10.28-3.34,12.25a15.15,15.15,0,0,1,1.6-13.7Z" style="fill:#f0997a"></path><path d="M379.4,124.3a16.41,16.41,0,0,1-6,6.83,6.73,6.73,0,0,0,4.29-1.95A6.3,6.3,0,0,0,379.4,124.3Z" style="fill:#f0997a"></path></g><path d="M260.1,134.07h0a19.54,19.54,0,0,0,19.54-19.54V65.77H276.4a16.29,16.29,0,0,0-16.3,16.29Z" style="fill:#37474f"></path><path d="M269.73,71.9a11.86,11.86,0,0,0-.52,2.49,6.35,6.35,0,0,0,0,1.63,5.49,5.49,0,0,0,5.36,4.43A8.34,8.34,0,0,0,281,77c2.09-2.67,5.21-9,1.14-11.2a8.28,8.28,0,0,0-8.62.71A10.66,10.66,0,0,0,269.73,71.9Z" style="fill:#2D3D6C"></path><path d="M269.73,71.9a11.86,11.86,0,0,0-.52,2.49,6.35,6.35,0,0,0,0,1.63,5.49,5.49,0,0,0,5.36,4.43A8.34,8.34,0,0,0,281,77c2.09-2.67,5.21-9,1.14-11.2a8.28,8.28,0,0,0-8.62.71A10.66,10.66,0,0,0,269.73,71.9Z" style="opacity:0.25"></path><path d="M266.58,178.24c0,2.09-6.57,11.06-9.46,22.35,17.37,22.4,70.09,11.68,73.85-.92-.81-15-1.5-52.81-4.78-59.65a50.59,50.59,0,0,0-15.76-18.77,96.37,96.37,0,0,0-11-1.46,69.12,69.12,0,0,0-16.45.42c-3.47.49-13.82,5.63-13.82,5.63-3.05,2.57-7.48,10.78-5.52,23.86C264.56,155.71,266.59,163.45,266.58,178.24Z" style="fill:#fafafa"></path><path d="M293.18,120.59c2.13,0,4.2.11,6.16.3l.92.09a86.37,86.37,0,0,1,9.72,1.31,49.93,49.93,0,0,1,15.21,18.21c2.49,5.19,3.49,30.44,4.15,47.16.18,4.67.34,8.72.51,11.86-2.08,6-19,13-38.17,13-8.82,0-24.77-1.59-33.35-12.15a80,80,0,0,1,7-16.58c1.63-3.09,2.35-4.5,2.35-5.52a128.16,128.16,0,0,0-2.28-24.86c-.24-1.36-.47-2.65-.64-3.84-1.92-12.84,2.4-20.45,5-22.77,2.94-1.45,10.71-5.08,13.36-5.46a73.09,73.09,0,0,1,10-.72m0-1.1a73.28,73.28,0,0,0-10.18.72c-3.47.49-13.82,5.63-13.82,5.63-3.05,2.57-7.48,10.78-5.52,23.86.9,6,2.93,13.75,2.92,28.54,0,2.09-6.57,11.06-9.46,22.35,7.34,9.46,21,13,34.56,13,18.6,0,37.11-6.65,39.29-13.93-.81-15-1.5-52.81-4.78-59.65a50.59,50.59,0,0,0-15.76-18.77,96.37,96.37,0,0,0-11-1.46c-1.41-.14-3.55-.3-6.27-.3Z" style="fill:#e0e0e0"></path><g id="freepik--mobile--inject-144"><path d="M357.25,160.36h0L356,159.14v0a1.54,1.54,0,0,0-1.39-.21l-16.09,3.74a5.43,5.43,0,0,0-3.42,2.95l-11.79,30.08a1.39,1.39,0,0,0,.13,1.56h0l1.35,1.26h0a1.56,1.56,0,0,0,1.4.22L342.24,195a5.41,5.41,0,0,0,3.42-2.95c2.32-5.91,9.48-24.17,11.79-30.08C357.74,161.24,357.64,160.67,357.25,160.36Z" style="fill:#455a64"></path><path d="M338.17,164.7a5.26,5.26,0,0,0-1.79,2.17l-11.79,30.06a1.47,1.47,0,0,0,.08,1.54l-1.27-1.18h0a1.39,1.39,0,0,1-.14-1.57l11.79-30.07a5.11,5.11,0,0,1,1.66-2.06Z" style="fill:#455a64"></path><path d="M324.59,196.94l11.79-30.07a5.39,5.39,0,0,1,3.43-3l16.08-3.75c1.38-.31,2.08.5,1.56,1.81-2.31,5.91-9.47,24.17-11.79,30.08a5.41,5.41,0,0,1-3.42,2.95l-16.09,3.74C324.78,199.06,324.08,198.26,324.59,196.94Z" style="fill:#37474f"></path><path d="M336.14,173.26l2.21-5.62a1,1,0,0,1,.64-.56l2.78-.63c.26-.06.39.09.29.33l-2.2,5.63a1,1,0,0,1-.65.56l-2.77.63C336.18,173.66,336.05,173.51,336.14,173.26Z" style="fill:#455a64"></path><path d="M338.43,169a2.56,2.56,0,0,1,1.63-1.36c.67-.16,1,.2.78.8a2.53,2.53,0,0,1-1.63,1.36C338.54,170,338.2,169.6,338.43,169Z" style="fill:#263238"></path><path d="M337.35,171.85a2.56,2.56,0,0,1,1.63-1.36c.67-.16,1,.21.78.8a2.51,2.51,0,0,1-1.63,1.36C337.47,172.81,337.12,172.45,337.35,171.85Z" style="fill:#263238"></path></g><path d="M288.41,179.35l-7.75-31.6s-6-19.75-11.48-21.91c-9.73,3.14-11.68,9-12.44,15.07-.69,5.47.42,11.21,4.43,25.52a260.06,260.06,0,0,0,8.64,26.6c2.57,6.45,8.24,7,18.1,6.49s16-1.41,29.72-3.24c6.58-.88,10-2.33,15.47-4A20.94,20.94,0,0,0,339,189.6a12.11,12.11,0,0,0,4.06-4.21,3.69,3.69,0,0,1,.57-.93,6.73,6.73,0,0,1,.82-.68,7,7,0,0,0,1.53-1.34,11.52,11.52,0,0,0,1-1.93,6.24,6.24,0,0,1,.42-.91,4.88,4.88,0,0,1,.64-.8,7.87,7.87,0,0,0,1.65-2.12,1.38,1.38,0,0,0-.15-1.35s.92-.72,1.21-1a7.68,7.68,0,0,0,1.13-1.22.74.74,0,0,0,.2-.6.69.69,0,0,0-.21-.32c-1.48-1.42-3.49-.83-5.18-.18-4.39,1.69-6.79,3.67-11.37,4.87-2.49.66-3.12.79-4,.51-1.19-.75,3.35-5,3.7-8.52.18-1.76-1.42-3.91-2.82-1.9-2.94,4.22-5.48,5.31-7.68,7.72s-4.25,3.87-8.91,5.43C310.6,181.8,288.41,179.35,288.41,179.35Z" style="fill:#ffbda7"></path><path d="M288.41,179.35a53.15,53.15,0,0,0-11-.88s2.76-2.05,10.73-.91Z" style="fill:#f0997a"></path><path d="M349.36,175.56a33.8,33.8,0,0,1-2.82,2.1c-1,.67-2,1.31-2.92,2-.48.32-.95.67-1.46,1s-1,.59-1.55.86c-1.05.53-2.11,1-3.21,1.46l1.53-.88,1.52-.88c.49-.3,1-.59,1.49-.91s.95-.66,1.44-1c1-.65,2-1.28,3-1.88Z" style="fill:#f0997a"></path><path d="M347.41,179.48a14.32,14.32,0,0,1-1.91,2c-.69.59-1.41,1.13-2.15,1.66s-1.48,1-2.25,1.5a20.42,20.42,0,0,1-2.39,1.29l2.2-1.57,2.19-1.57,2.19-1.58C346,180.66,346.72,180.07,347.41,179.48Z" style="fill:#f0997a"></path><g id="freepik--Head--inject-144"><path d="M316.39,93.33l1.6-.49c7.18-3.86,6.82-13.22,5.07-18.09-3.89-10.89-15.66-15-22.94-15.37-13.81-.75-20.55,2.81-22,10-1.87-.16-4.44,1.34-6,3.46-3.4,4.62-7.44,20.73,10.46,37.72Z" style="fill:#37474f"></path><path d="M279.29,105.13c-2.51.36-4.43-.94-5.88-2.66-3.2-3.81-3.36-7.57-1.7-10,1.36-2,4.57-3.18,6.73-1.71s2.33,2.79,3.16,4.5,4.3,1.7,5.39-5c1-6.28.73-12.87,3.93-15.6,4.77-4.07,10.74-2.66,12.48-.08a6.25,6.25,0,0,1,8.59-1.8c3,1.78,5.3,6.61,5.92,18.61.63,12.24-2.54,19.74-5.41,21.68-2.19,1.48-4.59,2.08-9.17,2.11l.16,5.38s7.48,16.61,7.05,27.06c0,0-3.81-6.63-15.18-16.57L283,120.21l-.64-16.88A3.93,3.93,0,0,1,279.29,105.13Z" style="fill:#ffbda7"></path><path d="M314.71,85.47l-4.5-1.72a2.32,2.32,0,0,1,3-1.44A2.53,2.53,0,0,1,314.71,85.47Z" style="fill:#263238"></path><path d="M298,83.72l-4.46,2.59a2.48,2.48,0,0,1,.84-3.49A2.7,2.7,0,0,1,298,83.72Z" style="fill:#263238"></path><path d="M292,75.44c-1.08,1.37-1.87,2.75-1.7,7.67.06,2-.09,6.83-1.46,9.68-1.2,2.49-2.45,4-5.11,4.44a9.75,9.75,0,0,1-4.79-.49c-.94-.43-3.58-2.3-3.26-5a5.76,5.76,0,0,0,1.94,1.37,5.88,5.88,0,0,0,1.76.42A5.36,5.36,0,0,0,283.92,91c1.78-2.65,1.66-6.21,2.21-9.24.69-3.86,1.36-8.23,4.84-10.14,4.11-2.26,11.54-1.26,12.43,2.94A8.16,8.16,0,0,0,292,75.44Z" style="fill:#37474f"></path><path d="M298.2,101.71l6.73,1.86a3.5,3.5,0,0,1-4.62,2.33A3.28,3.28,0,0,1,298.2,101.71Z" style="fill:#b16668"></path><path d="M302.23,106a3.65,3.65,0,0,0-3.81-3.1,2,2,0,0,0-.34,0,3.08,3.08,0,0,0,2.23,2.93A4,4,0,0,0,302.23,106Z" style="fill:#f0997a"></path><polygon points="303.4 87.04 304.82 99.02 311.32 96.49 303.4 87.04" style="fill:#f0997a"></polygon><path d="M303.33,115.15a42.47,42.47,0,0,1-12.93-2.92c-1.5-.65-3.5-3.41-5.13-6.48,0,0,1.1,6,4.34,8.12,4.91,3.2,13.79,4,13.79,4Z" style="fill:#f0997a"></path><path d="M313.59,89.05c.35,1-.33,1.31-1.28,1.65s-1.79.55-2.14-.43a1.82,1.82,0,1,1,3.42-1.22Z" style="fill:#263238"></path><path d="M310.35,88.26a4.65,4.65,0,0,1,1.36-.51,3.88,3.88,0,0,1,1.4-.09,4.83,4.83,0,0,1,1.44.4s.06.12,0,.12a12.49,12.49,0,0,0-1.29-.11,7.2,7.2,0,0,0-3.35.89,6.52,6.52,0,0,0-.57.32c-.05,0-.1-.1-.07-.14A3,3,0,0,1,310.35,88.26Z" style="fill:#263238"></path><path d="M295.29,89.71c-.22,1,.51,1.25,1.49,1.46s1.84.3,2.06-.72a1.83,1.83,0,0,0-1.38-2.21A1.86,1.86,0,0,0,295.29,89.71Z" style="fill:#263238"></path><path d="M298.39,88.48a4.57,4.57,0,0,0-1.41-.31,3.66,3.66,0,0,0-1.4.1,4.39,4.39,0,0,0-1.37.59s0,.13,0,.12c.38-.09.71-.2,1.26-.29a7,7,0,0,1,1.59,0,7.13,7.13,0,0,1,1.85.44l.61.24c.06,0,.09-.11.06-.15A3.25,3.25,0,0,0,298.39,88.48Z" style="fill:#263238"></path></g><path d="M356.63,230.06h-1.57a19.51,19.51,0,0,1-19.5-19.49V195.39a.56.56,0,0,1,1.11,0v15.18A18.4,18.4,0,0,0,355.06,229h1.57A18.4,18.4,0,0,0,375,210.57V142a28.65,28.65,0,0,1,8.77-20.56l.62-.59a.56.56,0,0,1,.77.8l-.62.59A27.5,27.5,0,0,0,376.13,142v68.59A19.52,19.52,0,0,1,356.63,230.06Z" style="fill:#263238"></path></g></g></g><g id="freepik--speech-bubble--inject-144"><g id="freepik--speech-bubble--inject-144"><path d="M423.61,46.25V76.88a4.72,4.72,0,0,1-4.72,4.72H392.07a1.17,1.17,0,0,0-1.16,1c-.94,6.18-6.23,12.75-15.71,13.78A15,15,0,0,0,378,82.47a1.19,1.19,0,0,0-1.14-.87H349.42a4.71,4.71,0,0,1-4.71-4.72V46.25a4.72,4.72,0,0,1,4.71-4.73h69.47A4.72,4.72,0,0,1,423.61,46.25Z" style="fill:#fff"></path><path d="M418.89,39.18H349.42a7.07,7.07,0,0,0-7.06,7.07v3.36l-.21,0h-4.86a1.58,1.58,0,0,0-1.58,1.58V72a1.58,1.58,0,0,0,1.58,1.58h4.86l.21,0v3.37A7.07,7.07,0,0,0,349.42,84H376a12.46,12.46,0,0,1-4.51,12.83,1.2,1.2,0,0,0-.36,1.31,1.18,1.18,0,0,0,1.09.78h.37c12,0,18.89-7.52,20.5-14.92h25.83A7.08,7.08,0,0,0,426,76.88V46.25A7.08,7.08,0,0,0,418.89,39.18Zm4.72,37.7a4.72,4.72,0,0,1-4.72,4.72H392.07a1.17,1.17,0,0,0-1.16,1c-.94,6.18-6.23,12.75-15.71,13.78A15,15,0,0,0,378,82.47a1.19,1.19,0,0,0-1.14-.87H349.42a4.71,4.71,0,0,1-4.71-4.72V46.25a4.72,4.72,0,0,1,4.71-4.73h69.47a4.73,4.73,0,0,1,4.72,4.73Z" style="fill:#455a64"></path><path d="M379.24,44.94V62.26L352.3,55.61l36.06,23.13V61.42l28.43,8.17L379.25,44.94v0Z" style="fill:#2D3D6C"></path></g></g></svg>